STARTFONT 2.1
COMMENT
COMMENT Converted from OpenType font "CUSONG.ttf" by "otf2bdf 3.0".
COMMENT
FONT -FreeType-Chusung-Medium-R-Normal--16-160-72-72-P-148-ISO10646-1
SIZE 16 72 72
FONTBOUNDINGBOX 16 19 0 -4
STARTPROPERTIES 19
FOUNDRY "FreeType"
FAMILY_NAME "Chusung"
WEIGHT_NAME "Medium"
SLANT "R"
SETWIDTH_NAME "Normal"
ADD_STYLE_NAME ""
PIXEL_SIZE 16
POINT_SIZE 160
RESOLUTION_X 72
RESOLUTION_Y 72
SPACING "P"
AVERAGE_WIDTH 148
CHARSET_REGISTRY "ISO10646"
CHARSET_ENCODING "1"
FONT_ASCENT 14
FONT_DESCENT 2
COPYRIGHT "Copyright (c) 1988  The Institute of Software, Academia Sinica,                2020  diaowinner <diaowinner 47 qq d07 com>"
_OTF_FONTFILE "CUSONG.ttf"
_OTF_PSNAME "Chusung16"
ENDPROPERTIES
CHARS 7573
STARTCHAR 0000
ENCODING 0
SWIDTH 500 0
DWIDTH 8 0
BBX 0 0 0 0
BITMAP
ENDCHAR
STARTCHAR 0001
ENCODING 1
SWIDTH 500 0
DWIDTH 8 0
BBX 8 10 0 0
BITMAP
7E
81
A5
81
81
BD
99
81
81
7E
ENDCHAR
STARTCHAR 0002
ENCODING 2
SWIDTH 500 0
DWIDTH 8 0
BBX 7 10 0 0
BITMAP
7C
FE
FE
D6
FE
FE
BA
C6
FE
7C
ENDCHAR
STARTCHAR 0003
ENCODING 3
SWIDTH 500 0
DWIDTH 8 0
BBX 7 9 0 0
BITMAP
6C
EE
FE
FE
FE
FE
7C
38
10
ENDCHAR
STARTCHAR 0004
ENCODING 4
SWIDTH 500 0
DWIDTH 8 0
BBX 7 7 0 2
BITMAP
10
38
7C
FE
7C
38
10
ENDCHAR
STARTCHAR 0005
ENCODING 5
SWIDTH 500 0
DWIDTH 8 0
BBX 7 9 0 0
BITMAP
10
38
38
10
6C
EE
6C
10
38
ENDCHAR
STARTCHAR 0006
ENCODING 6
SWIDTH 500 0
DWIDTH 8 0
BBX 7 10 0 0
BITMAP
10
38
7C
7C
FE
FE
FE
6C
10
38
ENDCHAR
STARTCHAR 0007
ENCODING 7
SWIDTH 500 0
DWIDTH 8 0
BBX 4 5 2 2
BITMAP
60
F0
F0
F0
60
ENDCHAR
STARTCHAR 0008
ENCODING 8
SWIDTH 500 0
DWIDTH 8 0
BBX 8 16 0 -4
BITMAP
FF
FF
FF
FF
FF
E7
C3
C3
C3
E7
FF
FF
FF
FF
FF
FF
ENDCHAR
STARTCHAR 0009
ENCODING 9
SWIDTH 500 0
DWIDTH 8 0
BBX 6 7 1 1
BITMAP
30
78
CC
CC
CC
78
30
ENDCHAR
STARTCHAR 000A
ENCODING 10
SWIDTH 500 0
DWIDTH 8 0
BBX 8 16 0 -4
BITMAP
FF
FF
FF
FF
E7
C3
99
99
99
C3
E7
FF
FF
FF
FF
FF
ENDCHAR
STARTCHAR 000B
ENCODING 11
SWIDTH 500 0
DWIDTH 8 0
BBX 7 10 0 0
BITMAP
1E
0E
1E
36
78
CC
CC
CC
CC
78
ENDCHAR
STARTCHAR 000C
ENCODING 12
SWIDTH 500 0
DWIDTH 8 0
BBX 6 10 1 0
BITMAP
78
CC
CC
CC
78
30
FC
30
30
30
ENDCHAR
STARTCHAR 000D
ENCODING 13
SWIDTH 500 0
DWIDTH 8 0
BBX 7 10 0 0
BITMAP
1E
1A
1E
18
18
18
18
78
F8
70
ENDCHAR
STARTCHAR 000E
ENCODING 14
SWIDTH 500 0
DWIDTH 8 0
BBX 7 11 0 -1
BITMAP
3E
36
3E
36
36
76
F6
66
0E
1E
0C
ENDCHAR
STARTCHAR 000F
ENCODING 15
SWIDTH 500 0
DWIDTH 8 0
BBX 8 10 0 0
BITMAP
18
DB
7E
3C
66
66
3C
7E
DB
18
ENDCHAR
STARTCHAR 0010
ENCODING 16
SWIDTH 500 0
DWIDTH 8 0
BBX 7 9 0 0
BITMAP
80
E0
F0
FC
FE
FC
F0
E0
80
ENDCHAR
STARTCHAR 0011
ENCODING 17
SWIDTH 500 0
DWIDTH 8 0
BBX 7 9 0 0
BITMAP
02
0E
3E
7E
FE
7E
3E
0E
02
ENDCHAR
STARTCHAR 0012
ENCODING 18
SWIDTH 500 0
DWIDTH 8 0
BBX 6 10 1 0
BITMAP
30
78
FC
30
30
30
30
FC
78
30
ENDCHAR
STARTCHAR 0013
ENCODING 19
SWIDTH 500 0
DWIDTH 8 0
BBX 6 10 1 0
BITMAP
CC
CC
CC
CC
CC
CC
CC
00
CC
CC
ENDCHAR
STARTCHAR 0014
ENCODING 20
SWIDTH 500 0
DWIDTH 8 0
BBX 8 10 0 0
BITMAP
7F
DB
DB
DB
DB
7B
1B
1B
1B
1B
ENDCHAR
STARTCHAR 0015
ENCODING 21
SWIDTH 500 0
DWIDTH 8 0
BBX 7 12 0 -2
BITMAP
7C
C6
C6
60
7C
F6
DE
7C
0C
C6
C6
7C
ENDCHAR
STARTCHAR 0016
ENCODING 22
SWIDTH 500 0
DWIDTH 8 0
BBX 7 4 0 0
BITMAP
FE
FE
FE
FE
ENDCHAR
STARTCHAR 0017
ENCODING 23
SWIDTH 500 0
DWIDTH 8 0
BBX 6 10 1 0
BITMAP
30
78
FC
30
30
30
FC
78
30
FC
ENDCHAR
STARTCHAR 0018
ENCODING 24
SWIDTH 500 0
DWIDTH 8 0
BBX 6 10 1 0
BITMAP
30
78
FC
30
30
30
30
30
30
30
ENDCHAR
STARTCHAR 0019
ENCODING 25
SWIDTH 500 0
DWIDTH 8 0
BBX 6 10 1 0
BITMAP
30
30
30
30
30
30
30
FC
78
30
ENDCHAR
STARTCHAR 001A
ENCODING 26
SWIDTH 500 0
DWIDTH 8 0
BBX 8 5 0 2
BITMAP
0C
0E
FF
0E
0C
ENDCHAR
STARTCHAR 001B
ENCODING 27
SWIDTH 500 0
DWIDTH 8 0
BBX 7 5 0 2
BITMAP
30
70
FE
70
30
ENDCHAR
STARTCHAR 001C
ENCODING 28
SWIDTH 500 0
DWIDTH 8 0
BBX 7 4 0 2
BITMAP
C0
C0
C0
FE
ENDCHAR
STARTCHAR 001D
ENCODING 29
SWIDTH 500 0
DWIDTH 8 0
BBX 8 5 0 2
BITMAP
24
66
FF
66
24
ENDCHAR
STARTCHAR 001E
ENCODING 30
SWIDTH 500 0
DWIDTH 8 0
BBX 7 8 0 1
BITMAP
10
38
38
38
7C
7C
FE
FE
ENDCHAR
STARTCHAR 001F
ENCODING 31
SWIDTH 500 0
DWIDTH 8 0
BBX 7 8 0 1
BITMAP
FE
FE
7C
7C
7C
38
38
10
ENDCHAR
STARTCHAR 0020
ENCODING 32
SWIDTH 500 0
DWIDTH 8 0
BBX 0 0 0 0
BITMAP
ENDCHAR
STARTCHAR 0021
ENCODING 33
SWIDTH 500 0
DWIDTH 8 0
BBX 4 10 2 0
BITMAP
60
F0
F0
F0
F0
60
60
00
60
60
ENDCHAR
STARTCHAR 0022
ENCODING 34
SWIDTH 500 0
DWIDTH 8 0
BBX 5 5 2 6
BITMAP
D8
D8
D8
D8
50
ENDCHAR
STARTCHAR 0023
ENCODING 35
SWIDTH 500 0
DWIDTH 8 0
BBX 7 10 0 0
BITMAP
6C
6C
6C
FE
6C
6C
FE
6C
6C
6C
ENDCHAR
STARTCHAR 0024
ENCODING 36
SWIDTH 500 0
DWIDTH 8 0
BBX 7 12 0 -2
BITMAP
18
18
7C
C6
C0
78
3C
06
C6
7C
18
18
ENDCHAR
STARTCHAR 0025
ENCODING 37
SWIDTH 500 0
DWIDTH 8 0
BBX 7 7 0 0
BITMAP
62
66
0C
18
30
66
C6
ENDCHAR
STARTCHAR 0026
ENCODING 38
SWIDTH 500 0
DWIDTH 8 0
BBX 7 10 0 0
BITMAP
38
6C
38
30
76
7E
CC
CC
CC
76
ENDCHAR
STARTCHAR 0027
ENCODING 39
SWIDTH 500 0
DWIDTH 8 0
BBX 3 4 3 7
BITMAP
60
60
60
C0
ENDCHAR
STARTCHAR 0028
ENCODING 40
SWIDTH 500 0
DWIDTH 8 0
BBX 4 10 2 0
BITMAP
30
60
C0
C0
C0
C0
C0
C0
60
30
ENDCHAR
STARTCHAR 0029
ENCODING 41
SWIDTH 500 0
DWIDTH 8 0
BBX 4 10 2 0
BITMAP
C0
60
30
30
30
30
30
30
60
C0
ENDCHAR
STARTCHAR 002A
ENCODING 42
SWIDTH 500 0
DWIDTH 8 0
BBX 7 5 0 2
BITMAP
6C
38
FE
38
6C
ENDCHAR
STARTCHAR 002B
ENCODING 43
SWIDTH 500 0
DWIDTH 8 0
BBX 6 5 1 2
BITMAP
30
30
FC
30
30
ENDCHAR
STARTCHAR 002C
ENCODING 44
SWIDTH 500 0
DWIDTH 8 0
BBX 3 4 3 -1
BITMAP
60
60
60
C0
ENDCHAR
STARTCHAR 002D
ENCODING 45
SWIDTH 500 0
DWIDTH 8 0
BBX 7 1 0 4
BITMAP
FE
ENDCHAR
STARTCHAR 002E
ENCODING 46
SWIDTH 500 0
DWIDTH 8 0
BBX 2 2 3 0
BITMAP
C0
C0
ENDCHAR
STARTCHAR 002F
ENCODING 47
SWIDTH 500 0
DWIDTH 8 0
BBX 7 8 0 0
BITMAP
02
06
0C
18
30
60
C0
80
ENDCHAR
STARTCHAR 0030
ENCODING 48
SWIDTH 500 0
DWIDTH 8 0
BBX 7 10 0 0
BITMAP
7C
C6
C6
CE
DE
F6
E6
C6
C6
7C
ENDCHAR
STARTCHAR 0031
ENCODING 49
SWIDTH 500 0
DWIDTH 8 0
BBX 6 10 1 0
BITMAP
30
F0
30
30
30
30
30
30
30
FC
ENDCHAR
STARTCHAR 0032
ENCODING 50
SWIDTH 500 0
DWIDTH 8 0
BBX 7 10 0 0
BITMAP
7C
C6
C6
06
0C
18
30
60
C6
FE
ENDCHAR
STARTCHAR 0033
ENCODING 51
SWIDTH 500 0
DWIDTH 8 0
BBX 7 10 0 0
BITMAP
7C
C6
06
06
3C
06
06
06
C6
7C
ENDCHAR
STARTCHAR 0034
ENCODING 52
SWIDTH 500 0
DWIDTH 8 0
BBX 7 10 0 0
BITMAP
0C
1C
3C
6C
CC
CC
FE
0C
0C
1E
ENDCHAR
STARTCHAR 0035
ENCODING 53
SWIDTH 500 0
DWIDTH 8 0
BBX 7 10 0 0
BITMAP
FE
C0
C0
C0
FC
06
06
06
C6
7C
ENDCHAR
STARTCHAR 0036
ENCODING 54
SWIDTH 500 0
DWIDTH 8 0
BBX 7 10 0 0
BITMAP
7C
C6
C0
C0
FC
C6
C6
C6
C6
7C
ENDCHAR
STARTCHAR 0037
ENCODING 55
SWIDTH 500 0
DWIDTH 8 0
BBX 7 10 0 0
BITMAP
FE
C6
06
0C
18
30
30
30
30
30
ENDCHAR
STARTCHAR 0038
ENCODING 56
SWIDTH 500 0
DWIDTH 8 0
BBX 7 10 0 0
BITMAP
7C
C6
C6
C6
7C
C6
C6
C6
C6
7C
ENDCHAR
STARTCHAR 0039
ENCODING 57
SWIDTH 500 0
DWIDTH 8 0
BBX 7 10 0 0
BITMAP
7C
C6
C6
C6
C6
7E
06
06
C6
7C
ENDCHAR
STARTCHAR 003A
ENCODING 58
SWIDTH 500 0
DWIDTH 8 0
BBX 2 6 4 1
BITMAP
C0
C0
00
00
C0
C0
ENDCHAR
STARTCHAR 003B
ENCODING 59
SWIDTH 500 0
DWIDTH 8 0
BBX 3 8 3 -1
BITMAP
60
60
00
00
60
60
60
C0
ENDCHAR
STARTCHAR 003C
ENCODING 60
SWIDTH 500 0
DWIDTH 8 0
BBX 6 9 0 0
BITMAP
0C
18
30
60
C0
60
30
18
0C
ENDCHAR
STARTCHAR 003D
ENCODING 61
SWIDTH 500 0
DWIDTH 8 0
BBX 7 3 0 3
BITMAP
FE
00
FE
ENDCHAR
STARTCHAR 003E
ENCODING 62
SWIDTH 500 0
DWIDTH 8 0
BBX 6 9 1 0
BITMAP
C0
60
30
18
0C
18
30
60
C0
ENDCHAR
STARTCHAR 003F
ENCODING 63
SWIDTH 500 0
DWIDTH 8 0
BBX 7 10 0 0
BITMAP
7C
C6
C6
0C
18
18
18
00
18
18
ENDCHAR
STARTCHAR 0040
ENCODING 64
SWIDTH 500 0
DWIDTH 8 0
BBX 7 10 0 0
BITMAP
7C
C6
C6
C6
DE
DE
DE
DC
C0
7E
ENDCHAR
STARTCHAR 0041
ENCODING 65
SWIDTH 500 0
DWIDTH 8 0
BBX 7 10 0 0
BITMAP
38
6C
C6
C6
C6
FE
C6
C6
C6
C6
ENDCHAR
STARTCHAR 0042
ENCODING 66
SWIDTH 500 0
DWIDTH 8 0
BBX 7 10 0 0
BITMAP
FC
66
66
66
7C
66
66
66
66
FC
ENDCHAR
STARTCHAR 0043
ENCODING 67
SWIDTH 500 0
DWIDTH 8 0
BBX 7 10 0 0
BITMAP
3C
66
C2
C0
C0
C0
C0
C2
66
3C
ENDCHAR
STARTCHAR 0044
ENCODING 68
SWIDTH 500 0
DWIDTH 8 0
BBX 7 10 0 0
BITMAP
F8
6C
66
66
66
66
66
66
6C
F8
ENDCHAR
STARTCHAR 0045
ENCODING 69
SWIDTH 500 0
DWIDTH 8 0
BBX 7 10 0 0
BITMAP
FE
66
60
64
7C
64
60
60
66
FE
ENDCHAR
STARTCHAR 0046
ENCODING 70
SWIDTH 500 0
DWIDTH 8 0
BBX 7 10 0 0
BITMAP
FE
66
60
64
7C
64
60
60
60
F0
ENDCHAR
STARTCHAR 0047
ENCODING 71
SWIDTH 500 0
DWIDTH 8 0
BBX 7 10 0 0
BITMAP
7C
C6
C6
C0
C0
C0
CE
C6
C6
7C
ENDCHAR
STARTCHAR 0048
ENCODING 72
SWIDTH 500 0
DWIDTH 8 0
BBX 7 10 0 0
BITMAP
C6
C6
C6
C6
FE
C6
C6
C6
C6
C6
ENDCHAR
STARTCHAR 0049
ENCODING 73
SWIDTH 500 0
DWIDTH 8 0
BBX 4 10 2 0
BITMAP
F0
60
60
60
60
60
60
60
60
F0
ENDCHAR
STARTCHAR 004A
ENCODING 74
SWIDTH 500 0
DWIDTH 8 0
BBX 6 10 0 0
BITMAP
3C
18
18
18
18
18
18
D8
D8
70
ENDCHAR
STARTCHAR 004B
ENCODING 75
SWIDTH 500 0
DWIDTH 8 0
BBX 7 10 0 0
BITMAP
C6
C6
CC
D8
F0
F0
D8
CC
C6
C6
ENDCHAR
STARTCHAR 004C
ENCODING 76
SWIDTH 500 0
DWIDTH 8 0
BBX 7 10 0 0
BITMAP
F0
60
60
60
60
60
60
62
66
FE
ENDCHAR
STARTCHAR 004D
ENCODING 77
SWIDTH 500 0
DWIDTH 8 0
BBX 7 10 0 0
BITMAP
C6
C6
EE
EE
FE
D6
D6
D6
C6
C6
ENDCHAR
STARTCHAR 004E
ENCODING 78
SWIDTH 500 0
DWIDTH 8 0
BBX 7 10 0 0
BITMAP
C6
C6
E6
E6
F6
DE
CE
CE
C6
C6
ENDCHAR
STARTCHAR 004F
ENCODING 79
SWIDTH 500 0
DWIDTH 8 0
BBX 7 10 0 0
BITMAP
7C
C6
C6
C6
C6
C6
C6
C6
C6
7C
ENDCHAR
STARTCHAR 0050
ENCODING 80
SWIDTH 500 0
DWIDTH 8 0
BBX 7 10 0 0
BITMAP
FC
66
66
66
66
7C
60
60
60
F0
ENDCHAR
STARTCHAR 0051
ENCODING 81
SWIDTH 500 0
DWIDTH 8 0
BBX 7 11 0 -1
BITMAP
7C
C6
C6
C6
C6
C6
C6
D6
D6
7C
06
ENDCHAR
STARTCHAR 0052
ENCODING 82
SWIDTH 500 0
DWIDTH 8 0
BBX 7 10 0 0
BITMAP
FC
66
66
66
7C
78
6C
66
66
E6
ENDCHAR
STARTCHAR 0053
ENCODING 83
SWIDTH 500 0
DWIDTH 8 0
BBX 7 10 0 0
BITMAP
7C
C6
C0
C0
70
1C
06
06
C6
7C
ENDCHAR
STARTCHAR 0054
ENCODING 84
SWIDTH 500 0
DWIDTH 8 0
BBX 6 10 1 0
BITMAP
FC
B4
30
30
30
30
30
30
30
78
ENDCHAR
STARTCHAR 0055
ENCODING 85
SWIDTH 500 0
DWIDTH 8 0
BBX 7 10 0 0
BITMAP
C6
C6
C6
C6
C6
C6
C6
C6
C6
7C
ENDCHAR
STARTCHAR 0056
ENCODING 86
SWIDTH 500 0
DWIDTH 8 0
BBX 7 10 0 0
BITMAP
C6
C6
C6
C6
C6
C6
C6
6C
38
10
ENDCHAR
STARTCHAR 0057
ENCODING 87
SWIDTH 500 0
DWIDTH 8 0
BBX 7 10 0 0
BITMAP
C6
C6
C6
D6
D6
D6
FE
EE
C6
C6
ENDCHAR
STARTCHAR 0058
ENCODING 88
SWIDTH 500 0
DWIDTH 8 0
BBX 7 10 0 0
BITMAP
C6
C6
C6
6C
38
38
6C
C6
C6
C6
ENDCHAR
STARTCHAR 0059
ENCODING 89
SWIDTH 500 0
DWIDTH 8 0
BBX 6 10 1 0
BITMAP
CC
CC
CC
CC
CC
78
30
30
30
78
ENDCHAR
STARTCHAR 005A
ENCODING 90
SWIDTH 500 0
DWIDTH 8 0
BBX 7 10 0 0
BITMAP
FE
C6
86
0C
18
30
60
C2
C6
FE
ENDCHAR
STARTCHAR 005B
ENCODING 91
SWIDTH 500 0
DWIDTH 8 0
BBX 5 10 1 0
BITMAP
F8
C0
C0
C0
C0
C0
C0
C0
C0
F8
ENDCHAR
STARTCHAR 005C
ENCODING 92
SWIDTH 500 0
DWIDTH 8 0
BBX 7 8 0 0
BITMAP
80
C0
60
30
18
0C
06
02
ENDCHAR
STARTCHAR 005D
ENCODING 93
SWIDTH 500 0
DWIDTH 8 0
BBX 5 10 1 0
BITMAP
F8
18
18
18
18
18
18
18
18
F8
ENDCHAR
STARTCHAR 005E
ENCODING 94
SWIDTH 500 0
DWIDTH 8 0
BBX 7 4 0 7
BITMAP
10
38
6C
C6
ENDCHAR
STARTCHAR 005F
ENCODING 95
SWIDTH 500 0
DWIDTH 8 0
BBX 8 1 0 -2
BITMAP
FF
ENDCHAR
STARTCHAR 0060
ENCODING 96
SWIDTH 500 0
DWIDTH 8 0
BBX 3 4 3 7
BITMAP
C0
C0
C0
60
ENDCHAR
STARTCHAR 0061
ENCODING 97
SWIDTH 500 0
DWIDTH 8 0
BBX 7 7 0 0
BITMAP
78
0C
7C
CC
CC
DC
76
ENDCHAR
STARTCHAR 0062
ENCODING 98
SWIDTH 500 0
DWIDTH 8 0
BBX 7 10 0 0
BITMAP
E0
60
60
7C
66
66
66
66
66
FC
ENDCHAR
STARTCHAR 0063
ENCODING 99
SWIDTH 500 0
DWIDTH 8 0
BBX 7 7 0 0
BITMAP
7C
C6
C0
C0
C0
C6
7C
ENDCHAR
STARTCHAR 0064
ENCODING 100
SWIDTH 500 0
DWIDTH 8 0
BBX 7 10 0 0
BITMAP
1C
0C
0C
7C
CC
CC
CC
CC
CC
7E
ENDCHAR
STARTCHAR 0065
ENCODING 101
SWIDTH 500 0
DWIDTH 8 0
BBX 7 7 0 0
BITMAP
7C
C6
C6
FE
C0
C6
7C
ENDCHAR
STARTCHAR 0066
ENCODING 102
SWIDTH 500 0
DWIDTH 8 0
BBX 7 10 0 0
BITMAP
1C
36
30
30
FC
30
30
30
30
78
ENDCHAR
STARTCHAR 0067
ENCODING 103
SWIDTH 500 0
DWIDTH 8 0
BBX 7 9 0 -2
BITMAP
76
CE
C6
C6
CE
76
06
C6
7C
ENDCHAR
STARTCHAR 0068
ENCODING 104
SWIDTH 500 0
DWIDTH 8 0
BBX 7 10 0 0
BITMAP
E0
60
60
7C
66
66
66
66
66
E6
ENDCHAR
STARTCHAR 0069
ENCODING 105
SWIDTH 500 0
DWIDTH 8 0
BBX 4 10 2 0
BITMAP
60
60
00
E0
60
60
60
60
60
F0
ENDCHAR
STARTCHAR 006A
ENCODING 106
SWIDTH 500 0
DWIDTH 8 0
BBX 6 12 0 -2
BITMAP
0C
0C
00
1C
0C
0C
0C
0C
0C
CC
CC
78
ENDCHAR
STARTCHAR 006B
ENCODING 107
SWIDTH 500 0
DWIDTH 8 0
BBX 7 10 0 0
BITMAP
E0
60
60
66
66
6C
78
6C
66
E6
ENDCHAR
STARTCHAR 006C
ENCODING 108
SWIDTH 500 0
DWIDTH 8 0
BBX 3 10 3 0
BITMAP
C0
C0
C0
C0
C0
C0
C0
C0
C0
E0
ENDCHAR
STARTCHAR 006D
ENCODING 109
SWIDTH 500 0
DWIDTH 8 0
BBX 7 7 0 0
BITMAP
6C
FE
D6
D6
C6
C6
C6
ENDCHAR
STARTCHAR 006E
ENCODING 110
SWIDTH 500 0
DWIDTH 8 0
BBX 7 7 0 0
BITMAP
DC
66
66
66
66
66
66
ENDCHAR
STARTCHAR 006F
ENCODING 111
SWIDTH 500 0
DWIDTH 8 0
BBX 7 7 0 0
BITMAP
7C
C6
C6
C6
C6
C6
7C
ENDCHAR
STARTCHAR 0070
ENCODING 112
SWIDTH 500 0
DWIDTH 8 0
BBX 7 9 0 -2
BITMAP
DC
66
66
66
66
7C
60
60
F0
ENDCHAR
STARTCHAR 0071
ENCODING 113
SWIDTH 500 0
DWIDTH 8 0
BBX 7 9 0 -2
BITMAP
76
CC
CC
CC
CC
7C
0C
0C
1E
ENDCHAR
STARTCHAR 0072
ENCODING 114
SWIDTH 500 0
DWIDTH 8 0
BBX 7 7 0 0
BITMAP
DC
66
60
60
60
60
F0
ENDCHAR
STARTCHAR 0073
ENCODING 115
SWIDTH 500 0
DWIDTH 8 0
BBX 7 7 0 0
BITMAP
7C
C6
C0
7C
06
C6
7C
ENDCHAR
STARTCHAR 0074
ENCODING 116
SWIDTH 500 0
DWIDTH 8 0
BBX 7 10 0 0
BITMAP
30
30
30
FC
30
30
30
30
36
1C
ENDCHAR
STARTCHAR 0075
ENCODING 117
SWIDTH 500 0
DWIDTH 8 0
BBX 7 7 0 0
BITMAP
CC
CC
CC
CC
CC
CC
76
ENDCHAR
STARTCHAR 0076
ENCODING 118
SWIDTH 500 0
DWIDTH 8 0
BBX 7 7 0 0
BITMAP
C6
C6
C6
C6
6C
38
10
ENDCHAR
STARTCHAR 0077
ENCODING 119
SWIDTH 500 0
DWIDTH 8 0
BBX 7 7 0 0
BITMAP
C6
C6
D6
D6
D6
FE
6C
ENDCHAR
STARTCHAR 0078
ENCODING 120
SWIDTH 500 0
DWIDTH 8 0
BBX 7 7 0 0
BITMAP
C6
C6
6C
38
6C
C6
C6
ENDCHAR
STARTCHAR 0079
ENCODING 121
SWIDTH 500 0
DWIDTH 8 0
BBX 7 9 0 -2
BITMAP
C6
C6
C6
C6
CE
76
06
C6
7C
ENDCHAR
STARTCHAR 007A
ENCODING 122
SWIDTH 500 0
DWIDTH 8 0
BBX 7 7 0 0
BITMAP
FE
86
0C
18
30
62
FE
ENDCHAR
STARTCHAR 007B
ENCODING 123
SWIDTH 500 0
DWIDTH 8 0
BBX 6 10 1 0
BITMAP
1C
30
30
30
E0
30
30
30
30
1C
ENDCHAR
STARTCHAR 007C
ENCODING 124
SWIDTH 500 0
DWIDTH 8 0
BBX 2 10 3 0
BITMAP
C0
C0
C0
C0
00
C0
C0
C0
C0
C0
ENDCHAR
STARTCHAR 007D
ENCODING 125
SWIDTH 500 0
DWIDTH 8 0
BBX 6 10 1 0
BITMAP
E0
30
30
30
1C
30
30
30
30
E0
ENDCHAR
STARTCHAR 007E
ENCODING 126
SWIDTH 500 0
DWIDTH 8 0
BBX 7 2 0 8
BITMAP
76
DC
ENDCHAR
STARTCHAR 007F
ENCODING 127
SWIDTH 500 0
DWIDTH 8 0
BBX 7 6 0 1
BITMAP
10
38
38
6C
6C
FE
ENDCHAR
STARTCHAR 00A4
ENCODING 164
SWIDTH 1000 0
DWIDTH 16 0
BBX 13 13 2 -1
BITMAP
8708
58D0
2020
4010
4010
8008
8008
8008
4010
4010
2020
58D0
8708
ENDCHAR
STARTCHAR 00A7
ENCODING 167
SWIDTH 1000 0
DWIDTH 16 0
BBX 5 14 6 -1
BITMAP
70
88
80
40
20
50
88
88
50
20
10
08
88
70
ENDCHAR
STARTCHAR 00A8
ENCODING 168
SWIDTH 1000 0
DWIDTH 16 0
BBX 11 4 3 5
BITMAP
60C0
F1E0
F1E0
60C0
ENDCHAR
STARTCHAR 00B0
ENCODING 176
SWIDTH 1000 0
DWIDTH 16 0
BBX 5 5 6 8
BITMAP
70
88
88
88
70
ENDCHAR
STARTCHAR 00B1
ENCODING 177
SWIDTH 1000 0
DWIDTH 16 0
BBX 9 11 4 1
BITMAP
0800
0800
0800
0800
FF80
0800
0800
0800
0800
0000
FF80
ENDCHAR
STARTCHAR 00D7
ENCODING 215
SWIDTH 1000 0
DWIDTH 16 0
BBX 9 9 4 1
BITMAP
8080
4100
2200
1400
0800
1400
2200
4100
8080
ENDCHAR
STARTCHAR 00E0
ENCODING 224
SWIDTH 1000 0
DWIDTH 16 0
BBX 8 12 4 1
BITMAP
30
18
0C
00
76
CE
C6
C6
C6
C6
CE
77
ENDCHAR
STARTCHAR 00E1
ENCODING 225
SWIDTH 1000 0
DWIDTH 16 0
BBX 8 12 4 1
BITMAP
0C
18
30
00
76
CE
C6
C6
C6
C6
CE
77
ENDCHAR
STARTCHAR 00E8
ENCODING 232
SWIDTH 1000 0
DWIDTH 16 0
BBX 8 12 4 1
BITMAP
30
18
0C
00
3C
66
C3
FF
C0
C0
63
3E
ENDCHAR
STARTCHAR 00E9
ENCODING 233
SWIDTH 1000 0
DWIDTH 16 0
BBX 8 12 4 1
BITMAP
0C
18
30
00
3C
66
C3
FF
C0
C0
63
3E
ENDCHAR
STARTCHAR 00EA
ENCODING 234
SWIDTH 1000 0
DWIDTH 16 0
BBX 8 12 4 1
BITMAP
18
3C
66
00
3C
66
C3
FF
C0
C0
63
3E
ENDCHAR
STARTCHAR 00EC
ENCODING 236
SWIDTH 1000 0
DWIDTH 16 0
BBX 4 12 6 1
BITMAP
C0
60
30
00
60
60
60
60
60
60
60
60
ENDCHAR
STARTCHAR 00ED
ENCODING 237
SWIDTH 1000 0
DWIDTH 16 0
BBX 4 12 5 1
BITMAP
30
60
C0
00
60
60
60
60
60
60
60
60
ENDCHAR
STARTCHAR 00F2
ENCODING 242
SWIDTH 1000 0
DWIDTH 16 0
BBX 8 12 4 1
BITMAP
30
18
0C
00
3C
66
C3
C3
C3
C3
66
3C
ENDCHAR
STARTCHAR 00F3
ENCODING 243
SWIDTH 1000 0
DWIDTH 16 0
BBX 8 12 4 1
BITMAP
0C
18
30
00
3C
66
C3
C3
C3
C3
66
3C
ENDCHAR
STARTCHAR 00F7
ENCODING 247
SWIDTH 1000 0
DWIDTH 16 0
BBX 10 9 3 2
BITMAP
0C00
0C00
0000
0000
FFC0
0000
0000
0C00
0C00
ENDCHAR
STARTCHAR 00F9
ENCODING 249
SWIDTH 1000 0
DWIDTH 16 0
BBX 9 12 4 1
BITMAP
3000
1800
0C00
0000
C300
C300
C300
C300
C300
C300
6700
3B80
ENDCHAR
STARTCHAR 00FA
ENCODING 250
SWIDTH 1000 0
DWIDTH 16 0
BBX 9 12 4 1
BITMAP
0C00
1800
3000
0000
C300
C300
C300
C300
C300
C300
6700
3B80
ENDCHAR
STARTCHAR 00FC
ENCODING 252
SWIDTH 1000 0
DWIDTH 16 0
BBX 9 10 4 1
BITMAP
2400
0000
C300
C300
C300
C300
C300
C300
6700
3B80
ENDCHAR
STARTCHAR 0101
ENCODING 257
SWIDTH 1000 0
DWIDTH 16 0
BBX 8 11 4 1
BITMAP
7E
00
00
76
CE
C6
C6
C6
C6
CE
77
ENDCHAR
STARTCHAR 0113
ENCODING 275
SWIDTH 1000 0
DWIDTH 16 0
BBX 8 11 4 1
BITMAP
7E
00
00
3C
66
C3
FF
C0
C0
63
3E
ENDCHAR
STARTCHAR 011B
ENCODING 283
SWIDTH 1000 0
DWIDTH 16 0
BBX 8 12 4 1
BITMAP
66
3C
18
00
3C
66
C3
FF
C0
C0
63
3E
ENDCHAR
STARTCHAR 012B
ENCODING 299
SWIDTH 1000 0
DWIDTH 16 0
BBX 4 11 6 1
BITMAP
F0
00
60
60
60
60
60
60
60
60
60
ENDCHAR
STARTCHAR 014D
ENCODING 333
SWIDTH 1000 0
DWIDTH 16 0
BBX 8 11 4 1
BITMAP
7E
00
00
3C
66
C3
C3
C3
C3
66
3C
ENDCHAR
STARTCHAR 016B
ENCODING 363
SWIDTH 1000 0
DWIDTH 16 0
BBX 9 11 4 1
BITMAP
FF00
0000
0000
C300
C300
C300
C300
C300
C300
6700
3B80
ENDCHAR
STARTCHAR 01CE
ENCODING 462
SWIDTH 1000 0
DWIDTH 16 0
BBX 8 12 4 1
BITMAP
66
3C
18
00
76
CE
C6
C6
C6
C6
CE
77
ENDCHAR
STARTCHAR 01D0
ENCODING 464
SWIDTH 1000 0
DWIDTH 16 0
BBX 6 12 5 1
BITMAP
CC
78
30
00
30
30
30
30
30
30
30
30
ENDCHAR
STARTCHAR 01D2
ENCODING 466
SWIDTH 1000 0
DWIDTH 16 0
BBX 8 12 4 1
BITMAP
66
3C
18
00
3C
66
C3
C3
C3
C3
66
3C
ENDCHAR
STARTCHAR 01D4
ENCODING 468
SWIDTH 1000 0
DWIDTH 16 0
BBX 9 12 4 1
BITMAP
6600
3C00
1800
0000
C300
C300
C300
C300
C300
C300
6700
3B80
ENDCHAR
STARTCHAR 01D6
ENCODING 470
SWIDTH 1000 0
DWIDTH 16 0
BBX 9 12 4 1
BITMAP
FF00
0000
2400
0000
C300
C300
C300
C300
C300
C300
6700
3B80
ENDCHAR
STARTCHAR 01D8
ENCODING 472
SWIDTH 1000 0
DWIDTH 16 0
BBX 9 14 4 1
BITMAP
0C00
1800
3000
0000
2400
0000
C300
C300
C300
C300
C300
C300
6700
3B80
ENDCHAR
STARTCHAR 01DA
ENCODING 474
SWIDTH 1000 0
DWIDTH 16 0
BBX 9 14 4 1
BITMAP
6600
3C00
1800
0000
2400
0000
C300
C300
C300
C300
C300
C300
6700
3B80
ENDCHAR
STARTCHAR 01DC
ENCODING 476
SWIDTH 1000 0
DWIDTH 16 0
BBX 9 14 4 1
BITMAP
3000
1800
0C00
0000
2400
0000
C300
C300
C300
C300
C300
C300
6700
3B80
ENDCHAR
STARTCHAR 02C7
ENCODING 711
SWIDTH 1000 0
DWIDTH 16 0
BBX 11 11 3 -1
BITMAP
8020
8020
4040
4040
2080
2080
1100
1100
0A00
0E00
0400
ENDCHAR
STARTCHAR 02C9
ENCODING 713
SWIDTH 1000 0
DWIDTH 16 0
BBX 7 1 5 6
BITMAP
FE
ENDCHAR
STARTCHAR 0391
ENCODING 913
SWIDTH 1000 0
DWIDTH 16 0
BBX 14 12 1 2
BITMAP
0300
0380
0780
04C0
0CC0
0860
1860
1FF0
3030
2018
6018
F03C
ENDCHAR
STARTCHAR 0392
ENCODING 914
SWIDTH 1000 0
DWIDTH 16 0
BBX 12 11 1 2
BITMAP
FFE0
7070
6030
6030
6070
7F80
6070
6030
6030
7070
FFE0
ENDCHAR
STARTCHAR 0393
ENCODING 915
SWIDTH 1000 0
DWIDTH 16 0
BBX 12 11 1 2
BITMAP
FFF0
7030
6010
6000
6000
6000
6000
6000
6000
6000
F000
ENDCHAR
STARTCHAR 0394
ENCODING 916
SWIDTH 1000 0
DWIDTH 16 0
BBX 14 11 1 2
BITMAP
0300
0780
0CC0
0CC0
1860
1860
3030
3030
6018
6018
FFFC
ENDCHAR
STARTCHAR 0395
ENCODING 917
SWIDTH 1000 0
DWIDTH 16 0
BBX 12 11 1 2
BITMAP
FFF0
7030
6010
6000
6080
7F80
6080
6000
6010
7030
FFF0
ENDCHAR
STARTCHAR 0396
ENCODING 918
SWIDTH 1000 0
DWIDTH 16 0
BBX 12 11 2 2
BITMAP
FFF0
C060
80C0
0180
0300
0600
0C00
1800
3010
6030
FFF0
ENDCHAR
STARTCHAR 0397
ENCODING 919
SWIDTH 1000 0
DWIDTH 16 0
BBX 14 11 1 2
BITMAP
F03C
6018
6018
6018
6018
7FF8
6018
6018
6018
6018
F03C
ENDCHAR
STARTCHAR 0398
ENCODING 920
SWIDTH 1000 0
DWIDTH 16 0
BBX 13 11 1 2
BITMAP
1FC0
3060
6030
C018
D058
DFD8
D058
C018
6030
3060
1FC0
ENDCHAR
STARTCHAR 0399
ENCODING 921
SWIDTH 1000 0
DWIDTH 16 0
BBX 4 11 6 2
BITMAP
F0
60
60
60
60
60
60
60
60
60
F0
ENDCHAR
STARTCHAR 039A
ENCODING 922
SWIDTH 1000 0
DWIDTH 16 0
BBX 11 11 1 2
BITMAP
F3C0
6300
6600
6C00
7800
7800
6C00
6600
6300
6180
F1E0
ENDCHAR
STARTCHAR 039B
ENCODING 923
SWIDTH 1000 0
DWIDTH 16 0
BBX 13 11 1 2
BITMAP
0200
0700
0D80
0D80
18C0
18C0
3060
3060
6030
6030
F078
ENDCHAR
STARTCHAR 039C
ENCODING 924
SWIDTH 1000 0
DWIDTH 16 0
BBX 15 11 0 2
BITMAP
F01E
701C
783C
682C
6C6C
644C
66CC
628C
638C
610C
F01E
ENDCHAR
STARTCHAR 039D
ENCODING 925
SWIDTH 1000 0
DWIDTH 16 0
BBX 14 11 1 2
BITMAP
E03C
7018
7818
6C18
6618
6318
6198
60D8
6078
6038
F01C
ENDCHAR
STARTCHAR 039E
ENCODING 926
SWIDTH 1000 0
DWIDTH 16 0
BBX 12 11 2 2
BITMAP
FFF0
C030
8010
0000
30C0
3FC0
30C0
0000
8010
C030
FFF0
ENDCHAR
STARTCHAR 039F
ENCODING 927
SWIDTH 1000 0
DWIDTH 16 0
BBX 13 11 1 2
BITMAP
0F80
3060
6030
C018
C018
C018
C018
C018
6030
3060
0F80
ENDCHAR
STARTCHAR 03A0
ENCODING 928
SWIDTH 1000 0
DWIDTH 16 0
BBX 14 11 1 2
BITMAP
FFFC
7038
6018
6018
6018
6018
6018
6018
6018
6018
F03C
ENDCHAR
STARTCHAR 03A1
ENCODING 929
SWIDTH 1000 0
DWIDTH 16 0
BBX 13 11 1 2
BITMAP
FFE0
7030
6018
6018
7030
7FE0
6000
6000
6000
6000
F000
ENDCHAR
STARTCHAR 03A3
ENCODING 931
SWIDTH 1000 0
DWIDTH 16 0
BBX 13 11 1 2
BITMAP
FFF8
6018
3008
1800
0C00
0400
0C00
1800
3008
6018
FFF8
ENDCHAR
STARTCHAR 03A4
ENCODING 932
SWIDTH 1000 0
DWIDTH 16 0
BBX 14 11 1 2
BITMAP
FFFC
C30C
8304
0300
0300
0300
0300
0300
0300
0300
0780
ENDCHAR
STARTCHAR 03A5
ENCODING 933
SWIDTH 1000 0
DWIDTH 16 0
BBX 8 11 4 2
BITMAP
06
6B
98
18
18
18
18
18
18
18
3C
ENDCHAR
STARTCHAR 03A6
ENCODING 934
SWIDTH 1000 0
DWIDTH 16 0
BBX 12 11 2 2
BITMAP
0F00
0600
3FC0
6660
C630
C630
C630
6660
3FC0
0600
0F00
ENDCHAR
STARTCHAR 03A7
ENCODING 935
SWIDTH 1000 0
DWIDTH 16 0
BBX 14 11 1 2
BITMAP
F03C
3030
1860
0CC0
0780
0300
0780
0CC0
1860
3030
F03C
ENDCHAR
STARTCHAR 03A8
ENCODING 936
SWIDTH 1000 0
DWIDTH 16 0
BBX 14 11 1 2
BITMAP
C78C
6318
2310
3330
3330
3330
1FE0
0300
0300
0300
0780
ENDCHAR
STARTCHAR 03A9
ENCODING 937
SWIDTH 1000 0
DWIDTH 16 0
BBX 13 11 1 2
BITMAP
0F80
18C0
3060
6030
6030
6030
6030
3060
98C8
C898
F8F8
ENDCHAR
STARTCHAR 03B1
ENCODING 945
SWIDTH 1000 0
DWIDTH 16 0
BBX 11 9 2 2
BITMAP
1D80
6380
C180
C180
C180
C180
C180
63A0
1CC0
ENDCHAR
STARTCHAR 03B2
ENCODING 946
SWIDTH 1000 0
DWIDTH 16 0
BBX 9 14 3 -1
BITMAP
3E00
C300
C300
C600
F800
C600
C180
C180
C180
E300
DE00
C000
C000
C000
ENDCHAR
STARTCHAR 03B3
ENCODING 947
SWIDTH 1000 0
DWIDTH 16 0
BBX 11 12 2 -1
BITMAP
3860
6CC0
CCC0
0580
0780
0700
0700
0700
0600
0600
0600
0600
ENDCHAR
STARTCHAR 03B4
ENCODING 948
SWIDTH 1000 0
DWIDTH 16 0
BBX 8 11 4 2
BITMAP
3C
66
30
18
2C
66
C3
C3
C3
66
3C
ENDCHAR
STARTCHAR 03B5
ENCODING 949
SWIDTH 1000 0
DWIDTH 16 0
BBX 6 9 4 2
BITMAP
78
CC
C0
60
18
60
C0
CC
78
ENDCHAR
STARTCHAR 03B6
ENCODING 950
SWIDTH 1000 0
DWIDTH 16 0
BBX 7 14 4 -1
BITMAP
20
44
6C
30
30
60
C0
C0
C0
60
3C
06
06
3C
ENDCHAR
STARTCHAR 03B7
ENCODING 951
SWIDTH 1000 0
DWIDTH 16 0
BBX 9 12 3 -1
BITMAP
0F00
5180
B180
3180
3180
3180
3180
3180
3180
0180
0180
0180
ENDCHAR
STARTCHAR 03B8
ENCODING 952
SWIDTH 1000 0
DWIDTH 16 0
BBX 9 11 3 2
BITMAP
1C00
6300
4100
C180
C180
FF80
C180
C180
4100
6300
1C00
ENDCHAR
STARTCHAR 03B9
ENCODING 953
SWIDTH 1000 0
DWIDTH 16 0
BBX 5 10 6 1
BITMAP
E0
60
60
60
60
60
60
60
68
70
ENDCHAR
STARTCHAR 03BA
ENCODING 954
SWIDTH 1000 0
DWIDTH 16 0
BBX 10 9 3 2
BITMAP
E1C0
6300
6600
6C00
7800
6C00
6600
6300
F3C0
ENDCHAR
STARTCHAR 03BB
ENCODING 955
SWIDTH 1000 0
DWIDTH 16 0
BBX 8 12 4 2
BITMAP
40
A0
A0
30
30
30
38
28
6C
45
C7
82
ENDCHAR
STARTCHAR 03BC
ENCODING 956
SWIDTH 1000 0
DWIDTH 16 0
BBX 9 12 4 -1
BITMAP
C600
C600
C600
C600
C600
C600
C600
CE80
F300
C000
C000
C000
ENDCHAR
STARTCHAR 03BD
ENCODING 957
SWIDTH 1000 0
DWIDTH 16 0
BBX 9 9 3 2
BITMAP
C100
4080
6180
2100
3300
1200
1600
1C00
0C00
ENDCHAR
STARTCHAR 03BE
ENCODING 958
SWIDTH 1000 0
DWIDTH 16 0
BBX 7 14 4 -1
BITMAP
60
C0
78
C0
C0
78
C0
80
80
C0
7C
06
26
1C
ENDCHAR
STARTCHAR 03BF
ENCODING 959
SWIDTH 1000 0
DWIDTH 16 0
BBX 8 9 3 2
BITMAP
3C
66
C3
81
81
81
C3
66
3C
ENDCHAR
STARTCHAR 03C0
ENCODING 960
SWIDTH 1000 0
DWIDTH 16 0
BBX 12 9 2 2
BITMAP
7FF0
9980
1980
1980
1980
1980
1180
31A0
60C0
ENDCHAR
STARTCHAR 03C1
ENCODING 961
SWIDTH 1000 0
DWIDTH 16 0
BBX 9 12 3 -1
BITMAP
3E00
6300
C180
C180
C180
C180
E180
F300
DE00
C000
C000
C000
ENDCHAR
STARTCHAR 03C3
ENCODING 963
SWIDTH 1000 0
DWIDTH 16 0
BBX 10 9 3 2
BITMAP
3FC0
6300
C180
C180
C180
C180
C180
6300
3E00
ENDCHAR
STARTCHAR 03C4
ENCODING 964
SWIDTH 1000 0
DWIDTH 16 0
BBX 7 9 4 2
BITMAP
7E
D8
18
18
18
18
18
1A
0C
ENDCHAR
STARTCHAR 03C5
ENCODING 965
SWIDTH 1000 0
DWIDTH 16 0
BBX 9 9 3 2
BITMAP
6300
B180
3180
3180
3180
3180
3180
3180
1F00
ENDCHAR
STARTCHAR 03C6
ENCODING 966
SWIDTH 1000 0
DWIDTH 16 0
BBX 10 14 3 -1
BITMAP
0C00
0C00
3F00
6D80
CCC0
CCC0
CCC0
CCC0
CCC0
6D80
3F00
0C00
0C00
0C00
ENDCHAR
STARTCHAR 03C7
ENCODING 967
SWIDTH 1000 0
DWIDTH 16 0
BBX 10 12 3 1
BITMAP
60C0
B180
3180
1B00
1E00
0C00
0C00
1E00
3600
6300
6340
C180
ENDCHAR
STARTCHAR 03C8
ENCODING 968
SWIDTH 1000 0
DWIDTH 16 0
BBX 10 14 2 -1
BITMAP
0600
0600
6680
B6C0
36C0
36C0
36C0
36C0
36C0
36C0
1F80
0600
0600
0600
ENDCHAR
STARTCHAR 03C9
ENCODING 969
SWIDTH 1000 0
DWIDTH 16 0
BBX 11 9 2 2
BITMAP
1100
60C0
C460
C460
C460
C460
C460
6EC0
3180
ENDCHAR
STARTCHAR 0401
ENCODING 1025
SWIDTH 1000 0
DWIDTH 16 0
BBX 10 14 3 -1
BITMAP
1100
0000
FFC0
60C0
6040
6000
6100
7F00
6100
6000
6000
6040
70C0
FFC0
ENDCHAR
STARTCHAR 0410
ENCODING 1040
SWIDTH 1000 0
DWIDTH 16 0
BBX 11 13 3 0
BITMAP
0400
0E00
0A00
1B00
1300
1300
2180
3F80
2180
40C0
40C0
40C0
E1E0
ENDCHAR
STARTCHAR 0411
ENCODING 1041
SWIDTH 1000 0
DWIDTH 16 0
BBX 10 12 3 0
BITMAP
FFC0
70C0
6040
6000
6000
7F00
6380
61C0
60C0
60C0
7180
FF00
ENDCHAR
STARTCHAR 0412
ENCODING 1042
SWIDTH 1000 0
DWIDTH 16 0
BBX 10 12 3 0
BITMAP
FF80
71C0
60C0
61C0
6380
7E00
6380
61C0
60C0
60C0
7180
FF00
ENDCHAR
STARTCHAR 0413
ENCODING 1043
SWIDTH 1000 0
DWIDTH 16 0
BBX 10 12 3 0
BITMAP
FFC0
70C0
6040
6000
6000
6000
6000
6000
6000
6000
6000
F000
ENDCHAR
STARTCHAR 0414
ENCODING 1044
SWIDTH 1000 0
DWIDTH 16 0
BBX 12 12 2 0
BITMAP
3FE0
08C0
08C0
08C0
10C0
10C0
10C0
20C0
20C0
20C0
FFF0
8010
ENDCHAR
STARTCHAR 0415
ENCODING 1045
SWIDTH 1000 0
DWIDTH 16 0
BBX 10 12 3 0
BITMAP
FFC0
70C0
6040
6000
6100
7F00
6100
6000
6000
6040
70C0
FFC0
ENDCHAR
STARTCHAR 0416
ENCODING 1046
SWIDTH 1000 0
DWIDTH 16 0
BBX 14 12 1 0
BITMAP
E79C
7338
1320
1320
0B40
1B60
1FE0
1B60
3330
3330
6318
F7BC
ENDCHAR
STARTCHAR 0417
ENCODING 1047
SWIDTH 1000 0
DWIDTH 16 0
BBX 11 13 3 0
BITMAP
1E00
A380
C1C0
80E0
01C0
0380
0E00
0380
01C0
80E0
41C0
3380
0F00
ENDCHAR
STARTCHAR 0418
ENCODING 1048
SWIDTH 1000 0
DWIDTH 16 0
BBX 11 12 3 0
BITMAP
F1E0
60C0
61C0
62C0
62C0
64C0
64C0
68C0
68C0
70C0
60C0
F1E0
ENDCHAR
STARTCHAR 0419
ENCODING 1049
SWIDTH 1000 0
DWIDTH 16 0
BBX 11 14 3 -1
BITMAP
3180
1F00
F1E0
60C0
61C0
62C0
62C0
64C0
64C0
68C0
68C0
70C0
60C0
F1E0
ENDCHAR
STARTCHAR 041A
ENCODING 1050
SWIDTH 1000 0
DWIDTH 16 0
BBX 12 12 3 0
BITMAP
F0C0
61A0
6300
6400
6800
7C00
6600
6300
6380
61C0
60C0
F0F0
ENDCHAR
STARTCHAR 041B
ENCODING 1051
SWIDTH 1000 0
DWIDTH 16 0
BBX 11 12 2 0
BITMAP
3FE0
08C0
08C0
08C0
10C0
10C0
10C0
20C0
20C0
A0C0
E0C0
C1E0
ENDCHAR
STARTCHAR 041C
ENCODING 1052
SWIDTH 1000 0
DWIDTH 16 0
BBX 13 11 2 0
BITMAP
E038
7070
58B0
58B0
4CB0
4D30
4530
4730
4230
4230
E078
ENDCHAR
STARTCHAR 041D
ENCODING 1053
SWIDTH 1000 0
DWIDTH 16 0
BBX 11 12 3 0
BITMAP
F1E0
60C0
60C0
60C0
60C0
7FC0
60C0
60C0
60C0
60C0
60C0
F1E0
ENDCHAR
STARTCHAR 041E
ENCODING 1054
SWIDTH 1000 0
DWIDTH 16 0
BBX 11 12 3 0
BITMAP
1F00
3180
60C0
C060
C060
C060
C060
C060
C060
60C0
3180
1F00
ENDCHAR
STARTCHAR 041F
ENCODING 1055
SWIDTH 1000 0
DWIDTH 16 0
BBX 11 12 3 0
BITMAP
FFE0
60C0
60C0
60C0
60C0
60C0
60C0
60C0
60C0
60C0
60C0
F1E0
ENDCHAR
STARTCHAR 0420
ENCODING 1056
SWIDTH 1000 0
DWIDTH 16 0
BBX 10 12 3 0
BITMAP
FF00
7180
60C0
60C0
60C0
7180
7F00
6000
6000
6000
6000
F000
ENDCHAR
STARTCHAR 0421
ENCODING 1057
SWIDTH 1000 0
DWIDTH 16 0
BBX 10 12 3 0
BITMAP
1F00
31C0
60C0
C040
C000
C000
C000
C000
C000
6040
3180
1F00
ENDCHAR
STARTCHAR 0422
ENCODING 1058
SWIDTH 1000 0
DWIDTH 16 0
BBX 10 11 3 1
BITMAP
FFC0
8C40
0C00
0C00
0C00
0C00
0C00
0C00
0C00
0C00
1E00
ENDCHAR
STARTCHAR 0423
ENCODING 1059
SWIDTH 1000 0
DWIDTH 16 0
BBX 11 13 3 -1
BITMAP
F0E0
6040
6040
7040
3080
3880
1900
1B00
0E00
0400
4800
F000
6000
ENDCHAR
STARTCHAR 0424
ENCODING 1060
SWIDTH 1000 0
DWIDTH 16 0
BBX 12 12 2 0
BITMAP
0F00
0600
3FC0
6660
C630
C630
C630
C630
6660
3FC0
0600
0F00
ENDCHAR
STARTCHAR 0425
ENCODING 1061
SWIDTH 1000 0
DWIDTH 16 0
BBX 11 12 3 0
BITMAP
F0E0
6040
30C0
3980
1B00
0E00
0E00
1B00
3300
2180
40C0
E1E0
ENDCHAR
STARTCHAR 0426
ENCODING 1062
SWIDTH 1000 0
DWIDTH 16 0
BBX 12 13 3 -1
BITMAP
F1E0
60C0
60C0
60C0
60C0
60C0
60C0
60C0
60C0
60C0
60C0
FFF0
0010
ENDCHAR
STARTCHAR 0427
ENCODING 1063
SWIDTH 1000 0
DWIDTH 16 0
BBX 11 12 3 0
BITMAP
F1E0
60C0
60C0
60C0
60C0
61C0
33C0
1EC0
00C0
00C0
00C0
01E0
ENDCHAR
STARTCHAR 0428
ENCODING 1064
SWIDTH 1000 0
DWIDTH 16 0
BBX 14 12 1 0
BITMAP
F7BC
6318
6318
6318
6318
6318
6318
6318
6318
6318
6318
FFFC
ENDCHAR
STARTCHAR 0429
ENCODING 1065
SWIDTH 1000 0
DWIDTH 16 0
BBX 15 12 1 0
BITMAP
F7BC
6318
6318
6318
6318
6318
6318
6318
6318
6318
FFFE
0002
ENDCHAR
STARTCHAR 042A
ENCODING 1066
SWIDTH 1000 0
DWIDTH 16 0
BBX 10 12 3 0
BITMAP
F800
B000
3000
3000
3000
3F00
3980
30C0
30C0
30C0
3980
7F00
ENDCHAR
STARTCHAR 042B
ENCODING 1067
SWIDTH 1000 0
DWIDTH 16 0
BBX 12 12 2 0
BITMAP
F0F0
6060
6060
6060
6060
7C60
7660
6360
6360
6360
7660
FCF0
ENDCHAR
STARTCHAR 042C
ENCODING 1068
SWIDTH 1000 0
DWIDTH 16 0
BBX 9 12 4 0
BITMAP
F000
6000
6000
6000
6000
7E00
7300
6180
6180
6180
7300
FE00
ENDCHAR
STARTCHAR 042D
ENCODING 1069
SWIDTH 1000 0
DWIDTH 16 0
BBX 10 12 4 0
BITMAP
BE00
E300
C180
80C0
00C0
07C0
00C0
00C0
00C0
8180
6300
3E00
ENDCHAR
STARTCHAR 042E
ENCODING 1070
SWIDTH 1000 0
DWIDTH 16 0
BBX 13 12 2 0
BITMAP
F3E0
6630
6418
6C18
6C18
7C18
6C18
6C18
6C18
6C18
6630
F3E0
ENDCHAR
STARTCHAR 042F
ENCODING 1071
SWIDTH 1000 0
DWIDTH 16 0
BBX 12 12 2 0
BITMAP
0FF0
1860
3060
3060
3060
19E0
0F60
0C60
1860
3060
6060
F0F0
ENDCHAR
STARTCHAR 0430
ENCODING 1072
SWIDTH 1000 0
DWIDTH 16 0
BBX 9 10 4 1
BITMAP
3800
6C00
C600
8200
3A00
6E00
C200
C680
6D80
3900
ENDCHAR
STARTCHAR 0431
ENCODING 1073
SWIDTH 1000 0
DWIDTH 16 0
BBX 7 13 5 0
BITMAP
06
1C
70
80
B8
EC
C6
C6
C6
C6
C6
6C
38
ENDCHAR
STARTCHAR 0432
ENCODING 1074
SWIDTH 1000 0
DWIDTH 16 0
BBX 8 10 4 1
BITMAP
FE
63
63
66
7C
66
63
63
63
FE
ENDCHAR
STARTCHAR 0433
ENCODING 1075
SWIDTH 1000 0
DWIDTH 16 0
BBX 8 10 4 1
BITMAP
FF
63
61
60
60
60
60
60
60
F0
ENDCHAR
STARTCHAR 0434
ENCODING 1076
SWIDTH 1000 0
DWIDTH 16 0
BBX 10 9 3 2
BITMAP
7FC0
1300
1300
1300
2300
2300
4300
FFC0
8040
ENDCHAR
STARTCHAR 0435
ENCODING 1077
SWIDTH 1000 0
DWIDTH 16 0
BBX 9 8 4 2
BITMAP
1E00
3300
6180
FF80
C000
6080
3300
1E00
ENDCHAR
STARTCHAR 0436
ENCODING 1078
SWIDTH 1000 0
DWIDTH 16 0
BBX 10 8 3 2
BITMAP
5E80
CCC0
2D00
2D00
1E00
2D00
4C80
DEC0
ENDCHAR
STARTCHAR 0437
ENCODING 1079
SWIDTH 1000 0
DWIDTH 16 0
BBX 8 10 4 1
BITMAP
5C
76
43
06
0C
06
43
C3
66
3C
ENDCHAR
STARTCHAR 0438
ENCODING 1080
SWIDTH 1000 0
DWIDTH 16 0
BBX 9 9 4 2
BITMAP
F780
6300
6300
6700
6B00
7300
6300
6300
F780
ENDCHAR
STARTCHAR 0439
ENCODING 1081
SWIDTH 1000 0
DWIDTH 16 0
BBX 9 10 4 1
BITMAP
2200
0000
F780
6700
6B00
7300
6300
6300
6300
F780
ENDCHAR
STARTCHAR 043A
ENCODING 1082
SWIDTH 1000 0
DWIDTH 16 0
BBX 9 9 4 2
BITMAP
F100
6380
6400
7800
6C00
6600
6200
6300
F180
ENDCHAR
STARTCHAR 043B
ENCODING 1083
SWIDTH 1000 0
DWIDTH 16 0
BBX 10 9 3 2
BITMAP
7FC0
0980
0980
0980
1180
1180
1180
E180
63C0
ENDCHAR
STARTCHAR 043C
ENCODING 1084
SWIDTH 1000 0
DWIDTH 16 0
BBX 11 8 3 2
BITMAP
C0E0
61C0
51C0
5AC0
4EC0
4CC0
48C0
E1E0
ENDCHAR
STARTCHAR 043D
ENCODING 1085
SWIDTH 1000 0
DWIDTH 16 0
BBX 9 9 4 2
BITMAP
F780
6300
6300
6300
7F00
6300
6300
6300
F780
ENDCHAR
STARTCHAR 043E
ENCODING 1086
SWIDTH 1000 0
DWIDTH 16 0
BBX 7 9 5 2
BITMAP
38
6C
C6
C6
C6
C6
C6
6C
38
ENDCHAR
STARTCHAR 043F
ENCODING 1087
SWIDTH 1000 0
DWIDTH 16 0
BBX 9 9 4 2
BITMAP
FF80
6300
6300
6300
6300
6300
6300
6300
F780
ENDCHAR
STARTCHAR 0440
ENCODING 1088
SWIDTH 1000 0
DWIDTH 16 0
BBX 9 10 4 1
BITMAP
6E00
FB00
6180
6180
7300
6C00
6000
6000
6000
F000
ENDCHAR
STARTCHAR 0441
ENCODING 1089
SWIDTH 1000 0
DWIDTH 16 0
BBX 7 9 5 2
BITMAP
3C
66
C4
C0
C0
C0
C2
6C
38
ENDCHAR
STARTCHAR 0442
ENCODING 1090
SWIDTH 1000 0
DWIDTH 16 0
BBX 8 9 4 2
BITMAP
FF
99
18
18
18
18
18
18
3C
ENDCHAR
STARTCHAR 0443
ENCODING 1091
SWIDTH 1000 0
DWIDTH 16 0
BBX 9 10 4 1
BITMAP
F380
6100
6100
3200
1600
1C00
0800
1000
E000
4000
ENDCHAR
STARTCHAR 0444
ENCODING 1092
SWIDTH 1000 0
DWIDTH 16 0
BBX 10 13 3 0
BITMAP
0400
1C00
0C00
0C00
2D00
7F80
CCC0
CCC0
7F80
2D00
0C00
0C00
1E00
ENDCHAR
STARTCHAR 0445
ENCODING 1093
SWIDTH 1000 0
DWIDTH 16 0
BBX 9 10 4 1
BITMAP
F380
6100
6100
3200
1C00
0C00
1600
2300
4300
E780
ENDCHAR
STARTCHAR 0446
ENCODING 1094
SWIDTH 1000 0
DWIDTH 16 0
BBX 9 10 4 1
BITMAP
F780
6300
6300
6300
6300
6300
6300
6300
FF80
0080
ENDCHAR
STARTCHAR 0447
ENCODING 1095
SWIDTH 1000 0
DWIDTH 16 0
BBX 9 10 4 1
BITMAP
F780
6300
6300
6300
3700
1F00
0300
0300
0300
0780
ENDCHAR
STARTCHAR 0448
ENCODING 1096
SWIDTH 1000 0
DWIDTH 16 0
BBX 11 9 3 2
BITMAP
EEE0
4440
4440
4440
4440
4440
4440
4440
FFE0
ENDCHAR
STARTCHAR 0449
ENCODING 1097
SWIDTH 1000 0
DWIDTH 16 0
BBX 11 10 3 1
BITMAP
EEE0
4440
4440
4440
4440
4440
4440
4440
FFE0
0020
ENDCHAR
STARTCHAR 044A
ENCODING 1098
SWIDTH 1000 0
DWIDTH 16 0
BBX 10 10 3 1
BITMAP
F800
B000
3000
3000
3F00
3980
30C0
30C0
3980
7F00
ENDCHAR
STARTCHAR 044B
ENCODING 1099
SWIDTH 1000 0
DWIDTH 16 0
BBX 11 10 3 1
BITMAP
F1E0
60C0
60C0
60C0
6CC0
76C0
63C0
63C0
76C0
FDE0
ENDCHAR
STARTCHAR 044C
ENCODING 1100
SWIDTH 1000 0
DWIDTH 16 0
BBX 9 10 4 1
BITMAP
F000
6000
6000
6000
7E00
7300
6180
6180
7300
FE00
ENDCHAR
STARTCHAR 044D
ENCODING 1101
SWIDTH 1000 0
DWIDTH 16 0
BBX 9 10 4 1
BITMAP
3C00
4600
0300
0180
0F80
0180
4180
C300
6600
3C00
ENDCHAR
STARTCHAR 044E
ENCODING 1102
SWIDTH 1000 0
DWIDTH 16 0
BBX 11 10 3 1
BITMAP
F380
66C0
6C60
6C60
7C60
6C60
6C60
6C60
66C0
F380
ENDCHAR
STARTCHAR 044F
ENCODING 1103
SWIDTH 1000 0
DWIDTH 16 0
BBX 10 10 3 1
BITMAP
1FC0
3B80
3180
3180
1B80
0F80
1980
5180
F180
63C0
ENDCHAR
STARTCHAR 0451
ENCODING 1105
SWIDTH 1000 0
DWIDTH 16 0
BBX 8 10 5 1
BITMAP
24
00
3C
66
C3
FF
80
C1
66
3C
ENDCHAR
STARTCHAR 2015
ENCODING 8213
SWIDTH 1000 0
DWIDTH 16 0
BBX 15 1 1 6
BITMAP
FFFE
ENDCHAR
STARTCHAR 2016
ENCODING 8214
SWIDTH 1000 0
DWIDTH 16 0
BBX 4 14 6 -1
BITMAP
90
90
90
90
90
90
90
90
90
90
90
90
90
90
ENDCHAR
STARTCHAR 2018
ENCODING 8216
SWIDTH 1000 0
DWIDTH 16 0
BBX 5 6 8 6
BITMAP
08
30
60
F0
F0
60
ENDCHAR
STARTCHAR 2019
ENCODING 8217
SWIDTH 1000 0
DWIDTH 16 0
BBX 4 7 3 6
BITMAP
60
F0
F0
60
20
40
80
ENDCHAR
STARTCHAR 201C
ENCODING 8220
SWIDTH 1000 0
DWIDTH 16 0
BBX 10 6 6 6
BITMAP
0840
3180
6300
F780
F780
6300
ENDCHAR
STARTCHAR 201D
ENCODING 8221
SWIDTH 1000 0
DWIDTH 16 0
BBX 9 7 2 6
BITMAP
6300
F780
F780
6300
2100
4200
8400
ENDCHAR
STARTCHAR 2026
ENCODING 8230
SWIDTH 1000 0
DWIDTH 16 0
BBX 14 4 2 4
BITMAP
6318
F7BC
F7BC
6318
ENDCHAR
STARTCHAR 2030
ENCODING 8240
SWIDTH 1000 0
DWIDTH 16 0
BBX 14 13 2 0
BITMAP
0008
3010
4820
4840
4880
3100
0200
0400
0B18
14A4
24A4
44A4
8318
ENDCHAR
STARTCHAR 2032
ENCODING 8242
SWIDTH 1000 0
DWIDTH 16 0
BBX 4 9 7 4
BITMAP
10
10
30
20
60
40
C0
80
80
ENDCHAR
STARTCHAR 2033
ENCODING 8243
SWIDTH 1000 0
DWIDTH 16 0
BBX 7 9 5 4
BITMAP
12
12
36
24
6C
48
D8
90
90
ENDCHAR
STARTCHAR 203B
ENCODING 8251
SWIDTH 1000 0
DWIDTH 16 0
BBX 10 10 3 1
BITMAP
8C40
4C80
2100
1200
CCC0
CCC0
1200
2100
4C80
8C40
ENDCHAR
STARTCHAR 2103
ENCODING 8451
SWIDTH 1000 0
DWIDTH 16 0
BBX 12 14 1 0
BITMAP
6000
9000
9020
67F0
0C60
1820
1800
1800
1800
1800
1800
0C10
0620
03C0
ENDCHAR
STARTCHAR 2116
ENCODING 8470
SWIDTH 1000 0
DWIDTH 16 0
BBX 14 14 1 -1
BITMAP
7060
30E0
3880
2880
2C80
2C80
2C80
2698
26A4
22A4
23A4
2198
C180
C0BC
ENDCHAR
STARTCHAR 2160
ENCODING 8544
SWIDTH 1000 0
DWIDTH 16 0
BBX 3 12 7 0
BITMAP
E0
40
40
40
40
40
40
40
40
40
40
E0
ENDCHAR
STARTCHAR 2161
ENCODING 8545
SWIDTH 1000 0
DWIDTH 16 0
BBX 7 12 5 0
BITMAP
EE
44
44
44
44
44
44
44
44
44
44
EE
ENDCHAR
STARTCHAR 2162
ENCODING 8546
SWIDTH 1000 0
DWIDTH 16 0
BBX 11 12 3 0
BITMAP
EEE0
4440
4440
4440
4440
4440
4440
4440
4440
4440
4440
EEE0
ENDCHAR
STARTCHAR 2163
ENCODING 8547
SWIDTH 1000 0
DWIDTH 16 0
BBX 11 12 3 0
BITMAP
EEE0
4440
4440
4440
4440
4440
4440
4280
4280
4280
4100
E100
ENDCHAR
STARTCHAR 2164
ENCODING 8548
SWIDTH 1000 0
DWIDTH 16 0
BBX 9 12 4 0
BITMAP
E380
4100
4100
4100
6100
2200
2200
3200
1400
1400
0800
0800
ENDCHAR
STARTCHAR 2165
ENCODING 8549
SWIDTH 1000 0
DWIDTH 16 0
BBX 11 12 3 0
BITMAP
EEE0
4440
4440
4440
4440
4440
2840
2840
2840
2840
1040
10E0
ENDCHAR
STARTCHAR 2166
ENCODING 8550
SWIDTH 1000 0
DWIDTH 16 0
BBX 13 12 2 0
BITMAP
EEF8
4450
4450
4450
4450
4450
2850
2850
2850
2850
1050
10F8
ENDCHAR
STARTCHAR 2167
ENCODING 8551
SWIDTH 1000 0
DWIDTH 16 0
BBX 13 12 2 0
BITMAP
EFF8
4550
4550
4550
4550
4550
2950
2950
2950
2950
1150
13F8
ENDCHAR
STARTCHAR 2168
ENCODING 8552
SWIDTH 1000 0
DWIDTH 16 0
BBX 11 12 3 0
BITMAP
EEE0
4440
4440
4440
4280
4280
4100
4280
4280
4440
4440
EEE0
ENDCHAR
STARTCHAR 2169
ENCODING 8553
SWIDTH 1000 0
DWIDTH 16 0
BBX 9 12 4 0
BITMAP
E380
4100
4100
2200
1400
0800
1400
2200
2200
4100
4100
E380
ENDCHAR
STARTCHAR 216A
ENCODING 8554
SWIDTH 1000 0
DWIDTH 16 0
BBX 11 12 3 0
BITMAP
EEE0
4440
4440
4440
2840
2840
1040
2840
4440
4440
4440
EEE0
ENDCHAR
STARTCHAR 216B
ENCODING 8555
SWIDTH 1000 0
DWIDTH 16 0
BBX 13 12 2 0
BITMAP
FEF8
4450
4450
4450
2850
2850
1050
2850
4450
4450
4450
FEF8
ENDCHAR
STARTCHAR 2190
ENCODING 8592
SWIDTH 1000 0
DWIDTH 16 0
BBX 13 7 2 3
BITMAP
0400
1800
7800
FFF8
7800
1800
0400
ENDCHAR
STARTCHAR 2191
ENCODING 8593
SWIDTH 1000 0
DWIDTH 16 0
BBX 7 14 5 -1
BITMAP
10
38
38
7C
7C
92
10
10
10
10
10
10
10
10
ENDCHAR
STARTCHAR 2192
ENCODING 8594
SWIDTH 1000 0
DWIDTH 16 0
BBX 13 7 2 3
BITMAP
0100
00C0
00F0
FFF8
00F0
00C0
0100
ENDCHAR
STARTCHAR 2193
ENCODING 8595
SWIDTH 1000 0
DWIDTH 16 0
BBX 7 14 5 -1
BITMAP
10
10
10
10
10
10
10
10
92
7C
7C
38
38
10
ENDCHAR
STARTCHAR 2208
ENCODING 8712
SWIDTH 1000 0
DWIDTH 16 0
BBX 6 13 4 -1
BITMAP
0C
30
40
40
80
80
FC
80
80
40
40
30
0C
ENDCHAR
STARTCHAR 220F
ENCODING 8719
SWIDTH 1000 0
DWIDTH 16 0
BBX 12 12 2 0
BITMAP
FFF0
30C0
30C0
30C0
30C0
30C0
30C0
30C0
30C0
30C0
30C0
F9F0
ENDCHAR
STARTCHAR 2211
ENCODING 8721
SWIDTH 1000 0
DWIDTH 16 0
BBX 11 12 3 0
BITMAP
FFE0
C020
6020
3000
1800
1800
1000
2000
2000
4020
FFE0
FFE0
ENDCHAR
STARTCHAR 221A
ENCODING 8730
SWIDTH 1000 0
DWIDTH 16 0
BBX 11 14 2 -1
BITMAP
0020
0020
0040
0040
0080
0080
0100
0100
0200
4200
EC00
B800
3000
1000
ENDCHAR
STARTCHAR 221D
ENCODING 8733
SWIDTH 1000 0
DWIDTH 16 0
BBX 12 7 2 3
BITMAP
3070
4880
8500
8200
8500
4880
3070
ENDCHAR
STARTCHAR 221E
ENCODING 8734
SWIDTH 1000 0
DWIDTH 16 0
BBX 13 7 2 3
BITMAP
3060
4890
8508
8208
8508
4890
3060
ENDCHAR
STARTCHAR 2220
ENCODING 8736
SWIDTH 1000 0
DWIDTH 16 0
BBX 10 10 2 2
BITMAP
0040
0080
0100
0200
0400
0800
1000
2000
4000
FFC0
ENDCHAR
STARTCHAR 2225
ENCODING 8741
SWIDTH 1000 0
DWIDTH 16 0
BBX 6 12 5 0
BITMAP
24
24
24
24
48
48
48
48
90
90
90
90
ENDCHAR
STARTCHAR 2227
ENCODING 8743
SWIDTH 1000 0
DWIDTH 16 0
BBX 13 12 2 1
BITMAP
0200
0500
0880
0880
1040
1040
2020
2020
4010
4010
8008
8008
ENDCHAR
STARTCHAR 2228
ENCODING 8744
SWIDTH 1000 0
DWIDTH 16 0
BBX 13 12 2 -1
BITMAP
8008
8008
4010
4010
2020
2020
1040
1040
0880
0880
0500
0200
ENDCHAR
STARTCHAR 2229
ENCODING 8745
SWIDTH 1000 0
DWIDTH 16 0
BBX 11 14 3 -1
BITMAP
3F80
60C0
C060
8020
8020
8020
8020
8020
8020
8020
8020
8020
8020
8020
ENDCHAR
STARTCHAR 222A
ENCODING 8746
SWIDTH 1000 0
DWIDTH 16 0
BBX 11 14 3 -1
BITMAP
8020
8020
8020
8020
8020
8020
8020
8020
8020
8020
8020
C060
60C0
3F80
ENDCHAR
STARTCHAR 222B
ENCODING 8747
SWIDTH 1000 0
DWIDTH 16 0
BBX 9 12 3 0
BITMAP
0300
0480
0800
0800
0800
0800
0800
0800
0800
0800
9000
6000
ENDCHAR
STARTCHAR 222E
ENCODING 8750
SWIDTH 1000 0
DWIDTH 16 0
BBX 9 13 3 0
BITMAP
0300
0480
0800
0800
1C00
2A00
2A00
2A00
1C00
0800
0800
9000
6000
ENDCHAR
STARTCHAR 2234
ENCODING 8756
SWIDTH 1000 0
DWIDTH 16 0
BBX 12 11 2 1
BITMAP
0600
0F00
0F00
0600
0000
0000
0000
6060
F0F0
F0F0
6060
ENDCHAR
STARTCHAR 2235
ENCODING 8757
SWIDTH 1000 0
DWIDTH 16 0
BBX 12 11 3 1
BITMAP
6060
F0F0
F0F0
6060
0000
0000
0000
0600
0F00
0F00
0600
ENDCHAR
STARTCHAR 2236
ENCODING 8758
SWIDTH 1000 0
DWIDTH 16 0
BBX 4 11 6 1
BITMAP
60
F0
F0
60
00
00
00
60
F0
F0
60
ENDCHAR
STARTCHAR 2237
ENCODING 8759
SWIDTH 1000 0
DWIDTH 16 0
BBX 12 12 2 0
BITMAP
6060
F0F0
F0F0
6060
0000
0000
0000
0000
6060
F0F0
F0F0
6060
ENDCHAR
STARTCHAR 223D
ENCODING 8765
SWIDTH 1000 0
DWIDTH 16 0
BBX 13 7 2 3
BITMAP
3060
4090
8108
8208
8408
4810
3060
ENDCHAR
STARTCHAR 2248
ENCODING 8776
SWIDTH 1000 0
DWIDTH 16 0
BBX 12 7 2 3
BITMAP
3800
4410
8220
39C0
4410
8220
01C0
ENDCHAR
STARTCHAR 224C
ENCODING 8780
SWIDTH 1000 0
DWIDTH 16 0
BBX 12 10 3 2
BITMAP
20C0
4120
8210
8410
4820
3040
0000
FFF0
0000
FFF0
ENDCHAR
STARTCHAR 2260
ENCODING 8800
SWIDTH 1000 0
DWIDTH 16 0
BBX 11 14 3 -1
BITMAP
0100
0100
0100
0200
FFE0
0200
0400
0400
0800
FFE0
0800
1000
1000
1000
ENDCHAR
STARTCHAR 2261
ENCODING 8801
SWIDTH 1000 0
DWIDTH 16 0
BBX 11 5 3 4
BITMAP
FFE0
0000
FFE0
0000
FFE0
ENDCHAR
STARTCHAR 2264
ENCODING 8804
SWIDTH 1000 0
DWIDTH 16 0
BBX 13 16 2 -2
BITMAP
0018
0060
0180
0600
1800
6000
C000
6000
1800
8600
6180
1860
0618
0180
0060
0018
ENDCHAR
STARTCHAR 2265
ENCODING 8805
SWIDTH 1000 0
DWIDTH 16 0
BBX 13 16 2 -2
BITMAP
C000
3000
0C00
0300
00C0
0030
0018
0030
00C0
0308
0C30
30C0
C300
0C00
3000
C000
ENDCHAR
STARTCHAR 226E
ENCODING 8814
SWIDTH 1000 0
DWIDTH 16 0
BBX 13 13 1 -1
BITMAP
0418
0460
0580
0600
1C00
6400
C400
6400
1C00
0600
0580
0460
0418
ENDCHAR
STARTCHAR 226F
ENCODING 8815
SWIDTH 1000 0
DWIDTH 16 0
BBX 13 13 3 0
BITMAP
C100
3100
0D00
0300
01C0
0130
0118
0130
01C0
0300
0D00
3100
C100
ENDCHAR
STARTCHAR 2299
ENCODING 8857
SWIDTH 1000 0
DWIDTH 16 0
BBX 15 15 1 -1
BITMAP
07C0
1830
2008
4004
4004
8102
8382
87C2
8382
8102
4004
4004
2008
1830
07C0
ENDCHAR
STARTCHAR 22A5
ENCODING 8869
SWIDTH 1000 0
DWIDTH 16 0
BBX 11 13 3 0
BITMAP
0400
0400
0400
0400
0400
0400
0400
0400
0400
0400
0400
0400
FFE0
ENDCHAR
STARTCHAR 2312
ENCODING 8978
SWIDTH 1000 0
DWIDTH 16 0
BBX 13 8 2 4
BITMAP
0700
18C0
3060
2020
4010
4010
8008
8008
ENDCHAR
STARTCHAR 2460
ENCODING 9312
SWIDTH 1000 0
DWIDTH 16 0
BBX 15 15 1 -1
BITMAP
07C0
1830
2088
4384
4184
8182
8182
8182
8182
8182
4184
43C4
2008
1830
07C0
ENDCHAR
STARTCHAR 2461
ENCODING 9313
SWIDTH 1000 0
DWIDTH 16 0
BBX 15 15 1 -1
BITMAP
07C0
1830
2388
46C4
4C64
8862
8062
80C2
8182
8302
4624
4FE4
2008
1830
07C0
ENDCHAR
STARTCHAR 2462
ENCODING 9314
SWIDTH 1000 0
DWIDTH 16 0
BBX 15 15 1 -1
BITMAP
07C0
1830
2388
46C4
4C64
8462
80C2
8182
80C2
8462
4C64
46C4
2388
1830
07C0
ENDCHAR
STARTCHAR 2463
ENCODING 9315
SWIDTH 1000 0
DWIDTH 16 0
BBX 15 15 1 -1
BITMAP
07C0
1830
2088
4184
4384
8582
8582
8982
8982
9FE2
4184
4184
23C8
1830
07C0
ENDCHAR
STARTCHAR 2464
ENCODING 9316
SWIDTH 1000 0
DWIDTH 16 0
BBX 15 15 1 -1
BITMAP
07C0
1830
2008
4FE4
4FC4
8802
8B82
8EC2
8862
8062
4C64
46C4
2388
1830
07C0
ENDCHAR
STARTCHAR 2465
ENCODING 9317
SWIDTH 1000 0
DWIDTH 16 0
BBX 15 15 1 -1
BITMAP
07C0
1830
23C8
4664
4C24
8C02
8D82
8EC2
8E62
8C62
4C64
46C4
2388
1830
07C0
ENDCHAR
STARTCHAR 2466
ENCODING 9318
SWIDTH 1000 0
DWIDTH 16 0
BBX 15 15 1 -1
BITMAP
07C0
1830
2008
4FE4
4FE4
8862
8042
80C2
80C2
8182
4304
4604
2608
1830
07C0
ENDCHAR
STARTCHAR 2467
ENCODING 9319
SWIDTH 1000 0
DWIDTH 16 0
BBX 15 15 1 -1
BITMAP
07C0
1830
2388
46C4
4C64
8C62
86C2
8382
86C2
8C62
4C64
46C4
2388
1830
07C0
ENDCHAR
STARTCHAR 2468
ENCODING 9320
SWIDTH 1000 0
DWIDTH 16 0
BBX 15 15 1 -1
BITMAP
07C0
1830
2008
4384
46C4
8C62
8C62
8C62
86E2
8162
4C64
46C4
2388
1830
07C0
ENDCHAR
STARTCHAR 2469
ENCODING 9321
SWIDTH 1000 0
DWIDTH 16 0
BBX 15 15 1 -1
BITMAP
07C0
1830
24E8
5DB4
4DB4
8DB2
8DB2
8DB2
8DB2
8DB2
4DB4
5EE4
2008
1830
07C0
ENDCHAR
STARTCHAR 2474
ENCODING 9332
SWIDTH 1000 0
DWIDTH 16 0
BBX 13 14 2 -1
BITMAP
2020
4210
4E10
8608
8608
8608
8608
8608
8608
8608
8608
4F10
4010
2020
ENDCHAR
STARTCHAR 2475
ENCODING 9333
SWIDTH 1000 0
DWIDTH 16 0
BBX 13 14 2 -1
BITMAP
2020
4710
4D90
98C8
90C8
80C8
8188
8308
8608
8C48
9FC8
4010
4010
2020
ENDCHAR
STARTCHAR 2476
ENCODING 9334
SWIDTH 1000 0
DWIDTH 16 0
BBX 13 14 2 -1
BITMAP
2020
4710
4D90
98C8
88C8
8188
8308
8188
88C8
98C8
8D88
4710
4010
2020
ENDCHAR
STARTCHAR 2477
ENCODING 9335
SWIDTH 1000 0
DWIDTH 16 0
BBX 13 14 2 -1
BITMAP
2120
4310
4710
8B08
8B08
9308
9308
A308
BFC8
8308
8308
4790
4010
2020
ENDCHAR
STARTCHAR 2478
ENCODING 9336
SWIDTH 1000 0
DWIDTH 16 0
BBX 13 14 2 -1
BITMAP
2020
4010
5FD0
9F88
9008
9708
9D88
90C8
80C8
98C8
8D88
4710
4010
2020
ENDCHAR
STARTCHAR 2479
ENCODING 9337
SWIDTH 1000 0
DWIDTH 16 0
BBX 13 14 2 -1
BITMAP
2020
4790
4CD0
9848
9808
9B08
9D88
9CC8
98C8
98C8
8D88
4710
4010
2020
ENDCHAR
STARTCHAR 247A
ENCODING 9338
SWIDTH 1000 0
DWIDTH 16 0
BBX 13 14 2 -1
BITMAP
2020
4010
5FD0
9FC8
90C8
8088
8188
8188
8308
8608
8C08
4C10
4810
2020
ENDCHAR
STARTCHAR 247B
ENCODING 9339
SWIDTH 1000 0
DWIDTH 16 0
BBX 13 14 2 -1
BITMAP
2020
4710
4D90
98C8
98C8
8D88
8708
8D88
98C8
98C8
8D88
4710
4010
2020
ENDCHAR
STARTCHAR 247C
ENCODING 9340
SWIDTH 1000 0
DWIDTH 16 0
BBX 13 14 2 -1
BITMAP
2020
4010
4710
8D88
98C8
98C8
98C8
8DC8
82C8
98C8
8D88
4710
4010
2020
ENDCHAR
STARTCHAR 247D
ENCODING 9341
SWIDTH 1000 0
DWIDTH 16 0
BBX 13 14 2 -1
BITMAP
2020
49D0
7B70
9B68
9B68
9B68
9B68
9B68
9B68
9B68
9B68
7DD0
4010
2020
ENDCHAR
STARTCHAR 247E
ENCODING 9342
SWIDTH 1000 0
DWIDTH 16 0
BBX 13 14 2 -1
BITMAP
2020
4850
79D0
98C8
98C8
98C8
98C8
98C8
98C8
98C8
98C8
7DF0
4010
2020
ENDCHAR
STARTCHAR 247F
ENCODING 9343
SWIDTH 1000 0
DWIDTH 16 0
BBX 13 14 2 -1
BITMAP
2020
49D0
7B70
9E68
9A68
9868
98C8
98C8
9988
9988
9B28
7FF0
4010
2020
ENDCHAR
STARTCHAR 2480
ENCODING 9344
SWIDTH 1000 0
DWIDTH 16 0
BBX 13 14 2 -1
BITMAP
2020
49D0
7B70
9E68
9A68
98E8
98C8
9868
9A68
9E68
9B68
7DD0
4010
2020
ENDCHAR
STARTCHAR 2481
ENCODING 9345
SWIDTH 1000 0
DWIDTH 16 0
BBX 13 14 2 -1
BITMAP
2020
4850
78D0
99C8
9BC8
9AC8
9EC8
9EC8
9FE8
98C8
98C8
7DF0
4010
2020
ENDCHAR
STARTCHAR 2482
ENCODING 9346
SWIDTH 1000 0
DWIDTH 16 0
BBX 13 14 2 -1
BITMAP
2020
4810
7BF0
9B08
9B88
9AE8
9878
9938
9B38
9B38
9BE8
7DF0
4010
2020
ENDCHAR
STARTCHAR 2483
ENCODING 9347
SWIDTH 1000 0
DWIDTH 16 0
BBX 13 14 2 -1
BITMAP
2020
49D0
7BF0
9B28
9B08
9BC8
9BE8
9B68
9B68
9B68
9BE8
7DD0
4010
2020
ENDCHAR
STARTCHAR 2484
ENCODING 9348
SWIDTH 1000 0
DWIDTH 16 0
BBX 13 14 2 -1
BITMAP
2020
4810
7BF0
9868
9868
9868
98C8
98C8
98C8
9988
9988
7D90
4010
2020
ENDCHAR
STARTCHAR 2485
ENCODING 9349
SWIDTH 1000 0
DWIDTH 16 0
BBX 13 14 2 -1
BITMAP
2020
49D0
7B70
9F68
9B68
9BE8
99C8
9B68
9B68
9F68
9B68
7DD0
4010
2020
ENDCHAR
STARTCHAR 2486
ENCODING 9350
SWIDTH 1000 0
DWIDTH 16 0
BBX 13 14 2 -1
BITMAP
2020
49D0
7B70
9F68
9B68
9B68
99E8
9868
9968
9F68
9B68
7DD0
4010
2020
ENDCHAR
STARTCHAR 2487
ENCODING 9351
SWIDTH 1000 0
DWIDTH 16 0
BBX 13 14 2 -1
BITMAP
2020
79D0
6F70
8F68
8F68
8F68
9B68
9B68
B368
B368
E768
7DD0
4010
2020
ENDCHAR
STARTCHAR 2488
ENCODING 9352
SWIDTH 1000 0
DWIDTH 16 0
BBX 7 14 5 -1
BITMAP
20
E0
60
60
60
60
60
60
60
60
60
60
66
F6
ENDCHAR
STARTCHAR 2489
ENCODING 9353
SWIDTH 1000 0
DWIDTH 16 0
BBX 10 14 3 -1
BITMAP
3800
6C00
C600
4600
0600
0400
0C00
1800
1000
3000
2000
6200
46C0
FEC0
ENDCHAR
STARTCHAR 248A
ENCODING 9354
SWIDTH 1000 0
DWIDTH 16 0
BBX 10 15 3 -2
BITMAP
3800
6C00
C600
4600
0600
0400
0C00
3800
0C00
0400
4600
C600
46C0
6CC0
3800
ENDCHAR
STARTCHAR 248B
ENCODING 9355
SWIDTH 1000 0
DWIDTH 16 0
BBX 10 14 2 -1
BITMAP
0400
0C00
1C00
2C00
2C00
4C00
4C00
4C00
FF80
0C00
0C00
0C00
0CC0
1EC0
ENDCHAR
STARTCHAR 248C
ENCODING 9356
SWIDTH 1000 0
DWIDTH 16 0
BBX 10 14 4 -1
BITMAP
FE00
8600
8200
8000
8000
B800
CC00
8400
0600
0600
8600
8600
4CC0
38C0
ENDCHAR
STARTCHAR 248D
ENCODING 9357
SWIDTH 1000 0
DWIDTH 16 0
BBX 11 14 3 -1
BITMAP
3E00
4700
C200
C000
C000
DC00
E600
C200
C300
C300
C300
C300
6660
3C60
ENDCHAR
STARTCHAR 248E
ENCODING 9358
SWIDTH 1000 0
DWIDTH 16 0
BBX 9 14 3 -1
BITMAP
FF00
8600
0600
0600
0600
0600
0C00
1C00
1800
1800
3000
3000
3180
1180
ENDCHAR
STARTCHAR 248F
ENCODING 9359
SWIDTH 1000 0
DWIDTH 16 0
BBX 10 14 3 -1
BITMAP
3800
6C00
C600
C600
C600
4400
2C00
3800
6C00
C600
C600
C600
6CC0
38C0
ENDCHAR
STARTCHAR 2490
ENCODING 9360
SWIDTH 1000 0
DWIDTH 16 0
BBX 10 14 3 -1
BITMAP
3800
6C00
C600
C600
C600
C600
6E00
3600
0600
0600
8600
C600
6CC0
38C0
ENDCHAR
STARTCHAR 2491
ENCODING 9361
SWIDTH 1000 0
DWIDTH 16 0
BBX 13 14 2 -1
BITMAP
2380
E6C0
6C60
6C60
6C60
6C60
6C60
6C60
6C60
6C60
6C60
6C60
66D8
F398
ENDCHAR
STARTCHAR 2492
ENCODING 9362
SWIDTH 1000 0
DWIDTH 16 0
BBX 12 14 3 -1
BITMAP
2100
E700
6300
6300
6300
6300
6300
6300
6300
6300
6300
6300
6330
F7B0
ENDCHAR
STARTCHAR 2493
ENCODING 9363
SWIDTH 1000 0
DWIDTH 16 0
BBX 14 14 2 -1
BITMAP
2380
E6C0
6C60
6C60
6460
6040
60C0
6080
6180
6100
6300
6220
666C
F7EC
ENDCHAR
STARTCHAR 2494
ENCODING 9364
SWIDTH 1000 0
DWIDTH 16 0
BBX 14 14 2 -1
BITMAP
2380
E6C0
6C60
6C60
6460
6040
60C0
6380
61C0
6460
6C60
6C60
66CC
F38C
ENDCHAR
STARTCHAR 2495
ENCODING 9365
SWIDTH 1000 0
DWIDTH 16 0
BBX 14 14 2 -1
BITMAP
2080
E180
6380
6380
6580
6580
6580
6980
6980
6980
7FE0
6180
618C
F3CC
ENDCHAR
STARTCHAR 2496
ENCODING 9366
SWIDTH 1000 0
DWIDTH 16 0
BBX 14 14 2 -1
BITMAP
2FE0
E820
6800
6800
6800
6B80
6CC0
6860
6060
6060
6860
6C60
66CC
F38C
ENDCHAR
STARTCHAR 2497
ENCODING 9367
SWIDTH 1000 0
DWIDTH 16 0
BBX 14 14 2 -1
BITMAP
23C0
E6E0
6C40
6800
6800
6B80
6EC0
6C60
6C60
6C60
6C60
6C60
66CC
F38C
ENDCHAR
STARTCHAR 2498
ENCODING 9368
SWIDTH 1000 0
DWIDTH 16 0
BBX 11 14 2 -1
BITMAP
2FE0
E860
6040
60C0
6080
6180
6100
6300
6300
6200
6600
6600
6660
F460
ENDCHAR
STARTCHAR 2499
ENCODING 9369
SWIDTH 1000 0
DWIDTH 16 0
BBX 14 14 2 -1
BITMAP
2380
E6C0
6C60
6C60
6C60
6440
62C0
6380
66C0
6C60
6C60
6C60
66CC
F38C
ENDCHAR
STARTCHAR 249A
ENCODING 9370
SWIDTH 1000 0
DWIDTH 16 0
BBX 14 14 2 -1
BITMAP
2380
E6C0
6C60
6C60
6C60
6C60
66E0
6360
6060
6460
6C60
6C60
66CC
F38C
ENDCHAR
STARTCHAR 249B
ENCODING 9371
SWIDTH 1000 0
DWIDTH 16 0
BBX 15 14 1 -1
BITMAP
38E0
6DB0
4DB0
CDB0
4DB0
0DB0
0DB0
09B0
19B0
19B0
31B0
31B0
65B6
7CE6
ENDCHAR
STARTCHAR 2500
ENCODING 9472
SWIDTH 1000 0
DWIDTH 16 0
BBX 16 1 0 6
BITMAP
FFFF
ENDCHAR
STARTCHAR 2501
ENCODING 9473
SWIDTH 1000 0
DWIDTH 16 0
BBX 16 2 0 5
BITMAP
FFFF
FFFF
ENDCHAR
STARTCHAR 2502
ENCODING 9474
SWIDTH 1000 0
DWIDTH 16 0
BBX 1 16 7 -2
BITMAP
80
80
80
80
80
80
80
80
80
80
80
80
80
80
80
80
ENDCHAR
STARTCHAR 2503
ENCODING 9475
SWIDTH 1000 0
DWIDTH 16 0
BBX 2 16 7 -2
BITMAP
C0
C0
C0
C0
C0
C0
C0
C0
C0
C0
C0
C0
C0
C0
C0
C0
ENDCHAR
STARTCHAR 2504
ENCODING 9476
SWIDTH 1000 0
DWIDTH 16 0
BBX 13 1 1 6
BITMAP
E738
ENDCHAR
STARTCHAR 2505
ENCODING 9477
SWIDTH 1000 0
DWIDTH 16 0
BBX 13 2 1 5
BITMAP
E738
E738
ENDCHAR
STARTCHAR 2506
ENCODING 9478
SWIDTH 1000 0
DWIDTH 16 0
BBX 1 13 7 0
BITMAP
80
80
80
00
00
80
80
80
00
00
80
80
80
ENDCHAR
STARTCHAR 2507
ENCODING 9479
SWIDTH 1000 0
DWIDTH 16 0
BBX 2 13 7 0
BITMAP
C0
C0
C0
00
00
C0
C0
C0
00
00
C0
C0
C0
ENDCHAR
STARTCHAR 2508
ENCODING 9480
SWIDTH 1000 0
DWIDTH 16 0
BBX 15 1 0 6
BITMAP
EEEE
ENDCHAR
STARTCHAR 2509
ENCODING 9481
SWIDTH 1000 0
DWIDTH 16 0
BBX 15 2 0 5
BITMAP
EEEE
EEEE
ENDCHAR
STARTCHAR 250A
ENCODING 9482
SWIDTH 1000 0
DWIDTH 16 0
BBX 1 15 7 -1
BITMAP
80
80
80
00
80
80
80
00
80
80
80
00
80
80
80
ENDCHAR
STARTCHAR 250B
ENCODING 9483
SWIDTH 1000 0
DWIDTH 16 0
BBX 2 15 7 -1
BITMAP
C0
C0
C0
00
C0
C0
C0
00
C0
C0
C0
00
C0
C0
C0
ENDCHAR
STARTCHAR 250C
ENCODING 9484
SWIDTH 1000 0
DWIDTH 16 0
BBX 9 9 7 -2
BITMAP
FF80
8000
8000
8000
8000
8000
8000
8000
8000
ENDCHAR
STARTCHAR 250D
ENCODING 9485
SWIDTH 1000 0
DWIDTH 16 0
BBX 9 9 7 -2
BITMAP
FF80
FF80
8000
8000
8000
8000
8000
8000
8000
ENDCHAR
STARTCHAR 250E
ENCODING 9486
SWIDTH 1000 0
DWIDTH 16 0
BBX 9 9 7 -2
BITMAP
FF80
C000
C000
C000
C000
C000
C000
C000
C000
ENDCHAR
STARTCHAR 250F
ENCODING 9487
SWIDTH 1000 0
DWIDTH 16 0
BBX 9 9 7 -2
BITMAP
FF80
FF80
C000
C000
C000
C000
C000
C000
C000
ENDCHAR
STARTCHAR 2510
ENCODING 9488
SWIDTH 1000 0
DWIDTH 16 0
BBX 8 9 0 -2
BITMAP
FF
01
01
01
01
01
01
01
01
ENDCHAR
STARTCHAR 2511
ENCODING 9489
SWIDTH 1000 0
DWIDTH 16 0
BBX 8 9 0 -2
BITMAP
FF
FF
01
01
01
01
01
01
01
ENDCHAR
STARTCHAR 2512
ENCODING 9490
SWIDTH 1000 0
DWIDTH 16 0
BBX 9 9 0 -2
BITMAP
FF80
0180
0180
0180
0180
0180
0180
0180
0180
ENDCHAR
STARTCHAR 2513
ENCODING 9491
SWIDTH 1000 0
DWIDTH 16 0
BBX 9 9 0 -2
BITMAP
FF80
FF80
0180
0180
0180
0180
0180
0180
0180
ENDCHAR
STARTCHAR 2514
ENCODING 9492
SWIDTH 1000 0
DWIDTH 16 0
BBX 9 8 7 6
BITMAP
8000
8000
8000
8000
8000
8000
8000
FF80
ENDCHAR
STARTCHAR 2515
ENCODING 9493
SWIDTH 1000 0
DWIDTH 16 0
BBX 9 9 7 5
BITMAP
8000
8000
8000
8000
8000
8000
8000
FF80
FF80
ENDCHAR
STARTCHAR 2516
ENCODING 9494
SWIDTH 1000 0
DWIDTH 16 0
BBX 10 8 6 6
BITMAP
C000
C000
C000
C000
C000
C000
C000
FFC0
ENDCHAR
STARTCHAR 2517
ENCODING 9495
SWIDTH 1000 0
DWIDTH 16 0
BBX 9 9 7 5
BITMAP
C000
C000
C000
C000
C000
C000
C000
FF80
FF80
ENDCHAR
STARTCHAR 2518
ENCODING 9496
SWIDTH 1000 0
DWIDTH 16 0
BBX 8 8 0 6
BITMAP
01
01
01
01
01
01
01
FF
ENDCHAR
STARTCHAR 2519
ENCODING 9497
SWIDTH 1000 0
DWIDTH 16 0
BBX 8 9 0 5
BITMAP
01
01
01
01
01
01
01
FF
FF
ENDCHAR
STARTCHAR 251A
ENCODING 9498
SWIDTH 1000 0
DWIDTH 16 0
BBX 9 8 0 6
BITMAP
0180
0180
0180
0180
0180
0180
0180
FF80
ENDCHAR
STARTCHAR 251B
ENCODING 9499
SWIDTH 1000 0
DWIDTH 16 0
BBX 9 9 0 5
BITMAP
0180
0180
0180
0180
0180
0180
0180
FF80
FF80
ENDCHAR
STARTCHAR 251C
ENCODING 9500
SWIDTH 1000 0
DWIDTH 16 0
BBX 9 16 7 -2
BITMAP
8000
8000
8000
8000
8000
8000
8000
FF80
8000
8000
8000
8000
8000
8000
8000
8000
ENDCHAR
STARTCHAR 251D
ENCODING 9501
SWIDTH 1000 0
DWIDTH 16 0
BBX 9 16 7 -2
BITMAP
8000
8000
8000
8000
8000
8000
8000
FF80
FF80
8000
8000
8000
8000
8000
8000
8000
ENDCHAR
STARTCHAR 251E
ENCODING 9502
SWIDTH 1000 0
DWIDTH 16 0
BBX 9 16 7 -2
BITMAP
C000
C000
C000
C000
C000
C000
C000
FF80
8000
8000
8000
8000
8000
8000
8000
8000
ENDCHAR
STARTCHAR 251F
ENCODING 9503
SWIDTH 1000 0
DWIDTH 16 0
BBX 9 16 7 -2
BITMAP
8000
8000
8000
8000
8000
8000
8000
FF80
C000
C000
C000
C000
C000
C000
C000
C000
ENDCHAR
STARTCHAR 2520
ENCODING 9504
SWIDTH 1000 0
DWIDTH 16 0
BBX 9 16 7 -2
BITMAP
C000
C000
C000
C000
C000
C000
C000
FF80
C000
C000
C000
C000
C000
C000
C000
C000
ENDCHAR
STARTCHAR 2521
ENCODING 9505
SWIDTH 1000 0
DWIDTH 16 0
BBX 9 16 7 -2
BITMAP
C000
C000
C000
C000
C000
C000
C000
FF80
FF80
8000
8000
8000
8000
8000
8000
8000
ENDCHAR
STARTCHAR 2522
ENCODING 9506
SWIDTH 1000 0
DWIDTH 16 0
BBX 9 16 7 -2
BITMAP
8000
8000
8000
8000
8000
8000
8000
FF80
FF80
C000
C000
C000
C000
C000
C000
C000
ENDCHAR
STARTCHAR 2523
ENCODING 9507
SWIDTH 1000 0
DWIDTH 16 0
BBX 9 16 7 -2
BITMAP
C000
C000
C000
C000
C000
C000
C000
FF80
FF80
C000
C000
C000
C000
C000
C000
C000
ENDCHAR
STARTCHAR 2524
ENCODING 9508
SWIDTH 1000 0
DWIDTH 16 0
BBX 8 16 0 -2
BITMAP
01
01
01
01
01
01
01
FF
01
01
01
01
01
01
01
01
ENDCHAR
STARTCHAR 2525
ENCODING 9509
SWIDTH 1000 0
DWIDTH 16 0
BBX 8 16 0 -2
BITMAP
01
01
01
01
01
01
01
FF
FF
01
01
01
01
01
01
01
ENDCHAR
STARTCHAR 2526
ENCODING 9510
SWIDTH 1000 0
DWIDTH 16 0
BBX 9 16 0 -2
BITMAP
0180
0180
0180
0180
0180
0180
0180
FF80
0100
0100
0100
0100
0100
0100
0100
0100
ENDCHAR
STARTCHAR 2527
ENCODING 9511
SWIDTH 1000 0
DWIDTH 16 0
BBX 9 16 0 -2
BITMAP
0100
0100
0100
0100
0100
0100
0100
FF80
0180
0180
0180
0180
0180
0180
0180
0180
ENDCHAR
STARTCHAR 2528
ENCODING 9512
SWIDTH 1000 0
DWIDTH 16 0
BBX 9 16 0 -2
BITMAP
0180
0180
0180
0180
0180
0180
0180
FF80
0180
0180
0180
0180
0180
0180
0180
0180
ENDCHAR
STARTCHAR 2529
ENCODING 9513
SWIDTH 1000 0
DWIDTH 16 0
BBX 9 16 0 -2
BITMAP
0180
0180
0180
0180
0180
0180
0180
FF80
FF80
0100
0100
0100
0100
0100
0100
0100
ENDCHAR
STARTCHAR 252A
ENCODING 9514
SWIDTH 1000 0
DWIDTH 16 0
BBX 9 16 0 -2
BITMAP
0100
0100
0100
0100
0100
0100
0100
FF80
FF80
0180
0180
0180
0180
0180
0180
0180
ENDCHAR
STARTCHAR 252B
ENCODING 9515
SWIDTH 1000 0
DWIDTH 16 0
BBX 9 16 0 -2
BITMAP
0180
0180
0180
0180
0180
0180
0180
FF80
FF80
0180
0180
0180
0180
0180
0180
0180
ENDCHAR
STARTCHAR 252C
ENCODING 9516
SWIDTH 1000 0
DWIDTH 16 0
BBX 16 9 0 -2
BITMAP
FFFF
0100
0100
0100
0100
0100
0100
0100
0100
ENDCHAR
STARTCHAR 252D
ENCODING 9517
SWIDTH 1000 0
DWIDTH 16 0
BBX 16 9 0 -2
BITMAP
FFFF
FF00
0100
0100
0100
0100
0100
0100
0100
ENDCHAR
STARTCHAR 252E
ENCODING 9518
SWIDTH 1000 0
DWIDTH 16 0
BBX 16 9 0 -2
BITMAP
FFFF
01FF
0100
0100
0100
0100
0100
0100
0100
ENDCHAR
STARTCHAR 252F
ENCODING 9519
SWIDTH 1000 0
DWIDTH 16 0
BBX 16 9 0 -2
BITMAP
FFFF
FFFF
0100
0100
0100
0100
0100
0100
0100
ENDCHAR
STARTCHAR 2530
ENCODING 9520
SWIDTH 1000 0
DWIDTH 16 0
BBX 16 9 0 -2
BITMAP
FFFF
0300
0300
0300
0300
0300
0300
0300
0300
ENDCHAR
STARTCHAR 2531
ENCODING 9521
SWIDTH 1000 0
DWIDTH 16 0
BBX 16 9 0 -2
BITMAP
FFFF
FF00
0300
0300
0300
0300
0300
0300
0300
ENDCHAR
STARTCHAR 2532
ENCODING 9522
SWIDTH 1000 0
DWIDTH 16 0
BBX 16 9 0 -2
BITMAP
FFFF
01FF
0180
0180
0180
0180
0180
0180
0180
ENDCHAR
STARTCHAR 2533
ENCODING 9523
SWIDTH 1000 0
DWIDTH 16 0
BBX 16 9 0 -2
BITMAP
FFFF
FFFF
0180
0180
0180
0180
0180
0180
0180
ENDCHAR
STARTCHAR 2534
ENCODING 9524
SWIDTH 1000 0
DWIDTH 16 0
BBX 16 8 0 6
BITMAP
0100
0100
0100
0100
0100
0100
0100
FFFF
ENDCHAR
STARTCHAR 2535
ENCODING 9525
SWIDTH 1000 0
DWIDTH 16 0
BBX 16 9 0 5
BITMAP
0100
0100
0100
0100
0100
0100
0100
FFFF
FF00
ENDCHAR
STARTCHAR 2536
ENCODING 9526
SWIDTH 1000 0
DWIDTH 16 0
BBX 16 9 0 5
BITMAP
0100
0100
0100
0100
0100
0100
0100
FFFF
01FF
ENDCHAR
STARTCHAR 2537
ENCODING 9527
SWIDTH 1000 0
DWIDTH 16 0
BBX 16 9 0 5
BITMAP
0100
0100
0100
0100
0100
0100
0100
FFFF
FFFF
ENDCHAR
STARTCHAR 2538
ENCODING 9528
SWIDTH 1000 0
DWIDTH 16 0
BBX 16 8 0 6
BITMAP
0180
0180
0180
0180
0180
0180
0180
FFFF
ENDCHAR
STARTCHAR 2539
ENCODING 9529
SWIDTH 1000 0
DWIDTH 16 0
BBX 16 9 0 5
BITMAP
0180
0180
0180
0180
0180
0180
0180
FFFF
FF80
ENDCHAR
STARTCHAR 253A
ENCODING 9530
SWIDTH 1000 0
DWIDTH 16 0
BBX 16 9 0 5
BITMAP
0180
0180
0180
0180
0180
0180
0180
FFFF
01FF
ENDCHAR
STARTCHAR 253B
ENCODING 9531
SWIDTH 1000 0
DWIDTH 16 0
BBX 16 9 0 5
BITMAP
0180
0180
0180
0180
0180
0180
0180
FFFF
FFFF
ENDCHAR
STARTCHAR 253C
ENCODING 9532
SWIDTH 1000 0
DWIDTH 16 0
BBX 16 16 0 -2
BITMAP
0100
0100
0100
0100
0100
0100
0100
FFFF
0100
0100
0100
0100
0100
0100
0100
0100
ENDCHAR
STARTCHAR 253D
ENCODING 9533
SWIDTH 1000 0
DWIDTH 16 0
BBX 16 16 0 -2
BITMAP
0100
0100
0100
0100
0100
0100
0100
FFFF
FF00
0100
0100
0100
0100
0100
0100
0100
ENDCHAR
STARTCHAR 253E
ENCODING 9534
SWIDTH 1000 0
DWIDTH 16 0
BBX 16 16 0 -2
BITMAP
0100
0100
0100
0100
0100
0100
0100
FFFF
01FF
0100
0100
0100
0100
0100
0100
0100
ENDCHAR
STARTCHAR 253F
ENCODING 9535
SWIDTH 1000 0
DWIDTH 16 0
BBX 16 16 0 -2
BITMAP
0100
0100
0100
0100
0100
0100
0100
FFFF
FFFF
0100
0100
0100
0100
0100
0100
0100
ENDCHAR
STARTCHAR 2540
ENCODING 9536
SWIDTH 1000 0
DWIDTH 16 0
BBX 16 16 0 -2
BITMAP
0180
0180
0180
0180
0180
0180
0180
FFFF
0100
0100
0100
0100
0100
0100
0100
0100
ENDCHAR
STARTCHAR 2541
ENCODING 9537
SWIDTH 1000 0
DWIDTH 16 0
BBX 16 16 0 -2
BITMAP
0100
0100
0100
0100
0100
0100
0100
FFFF
0180
0180
0180
0180
0180
0180
0180
0180
ENDCHAR
STARTCHAR 2542
ENCODING 9538
SWIDTH 1000 0
DWIDTH 16 0
BBX 16 16 0 -2
BITMAP
0180
0180
0180
0180
0180
0180
0180
FFFF
0180
0180
0180
0180
0180
0180
0180
0180
ENDCHAR
STARTCHAR 2543
ENCODING 9539
SWIDTH 1000 0
DWIDTH 16 0
BBX 16 16 0 -2
BITMAP
0180
0180
0180
0180
0180
0180
0180
FFFF
FF80
0100
0100
0100
0100
0100
0100
0100
ENDCHAR
STARTCHAR 2544
ENCODING 9540
SWIDTH 1000 0
DWIDTH 16 0
BBX 16 16 0 -2
BITMAP
0180
0180
0180
0180
0180
0180
0180
FFFF
01FF
0100
0100
0100
0100
0100
0100
0100
ENDCHAR
STARTCHAR 2545
ENCODING 9541
SWIDTH 1000 0
DWIDTH 16 0
BBX 16 16 0 -2
BITMAP
0100
0100
0100
0100
0100
0100
0100
FFFF
FF80
0180
0180
0180
0180
0180
0180
0180
ENDCHAR
STARTCHAR 2546
ENCODING 9542
SWIDTH 1000 0
DWIDTH 16 0
BBX 16 16 0 -2
BITMAP
0100
0100
0100
0100
0100
0100
0100
FFFF
01FF
0180
0180
0180
0180
0180
0180
0180
ENDCHAR
STARTCHAR 2547
ENCODING 9543
SWIDTH 1000 0
DWIDTH 16 0
BBX 16 16 0 -2
BITMAP
0180
0180
0180
0180
0180
0180
0180
FFFF
FFFF
0100
0100
0100
0100
0100
0100
0100
ENDCHAR
STARTCHAR 2548
ENCODING 9544
SWIDTH 1000 0
DWIDTH 16 0
BBX 16 16 0 -2
BITMAP
0100
0100
0100
0100
0100
0100
0100
FFFF
FFFF
0180
0180
0180
0180
0180
0180
0180
ENDCHAR
STARTCHAR 2549
ENCODING 9545
SWIDTH 1000 0
DWIDTH 16 0
BBX 13 14 1 -1
BITMAP
0600
0600
0600
0600
0600
0600
FFF8
FE00
0600
0600
0600
0600
0600
0600
ENDCHAR
STARTCHAR 254A
ENCODING 9546
SWIDTH 1000 0
DWIDTH 16 0
BBX 16 16 0 -2
BITMAP
0180
0180
0180
0180
0180
0180
0180
FFFF
01FF
0180
0180
0180
0180
0180
0180
0180
ENDCHAR
STARTCHAR 254B
ENCODING 9547
SWIDTH 1000 0
DWIDTH 16 0
BBX 16 16 0 -2
BITMAP
0180
0180
0180
0180
0180
0180
0180
FFFF
FFFF
0180
0180
0180
0180
0180
0180
0180
ENDCHAR
STARTCHAR 25A0
ENCODING 9632
SWIDTH 1000 0
DWIDTH 16 0
BBX 12 12 3 0
BITMAP
FFF0
FFF0
FFF0
FFF0
FFF0
FFF0
FFF0
FFF0
FFF0
FFF0
FFF0
FFF0
ENDCHAR
STARTCHAR 25A1
ENCODING 9633
SWIDTH 1000 0
DWIDTH 16 0
BBX 12 12 3 0
BITMAP
FFF0
8010
8010
8010
8010
8010
8010
8010
8010
8010
8010
FFF0
ENDCHAR
STARTCHAR 25B2
ENCODING 9650
SWIDTH 1000 0
DWIDTH 16 0
BBX 15 13 1 0
BITMAP
0100
0380
0380
07C0
07C0
0FE0
0FE0
1FF0
1FF0
3FF8
3FF8
7FFC
FFFE
ENDCHAR
STARTCHAR 25B3
ENCODING 9651
SWIDTH 1000 0
DWIDTH 16 0
BBX 15 13 1 0
BITMAP
0100
0380
0280
0440
0440
0820
0820
1010
1010
2008
2008
4004
FFFE
ENDCHAR
STARTCHAR 25C6
ENCODING 9670
SWIDTH 1000 0
DWIDTH 16 0
BBX 15 15 1 -1
BITMAP
0100
0380
07C0
0FE0
1FF0
3FF8
7FFC
FFFE
7FFC
3FF8
1FF0
0FE0
07C0
0380
0100
ENDCHAR
STARTCHAR 25C7
ENCODING 9671
SWIDTH 1000 0
DWIDTH 16 0
BBX 15 15 1 -1
BITMAP
0100
0280
0440
0820
1010
2008
4004
8002
4004
2008
1010
0820
0440
0280
0100
ENDCHAR
STARTCHAR 25CB
ENCODING 9675
SWIDTH 1000 0
DWIDTH 16 0
BBX 15 15 1 -1
BITMAP
07C0
1830
2008
4004
4004
8002
8002
8002
8002
8002
4004
4004
2008
1830
07C0
ENDCHAR
STARTCHAR 25CE
ENCODING 9678
SWIDTH 1000 0
DWIDTH 16 0
BBX 15 15 1 -1
BITMAP
07C0
1830
2388
4C64
5014
9012
A00A
A00A
A00A
9012
5014
4C64
2388
1830
07C0
ENDCHAR
STARTCHAR 25CF
ENCODING 9679
SWIDTH 1000 0
DWIDTH 16 0
BBX 15 15 1 -1
BITMAP
07C0
1FF0
3FF8
7FFC
7FFC
FFFE
FFFE
FFFE
FFFE
FFFE
7FFC
7FFC
3FF8
1FF0
07C0
ENDCHAR
STARTCHAR 2605
ENCODING 9733
SWIDTH 1000 0
DWIDTH 16 0
BBX 15 15 1 -1
BITMAP
0100
0100
0380
0380
07C0
FFFE
7FFC
3FF8
1FF0
0FE0
1FF0
1EF0
3C78
3018
4004
ENDCHAR
STARTCHAR 2606
ENCODING 9734
SWIDTH 1000 0
DWIDTH 16 0
BBX 15 15 1 -1
BITMAP
0100
0100
0280
0280
0440
F83E
4004
2008
1010
0820
1110
1290
2C68
3018
4004
ENDCHAR
STARTCHAR 2640
ENCODING 9792
SWIDTH 1000 0
DWIDTH 16 0
BBX 9 13 4 0
BITMAP
1C00
2200
2200
2200
1C00
0800
0800
FF80
0800
0800
0800
0800
0800
ENDCHAR
STARTCHAR 2642
ENCODING 9794
SWIDTH 1000 0
DWIDTH 16 0
BBX 7 13 5 0
BITMAP
10
38
54
92
10
10
10
10
38
44
44
44
38
ENDCHAR
STARTCHAR 3000
ENCODING 12288
SWIDTH 1000 0
DWIDTH 16 0
BBX 0 0 0 0
BITMAP
ENDCHAR
STARTCHAR 3001
ENCODING 12289
SWIDTH 1000 0
DWIDTH 16 0
BBX 6 4 2 0
BITMAP
C0
78
3C
1C
ENDCHAR
STARTCHAR 3002
ENCODING 12290
SWIDTH 1000 0
DWIDTH 16 0
BBX 6 5 1 -1
BITMAP
78
CC
CC
CC
78
ENDCHAR
STARTCHAR 3003
ENCODING 12291
SWIDTH 1000 0
DWIDTH 16 0
BBX 9 11 3 0
BITMAP
0880
0880
1980
1980
3300
2200
2200
4400
4400
8800
8800
ENDCHAR
STARTCHAR 3005
ENCODING 12293
SWIDTH 1000 0
DWIDTH 16 0
BBX 11 13 3 0
BITMAP
0800
1C00
1800
3040
7FE0
60C0
8180
0180
1300
0E00
0600
0700
0200
ENDCHAR
STARTCHAR 3008
ENCODING 12296
SWIDTH 1000 0
DWIDTH 16 0
BBX 6 11 4 0
BITMAP
04
08
10
20
40
80
40
20
10
08
04
ENDCHAR
STARTCHAR 3009
ENCODING 12297
SWIDTH 1000 0
DWIDTH 16 0
BBX 6 11 8 1
BITMAP
80
40
20
10
08
04
08
10
20
40
80
ENDCHAR
STARTCHAR 300A
ENCODING 12298
SWIDTH 1000 0
DWIDTH 16 0
BBX 6 10 4 1
BITMAP
24
24
48
48
90
90
48
48
24
24
ENDCHAR
STARTCHAR 300B
ENCODING 12299
SWIDTH 1000 0
DWIDTH 16 0
BBX 6 10 6 1
BITMAP
90
90
48
48
24
24
48
48
90
90
ENDCHAR
STARTCHAR 300C
ENCODING 12300
SWIDTH 1000 0
DWIDTH 16 0
BBX 5 12 7 0
BITMAP
F8
80
80
80
80
80
80
80
80
80
80
80
ENDCHAR
STARTCHAR 300D
ENCODING 12301
SWIDTH 1000 0
DWIDTH 16 0
BBX 5 12 4 0
BITMAP
08
08
08
08
08
08
08
08
08
08
08
F8
ENDCHAR
STARTCHAR 300E
ENCODING 12302
SWIDTH 1000 0
DWIDTH 16 0
BBX 7 12 6 0
BITMAP
FE
82
BE
A0
A0
A0
A0
A0
A0
A0
A0
E0
ENDCHAR
STARTCHAR 300F
ENCODING 12303
SWIDTH 1000 0
DWIDTH 16 0
BBX 9 13 3 -1
BITMAP
0380
0280
0280
0280
0280
0280
0280
0280
0280
0280
FE80
8280
FF80
ENDCHAR
STARTCHAR 3010
ENCODING 12304
SWIDTH 1000 0
DWIDTH 16 0
BBX 7 12 5 0
BITMAP
FE
FC
F8
F0
F0
E0
E0
F0
F0
F8
FC
FE
ENDCHAR
STARTCHAR 3011
ENCODING 12305
SWIDTH 1000 0
DWIDTH 16 0
BBX 7 12 5 0
BITMAP
FE
7E
3E
1E
1E
0E
0E
1E
1E
3E
7E
FE
ENDCHAR
STARTCHAR 3013
ENCODING 12307
SWIDTH 1000 0
DWIDTH 16 0
BBX 11 14 3 -1
BITMAP
FFE0
FFE0
FFE0
FFE0
FFE0
0000
0000
0000
0000
FFE0
FFE0
FFE0
FFE0
FFE0
ENDCHAR
STARTCHAR 3014
ENCODING 12308
SWIDTH 1000 0
DWIDTH 16 0
BBX 5 14 9 -1
BITMAP
18
70
C0
80
80
80
80
80
80
80
80
C0
70
18
ENDCHAR
STARTCHAR 3015
ENCODING 12309
SWIDTH 1000 0
DWIDTH 16 0
BBX 5 14 3 -1
BITMAP
C0
70
18
08
08
08
08
08
08
08
08
18
70
C0
ENDCHAR
STARTCHAR 3016
ENCODING 12310
SWIDTH 1000 0
DWIDTH 16 0
BBX 8 12 4 0
BITMAP
FF
82
84
88
88
90
90
88
88
84
82
FF
ENDCHAR
STARTCHAR 3017
ENCODING 12311
SWIDTH 1000 0
DWIDTH 16 0
BBX 8 12 5 0
BITMAP
FF
41
21
11
11
09
09
11
11
21
41
FF
ENDCHAR
STARTCHAR 3041
ENCODING 12353
SWIDTH 1000 0
DWIDTH 16 0
BBX 10 13 3 -1
BITMAP
0800
0800
0800
7F80
0800
1C00
2A00
4D80
8840
B440
4080
0100
0200
ENDCHAR
STARTCHAR 3042
ENCODING 12354
SWIDTH 1000 0
DWIDTH 16 0
BBX 11 14 3 -1
BITMAP
0400
0400
0800
FFC0
0800
0C00
1B00
2A80
4A40
4420
8A20
7040
0080
0100
ENDCHAR
STARTCHAR 3043
ENCODING 12355
SWIDTH 1000 0
DWIDTH 16 0
BBX 9 10 4 1
BITMAP
8000
8200
8100
8180
8080
4000
4000
2000
2800
1000
ENDCHAR
STARTCHAR 3044
ENCODING 12356
SWIDTH 1000 0
DWIDTH 16 0
BBX 11 12 3 0
BITMAP
8000
8000
8100
8080
80E0
C040
4000
4000
6000
2400
2800
1000
ENDCHAR
STARTCHAR 3045
ENCODING 12357
SWIDTH 1000 0
DWIDTH 16 0
BBX 8 11 4 0
BITMAP
7C
06
18
20
FE
03
01
06
0C
10
20
ENDCHAR
STARTCHAR 3046
ENCODING 12358
SWIDTH 1000 0
DWIDTH 16 0
BBX 9 13 4 -1
BITMAP
7C00
0600
0C00
1000
FE00
0300
0180
0100
0300
0600
0800
1000
2000
ENDCHAR
STARTCHAR 3047
ENCODING 12359
SWIDTH 1000 0
DWIDTH 16 0
BBX 9 11 4 1
BITMAP
3000
1800
2000
0000
FE00
0400
0800
1000
2800
4C80
8700
ENDCHAR
STARTCHAR 3048
ENCODING 12360
SWIDTH 1000 0
DWIDTH 16 0
BBX 11 12 3 0
BITMAP
1E00
0400
0800
0000
7F00
0200
0400
0800
1400
2400
4620
83E0
ENDCHAR
STARTCHAR 3049
ENCODING 12361
SWIDTH 1000 0
DWIDTH 16 0
BBX 10 11 3 1
BITMAP
4000
2300
2180
7000
2300
2C80
3040
6040
A480
6300
2000
ENDCHAR
STARTCHAR 304A
ENCODING 12362
SWIDTH 1000 0
DWIDTH 16 0
BBX 11 12 3 0
BITMAP
40C0
2060
2000
F980
2240
2420
2820
3020
6440
A280
6100
2000
ENDCHAR
STARTCHAR 304B
ENCODING 12363
SWIDTH 1000 0
DWIDTH 16 0
BBX 11 12 3 0
BITMAP
1000
0800
8880
7C40
0A40
1220
1220
2220
2260
4440
4400
8800
ENDCHAR
STARTCHAR 304C
ENCODING 12364
SWIDTH 1000 0
DWIDTH 16 0
BBX 12 13 3 0
BITMAP
0040
1030
0800
88B0
7C40
0A40
1220
1220
2220
2260
4440
4400
8800
ENDCHAR
STARTCHAR 304D
ENCODING 12365
SWIDTH 1000 0
DWIDTH 16 0
BBX 8 14 4 -1
BITMAP
20
20
1F
F0
08
0F
F4
04
02
32
4D
42
30
0E
ENDCHAR
STARTCHAR 304E
ENCODING 12366
SWIDTH 1000 0
DWIDTH 16 0
BBX 11 15 4 -1
BITMAP
0080
2060
2080
1F60
F000
0800
0F00
F400
0400
0200
3200
4D00
4200
3000
0E00
ENDCHAR
STARTCHAR 304F
ENCODING 12367
SWIDTH 1000 0
DWIDTH 16 0
BBX 6 13 4 -1
BITMAP
04
0C
18
30
20
40
C0
40
20
30
18
0C
04
ENDCHAR
STARTCHAR 3050
ENCODING 12368
SWIDTH 1000 0
DWIDTH 16 0
BBX 11 15 4 -1
BITMAP
0080
0060
0480
0C60
1800
3000
2000
4000
C000
4000
2000
3000
1800
0C00
0400
ENDCHAR
STARTCHAR 3051
ENCODING 12369
SWIDTH 1000 0
DWIDTH 16 0
BBX 11 14 3 -1
BITMAP
0100
8180
8080
83E0
8080
8080
C080
4080
4080
6080
2880
3080
2100
0200
ENDCHAR
STARTCHAR 3052
ENCODING 12370
SWIDTH 1000 0
DWIDTH 16 0
BBX 13 15 3 -1
BITMAP
0020
0018
8120
8098
8080
83E0
8080
C080
4080
4080
6080
2880
3080
2100
0200
ENDCHAR
STARTCHAR 3053
ENCODING 12371
SWIDTH 1000 0
DWIDTH 16 0
BBX 10 10 3 1
BITMAP
7E00
0700
0C00
0000
0000
0000
8000
8000
61C0
3F80
ENDCHAR
STARTCHAR 3054
ENCODING 12372
SWIDTH 1000 0
DWIDTH 16 0
BBX 12 13 3 1
BITMAP
0040
0030
0040
7E30
0700
0C00
0000
0000
0000
8000
8000
61C0
3F80
ENDCHAR
STARTCHAR 3055
ENCODING 12373
SWIDTH 1000 0
DWIDTH 16 0
BBX 8 14 4 -1
BITMAP
20
20
10
1F
E8
0C
04
04
02
33
4C
42
30
0E
ENDCHAR
STARTCHAR 3056
ENCODING 12374
SWIDTH 1000 0
DWIDTH 16 0
BBX 11 15 4 -1
BITMAP
0080
2060
2080
1060
1F00
E800
0C00
0400
0400
0200
3300
4C00
4200
3000
0E00
ENDCHAR
STARTCHAR 3057
ENCODING 12375
SWIDTH 1000 0
DWIDTH 16 0
BBX 8 12 5 0
BITMAP
80
80
80
80
80
80
80
80
81
C2
64
38
ENDCHAR
STARTCHAR 3058
ENCODING 12376
SWIDTH 1000 0
DWIDTH 16 0
BBX 9 13 5 0
BITMAP
0200
8180
8200
8180
8000
8000
8000
8000
8000
8100
C200
6400
3800
ENDCHAR
STARTCHAR 3059
ENCODING 12377
SWIDTH 1000 0
DWIDTH 16 0
BBX 11 14 3 -1
BITMAP
0400
0400
0400
0400
FFE0
0400
0C00
1400
1400
0A00
0200
0400
0800
1000
ENDCHAR
STARTCHAR 305A
ENCODING 12378
SWIDTH 1000 0
DWIDTH 16 0
BBX 12 15 3 -1
BITMAP
0040
0430
0440
0430
0400
FFE0
0400
0C00
1400
1400
0A00
0200
0400
0800
1000
ENDCHAR
STARTCHAR 305B
ENCODING 12379
SWIDTH 1000 0
DWIDTH 16 0
BBX 11 12 3 0
BITMAP
0100
1100
1100
FFE0
1100
1100
1100
1500
1200
1000
1000
0FC0
ENDCHAR
STARTCHAR 305C
ENCODING 12380
SWIDTH 1000 0
DWIDTH 16 0
BBX 12 14 3 0
BITMAP
0040
0030
0140
1130
1100
FFE0
1100
1100
1100
1500
1200
1000
1000
0FC0
ENDCHAR
STARTCHAR 305D
ENCODING 12381
SWIDTH 1000 0
DWIDTH 16 0
BBX 9 13 3 -1
BITMAP
3E00
1200
0400
0800
1000
2380
5C00
E400
0800
0800
0800
0400
0380
ENDCHAR
STARTCHAR 305E
ENCODING 12382
SWIDTH 1000 0
DWIDTH 16 0
BBX 12 15 3 -1
BITMAP
0040
0030
3E40
1230
0400
0800
1000
2380
5C00
E400
0800
0800
0800
0400
0380
ENDCHAR
STARTCHAR 305F
ENCODING 12383
SWIDTH 1000 0
DWIDTH 16 0
BBX 12 13 2 -1
BITMAP
1000
10E0
7C30
1020
1040
1000
1000
1000
3200
6200
4100
C0F0
8000
ENDCHAR
STARTCHAR 3060
ENCODING 12384
SWIDTH 1000 0
DWIDTH 16 0
BBX 14 15 2 -1
BITMAP
0010
000C
1010
10EC
7C30
1020
1040
1000
1000
1000
3200
6200
4100
C0F0
8000
ENDCHAR
STARTCHAR 3061
ENCODING 12385
SWIDTH 1000 0
DWIDTH 16 0
BBX 10 14 4 -1
BITMAP
0800
0A00
C900
7E00
0800
0800
0800
0B00
0C80
18C0
00C0
0180
0300
0400
ENDCHAR
STARTCHAR 3062
ENCODING 12386
SWIDTH 1000 0
DWIDTH 16 0
BBX 12 15 4 -1
BITMAP
0040
0830
0A40
C930
7E00
0800
0800
0800
0B00
0C80
18C0
00C0
0180
0300
0400
ENDCHAR
STARTCHAR 3063
ENCODING 12387
SWIDTH 1000 0
DWIDTH 16 0
BBX 9 7 4 2
BITMAP
8E00
7100
0080
0080
0100
0600
0800
ENDCHAR
STARTCHAR 3064
ENCODING 12388
SWIDTH 1000 0
DWIDTH 16 0
BBX 12 9 2 1
BITMAP
01C0
8E20
7010
0010
0020
0020
00C0
0300
0400
ENDCHAR
STARTCHAR 3065
ENCODING 12389
SWIDTH 1000 0
DWIDTH 16 0
BBX 13 13 2 1
BITMAP
0020
0018
0020
0018
01C0
8E20
7010
0010
0020
0020
00C0
0300
0400
ENDCHAR
STARTCHAR 3066
ENCODING 12390
SWIDTH 1000 0
DWIDTH 16 0
BBX 11 11 3 0
BITMAP
01E0
1E00
E800
0800
0800
0800
0800
1000
1000
0980
0700
ENDCHAR
STARTCHAR 3067
ENCODING 12391
SWIDTH 1000 0
DWIDTH 16 0
BBX 13 14 3 0
BITMAP
0020
0018
0020
01D8
1E00
E800
0800
0800
0800
0800
1000
1000
0980
0700
ENDCHAR
STARTCHAR 3068
ENCODING 12392
SWIDTH 1000 0
DWIDTH 16 0
BBX 7 13 4 -1
BITMAP
10
10
10
10
14
18
30
40
80
80
80
46
3C
ENDCHAR
STARTCHAR 3069
ENCODING 12393
SWIDTH 1000 0
DWIDTH 16 0
BBX 11 14 4 -1
BITMAP
0080
1060
1080
1060
1000
1400
1800
3000
4000
8000
8000
8000
4600
3C00
ENDCHAR
STARTCHAR 306A
ENCODING 12394
SWIDTH 1000 0
DWIDTH 16 0
BBX 12 13 2 -1
BITMAP
1000
10C0
7C60
1020
1040
1080
1080
1040
3040
6340
44E0
C250
8180
ENDCHAR
STARTCHAR 306B
ENCODING 12395
SWIDTH 1000 0
DWIDTH 16 0
BBX 11 12 3 0
BITMAP
4000
4040
4780
4000
4000
8000
8000
8000
8000
9000
6460
43C0
ENDCHAR
STARTCHAR 306C
ENCODING 12396
SWIDTH 1000 0
DWIDTH 16 0
BBX 13 11 2 1
BITMAP
1000
09C0
0620
5C10
5410
2810
2810
5010
A8E0
A530
40D8
ENDCHAR
STARTCHAR 306D
ENCODING 12397
SWIDTH 1000 0
DWIDTH 16 0
BBX 14 13 1 0
BITMAP
1000
1000
10C0
7920
1210
1208
5408
5808
3010
3070
5098
B06C
1000
ENDCHAR
STARTCHAR 306E
ENCODING 12398
SWIDTH 1000 0
DWIDTH 16 0
BBX 12 12 2 0
BITMAP
0E00
3180
4440
8420
8420
8410
8410
4820
4820
5040
2080
0100
ENDCHAR
STARTCHAR 306F
ENCODING 12399
SWIDTH 1000 0
DWIDTH 16 0
BBX 11 14 3 -1
BITMAP
0100
4100
4920
47C0
4100
4100
4100
4080
8080
8080
8700
A9C0
4A20
0400
ENDCHAR
STARTCHAR 3070
ENCODING 12400
SWIDTH 1000 0
DWIDTH 16 0
BBX 13 15 3 -1
BITMAP
0020
0118
4120
4918
47C0
4100
4100
4100
4080
8080
8080
8700
A9C0
4A20
0400
ENDCHAR
STARTCHAR 3071
ENCODING 12401
SWIDTH 1000 0
DWIDTH 16 0
BBX 13 15 3 -1
BITMAP
0010
0128
4110
4920
47C0
4100
4100
4100
4080
8080
8080
8700
A9C0
4A20
0400
ENDCHAR
STARTCHAR 3072
ENCODING 12402
SWIDTH 1000 0
DWIDTH 16 0
BBX 12 13 3 -1
BITMAP
0080
30C0
E0C0
40A0
40A0
4090
4080
8080
8040
8040
4080
3300
0C00
ENDCHAR
STARTCHAR 3073
ENCODING 12403
SWIDTH 1000 0
DWIDTH 16 0
BBX 13 15 3 -1
BITMAP
0020
0018
00A0
30D8
E0C0
40A0
40A0
4090
4080
8080
8040
8040
4080
3300
0C00
ENDCHAR
STARTCHAR 3074
ENCODING 12404
SWIDTH 1000 0
DWIDTH 16 0
BBX 13 14 3 -1
BITMAP
0010
00A8
30D0
E0C0
40A0
40A0
4090
4080
8080
8040
8040
4080
3300
0C00
ENDCHAR
STARTCHAR 3075
ENCODING 12405
SWIDTH 1000 0
DWIDTH 16 0
BBX 13 11 2 0
BITMAP
0C00
0600
0400
0800
0400
0200
0780
1960
E938
4510
0200
ENDCHAR
STARTCHAR 3076
ENCODING 12406
SWIDTH 1000 0
DWIDTH 16 0
BBX 13 13 2 0
BITMAP
0040
0030
0C40
0630
0400
0800
0400
0200
0780
1960
E938
4510
0200
ENDCHAR
STARTCHAR 3077
ENCODING 12407
SWIDTH 1000 0
DWIDTH 16 0
BBX 13 12 2 0
BITMAP
0020
0C50
0620
0400
0800
0400
0200
0780
1960
E938
4510
0200
ENDCHAR
STARTCHAR 3078
ENCODING 12408
SWIDTH 1000 0
DWIDTH 16 0
BBX 12 6 3 2
BITMAP
2000
5000
8C00
0700
01C0
0070
ENDCHAR
STARTCHAR 3079
ENCODING 12409
SWIDTH 1000 0
DWIDTH 16 0
BBX 12 11 3 2
BITMAP
0080
0060
0080
0060
0000
2000
5000
8C00
0700
01C0
0070
ENDCHAR
STARTCHAR 307A
ENCODING 12410
SWIDTH 1000 0
DWIDTH 16 0
BBX 12 10 3 2
BITMAP
0040
00A0
0040
0000
2000
5000
8C00
0700
01C0
0070
ENDCHAR
STARTCHAR 307B
ENCODING 12411
SWIDTH 1000 0
DWIDTH 16 0
BBX 11 14 3 -1
BITMAP
07C0
4100
4100
4FE0
4100
4100
4100
4080
8080
8080
8700
A9C0
4A20
0400
ENDCHAR
STARTCHAR 307C
ENCODING 12412
SWIDTH 1000 0
DWIDTH 16 0
BBX 13 15 3 -1
BITMAP
0020
07D8
4120
4118
4FE0
4100
4100
4100
4080
8080
8080
8700
A9C0
4A20
0400
ENDCHAR
STARTCHAR 307D
ENCODING 12413
SWIDTH 1000 0
DWIDTH 16 0
BBX 13 14 3 -1
BITMAP
07D0
4128
4110
4FE0
4100
4100
4100
4080
8080
8080
8700
A9C0
4A20
0400
ENDCHAR
STARTCHAR 307E
ENCODING 12414
SWIDTH 1000 0
DWIDTH 16 0
BBX 9 14 3 -1
BITMAP
0400
0400
0400
1F00
0400
0400
3F80
0400
0400
0400
3400
4E00
9B00
6000
ENDCHAR
STARTCHAR 307F
ENCODING 12415
SWIDTH 1000 0
DWIDTH 16 0
BBX 12 11 1 0
BITMAP
1E00
0200
0420
0420
0820
2860
5C40
9340
A0C0
A160
4230
ENDCHAR
STARTCHAR 3080
ENCODING 12416
SWIDTH 1000 0
DWIDTH 16 0
BBX 12 14 3 -1
BITMAP
2000
2000
F800
2060
2090
2080
6080
B040
B040
6040
2040
2040
3080
5F00
ENDCHAR
STARTCHAR 3081
ENCODING 12417
SWIDTH 1000 0
DWIDTH 16 0
BBX 12 13 2 0
BITMAP
0200
4200
4F00
7280
2240
3620
4C10
8410
8A20
4920
5040
2080
0100
ENDCHAR
STARTCHAR 3082
ENCODING 12418
SWIDTH 1000 0
DWIDTH 16 0
BBX 8 14 5 -1
BITMAP
20
20
E0
38
30
64
A2
61
39
21
21
22
14
08
ENDCHAR
STARTCHAR 3083
ENCODING 12419
SWIDTH 1000 0
DWIDTH 16 0
BBX 10 12 4 -1
BITMAP
3400
4800
2100
2680
B840
6040
1280
1100
0800
0600
0300
0200
ENDCHAR
STARTCHAR 3084
ENCODING 12420
SWIDTH 1000 0
DWIDTH 16 0
BBX 13 12 2 -1
BITMAP
1800
2420
20D0
1310
DC08
3808
0490
0460
0200
0300
01E0
00C0
ENDCHAR
STARTCHAR 3085
ENCODING 12421
SWIDTH 1000 0
DWIDTH 16 0
BBX 10 13 4 -1
BITMAP
0200
0700
8A80
9640
9240
9240
9240
9240
AA80
E700
4200
0400
0800
ENDCHAR
STARTCHAR 3086
ENCODING 12422
SWIDTH 1000 0
DWIDTH 16 0
BBX 12 14 3 -1
BITMAP
0100
8280
8760
8920
8910
8910
8910
8910
8910
8510
9310
A060
4180
0600
ENDCHAR
STARTCHAR 3087
ENCODING 12423
SWIDTH 1000 0
DWIDTH 16 0
BBX 8 12 5 0
BITMAP
10
10
1C
10
10
08
08
08
74
84
4B
30
ENDCHAR
STARTCHAR 3088
ENCODING 12424
SWIDTH 1000 0
DWIDTH 16 0
BBX 8 14 5 -1
BITMAP
10
10
1C
10
10
10
08
08
08
04
74
8E
8B
70
ENDCHAR
STARTCHAR 3089
ENCODING 12425
SWIDTH 1000 0
DWIDTH 16 0
BBX 7 13 6 -1
BITMAP
30
18
60
80
80
80
80
BC
E6
02
06
1C
60
ENDCHAR
STARTCHAR 308A
ENCODING 12426
SWIDTH 1000 0
DWIDTH 16 0
BBX 7 13 4 -1
BITMAP
40
40
40
58
6C
64
E2
42
02
04
04
08
10
ENDCHAR
STARTCHAR 308B
ENCODING 12427
SWIDTH 1000 0
DWIDTH 16 0
BBX 11 13 3 -1
BITMAP
4E00
3200
0400
0400
0800
0B80
1C40
3020
6020
C620
0940
0480
0300
ENDCHAR
STARTCHAR 308C
ENCODING 12428
SWIDTH 1000 0
DWIDTH 16 0
BBX 14 13 1 0
BITMAP
1000
1000
10C0
7920
1220
1220
5440
5840
3040
3040
5044
B028
1010
ENDCHAR
STARTCHAR 308D
ENCODING 12429
SWIDTH 1000 0
DWIDTH 16 0
BBX 11 13 3 -1
BITMAP
4E00
3200
0400
0400
0800
0B80
1C40
3060
6020
C060
0040
0080
0100
ENDCHAR
STARTCHAR 308E
ENCODING 12430
SWIDTH 1000 0
DWIDTH 16 0
BBX 10 11 3 1
BITMAP
4000
2000
2000
7000
2600
2980
3040
6040
A080
6100
2000
ENDCHAR
STARTCHAR 308F
ENCODING 12431
SWIDTH 1000 0
DWIDTH 16 0
BBX 11 12 3 0
BITMAP
4000
2000
2000
F800
2180
2640
2820
3020
6040
A080
6100
2000
ENDCHAR
STARTCHAR 3090
ENCODING 12432
SWIDTH 1000 0
DWIDTH 16 0
BBX 13 12 1 -1
BITMAP
7C00
4800
08C0
0B20
0C10
1818
3008
5018
90D0
5110
20A0
0040
ENDCHAR
STARTCHAR 3091
ENCODING 12433
SWIDTH 1000 0
DWIDTH 16 0
BBX 11 13 3 -1
BITMAP
1E00
0400
0B00
1C80
2080
0500
0A00
0400
1800
2080
5140
AA60
0480
ENDCHAR
STARTCHAR 3092
ENCODING 12434
SWIDTH 1000 0
DWIDTH 16 0
BBX 11 14 3 -1
BITMAP
0800
0800
3E00
0800
10C0
2120
7A40
CD80
0600
1C00
2400
4400
2080
1F00
ENDCHAR
STARTCHAR 3093
ENCODING 12435
SWIDTH 1000 0
DWIDTH 16 0
BBX 11 12 3 0
BITMAP
0800
0800
1000
1000
2600
2900
3100
2100
4100
4100
80A0
8040
ENDCHAR
STARTCHAR 30A1
ENCODING 12449
SWIDTH 1000 0
DWIDTH 16 0
BBX 9 10 4 1
BITMAP
FF80
0180
1600
1800
1000
1000
2000
2000
4000
8000
ENDCHAR
STARTCHAR 30A2
ENCODING 12450
SWIDTH 1000 0
DWIDTH 16 0
BBX 12 14 3 -1
BITMAP
FFF0
0020
04C0
0700
0400
0400
0400
0C00
0800
1000
1000
2000
4000
8000
ENDCHAR
STARTCHAR 30A3
ENCODING 12451
SWIDTH 1000 0
DWIDTH 16 0
BBX 7 10 4 1
BITMAP
06
18
70
90
10
10
10
10
10
10
ENDCHAR
STARTCHAR 30A4
ENCODING 12452
SWIDTH 1000 0
DWIDTH 16 0
BBX 12 14 2 -1
BITMAP
00F0
0780
3E00
C200
0200
0200
0200
0200
0200
0200
0200
0200
0200
0200
ENDCHAR
STARTCHAR 30A5
ENCODING 12453
SWIDTH 1000 0
DWIDTH 16 0
BBX 9 11 4 1
BITMAP
0800
0800
FF80
8080
8080
0100
0100
0200
0400
0800
1000
ENDCHAR
STARTCHAR 30A6
ENCODING 12454
SWIDTH 1000 0
DWIDTH 16 0
BBX 11 14 4 -1
BITMAP
0400
0400
FFE0
8020
8040
0040
0080
0080
0100
0100
0200
0400
0800
1000
ENDCHAR
STARTCHAR 30A7
ENCODING 12455
SWIDTH 1000 0
DWIDTH 16 0
BBX 11 7 3 3
BITMAP
3F80
0400
0400
0400
0400
0400
FFE0
ENDCHAR
STARTCHAR 30A8
ENCODING 12456
SWIDTH 1000 0
DWIDTH 16 0
BBX 13 9 2 2
BITMAP
3FE0
0200
0200
0200
0200
0200
0200
0200
FFF8
ENDCHAR
STARTCHAR 30A9
ENCODING 12457
SWIDTH 1000 0
DWIDTH 16 0
BBX 9 10 4 1
BITMAP
0200
0200
FF80
0600
0A00
1200
2200
4A00
8600
0200
ENDCHAR
STARTCHAR 30AA
ENCODING 12458
SWIDTH 1000 0
DWIDTH 16 0
BBX 12 14 3 -1
BITMAP
0080
0080
0080
FFF0
0180
0280
0480
0880
1080
2080
4080
8280
0180
0080
ENDCHAR
STARTCHAR 30AB
ENCODING 12459
SWIDTH 1000 0
DWIDTH 16 0
BBX 11 14 2 -1
BITMAP
0400
0400
0400
FFE0
0420
0420
0420
0820
0820
1040
1040
2040
4280
8100
ENDCHAR
STARTCHAR 30AC
ENCODING 12460
SWIDTH 1000 0
DWIDTH 16 0
BBX 13 15 2 -1
BITMAP
0020
0418
0420
0418
FFE0
0420
0420
0420
0820
0820
1040
1040
2040
4280
8100
ENDCHAR
STARTCHAR 30AD
ENCODING 12461
SWIDTH 1000 0
DWIDTH 16 0
BBX 9 13 4 0
BITMAP
2000
2000
1000
1F80
F800
0800
0800
0F80
FC00
0400
0400
0200
0200
ENDCHAR
STARTCHAR 30AE
ENCODING 12462
SWIDTH 1000 0
DWIDTH 16 0
BBX 11 14 4 0
BITMAP
0080
2060
2080
1060
1F80
F800
0800
0800
0F80
FC00
0400
0400
0200
0200
ENDCHAR
STARTCHAR 30AF
ENCODING 12463
SWIDTH 1000 0
DWIDTH 16 0
BBX 9 14 3 -1
BITMAP
1000
1000
2000
3F80
2080
4100
8100
0200
0400
0800
1000
2000
4000
8000
ENDCHAR
STARTCHAR 30B0
ENCODING 12464
SWIDTH 1000 0
DWIDTH 16 0
BBX 12 15 3 -1
BITMAP
0040
1030
1040
2030
3F80
2080
4100
8100
0200
0400
0800
1000
2000
4000
8000
ENDCHAR
STARTCHAR 30B1
ENCODING 12465
SWIDTH 1000 0
DWIDTH 16 0
BBX 10 13 3 0
BITMAP
0800
1000
2000
5FC0
8200
0200
0400
0400
0800
1000
2000
4000
8000
ENDCHAR
STARTCHAR 30B2
ENCODING 12466
SWIDTH 1000 0
DWIDTH 16 0
BBX 12 14 3 0
BITMAP
0040
0830
1000
2030
5FC0
8200
0200
0400
0400
0800
1000
2000
4000
8000
ENDCHAR
STARTCHAR 30B3
ENCODING 12467
SWIDTH 1000 0
DWIDTH 16 0
BBX 12 8 2 2
BITMAP
7FE0
0020
0020
0020
0020
0020
0020
FFF0
ENDCHAR
STARTCHAR 30B4
ENCODING 12468
SWIDTH 1000 0
DWIDTH 16 0
BBX 13 12 2 2
BITMAP
0020
0018
0020
0018
7FE0
0020
0020
0020
0020
0020
0020
FFF0
ENDCHAR
STARTCHAR 30B5
ENCODING 12469
SWIDTH 1000 0
DWIDTH 16 0
BBX 13 14 2 -1
BITMAP
0080
0880
0880
0880
FFF8
0880
0880
0880
0880
0080
0080
0080
0100
0200
ENDCHAR
STARTCHAR 30B6
ENCODING 12470
SWIDTH 1000 0
DWIDTH 16 0
BBX 13 15 2 -1
BITMAP
0020
0098
08A0
0898
0880
FFF8
0880
0880
0880
0880
0080
0080
0080
0100
0200
ENDCHAR
STARTCHAR 30B7
ENCODING 12471
SWIDTH 1000 0
DWIDTH 16 0
BBX 11 13 3 -1
BITMAP
6000
3000
0000
0020
6040
3080
0100
0200
0400
0800
1000
6000
C000
ENDCHAR
STARTCHAR 30B8
ENCODING 12472
SWIDTH 1000 0
DWIDTH 16 0
BBX 12 15 3 -1
BITMAP
0040
0030
6040
3030
0000
0020
6040
3080
0100
0200
0400
0800
1000
6000
C000
ENDCHAR
STARTCHAR 30B9
ENCODING 12473
SWIDTH 1000 0
DWIDTH 16 0
BBX 11 10 3 1
BITMAP
7FC0
0080
0100
0200
0400
0A00
1100
2080
4040
8020
ENDCHAR
STARTCHAR 30BA
ENCODING 12474
SWIDTH 1000 0
DWIDTH 16 0
BBX 12 13 3 1
BITMAP
0040
0030
0040
7FB0
0080
0100
0200
0400
0A00
1100
2080
4040
8020
ENDCHAR
STARTCHAR 30BB
ENCODING 12475
SWIDTH 1000 0
DWIDTH 16 0
BBX 12 11 2 1
BITMAP
0800
0800
0BF0
FC10
0820
0840
0800
0800
0800
0800
0FC0
ENDCHAR
STARTCHAR 30BC
ENCODING 12476
SWIDTH 1000 0
DWIDTH 16 0
BBX 13 13 2 1
BITMAP
0020
0018
0820
0818
0BF0
FC10
0820
0840
0800
0800
0800
0800
0FC0
ENDCHAR
STARTCHAR 30BD
ENCODING 12477
SWIDTH 1000 0
DWIDTH 16 0
BBX 8 13 4 -1
BITMAP
01
01
81
C1
42
02
02
04
08
10
20
40
80
ENDCHAR
STARTCHAR 30BE
ENCODING 12478
SWIDTH 1000 0
DWIDTH 16 0
BBX 11 15 4 -1
BITMAP
0080
0060
0080
0160
8100
C100
4200
0200
0200
0400
0800
1000
2000
4000
8000
ENDCHAR
STARTCHAR 30BF
ENCODING 12479
SWIDTH 1000 0
DWIDTH 16 0
BBX 9 14 3 -1
BITMAP
1000
1000
2000
3F80
2080
4100
9100
0A00
0400
0A00
1100
2000
4000
8000
ENDCHAR
STARTCHAR 30C0
ENCODING 12480
SWIDTH 1000 0
DWIDTH 16 0
BBX 12 15 3 -1
BITMAP
0040
1030
1040
2030
3F80
2080
4100
9100
0A00
0400
0A00
1100
2000
4000
8000
ENDCHAR
STARTCHAR 30C1
ENCODING 12481
SWIDTH 1000 0
DWIDTH 16 0
BBX 12 13 2 -1
BITMAP
03C0
3C00
0200
0200
0200
FFF0
0200
0400
0400
0800
1000
2000
4000
ENDCHAR
STARTCHAR 30C2
ENCODING 12482
SWIDTH 1000 0
DWIDTH 16 0
BBX 13 15 2 -1
BITMAP
0020
0018
03A0
3C18
0200
0200
0200
FFF0
0200
0400
0400
0800
1000
2000
4000
ENDCHAR
STARTCHAR 30C3
ENCODING 12483
SWIDTH 1000 0
DWIDTH 16 0
BBX 6 9 5 1
BITMAP
04
A4
A4
08
08
10
20
40
80
ENDCHAR
STARTCHAR 30C4
ENCODING 12484
SWIDTH 1000 0
DWIDTH 16 0
BBX 10 11 3 0
BITMAP
8840
CC40
4480
0100
0200
0400
0800
1000
2000
4000
8000
ENDCHAR
STARTCHAR 30C5
ENCODING 12485
SWIDTH 1000 0
DWIDTH 16 0
BBX 12 14 3 0
BITMAP
0040
0030
0040
8870
CC40
4480
0100
0200
0400
0800
1000
2000
4000
8000
ENDCHAR
STARTCHAR 30C6
ENCODING 12486
SWIDTH 1000 0
DWIDTH 16 0
BBX 12 13 2 -1
BITMAP
3FC0
0000
0000
0000
FFF0
0200
0200
0400
0400
0800
1000
2000
4000
ENDCHAR
STARTCHAR 30C7
ENCODING 12487
SWIDTH 1000 0
DWIDTH 16 0
BBX 13 15 2 -1
BITMAP
0020
0018
3FA0
0018
0000
0000
FFF0
0200
0200
0400
0400
0800
1000
2000
4000
ENDCHAR
STARTCHAR 30C8
ENCODING 12488
SWIDTH 1000 0
DWIDTH 16 0
BBX 5 14 6 -1
BITMAP
80
80
80
80
C0
A0
90
88
80
80
80
80
80
80
ENDCHAR
STARTCHAR 30C9
ENCODING 12489
SWIDTH 1000 0
DWIDTH 16 0
BBX 9 15 6 -1
BITMAP
0200
8180
8200
8180
8000
C000
A000
9000
8800
8000
8000
8000
8000
8000
8000
ENDCHAR
STARTCHAR 30CA
ENCODING 12490
SWIDTH 1000 0
DWIDTH 16 0
BBX 13 13 2 -1
BITMAP
0200
0200
0200
0200
FFF8
0200
0200
0400
0400
0800
1000
2000
4000
ENDCHAR
STARTCHAR 30CB
ENCODING 12491
SWIDTH 1000 0
DWIDTH 16 0
BBX 13 8 2 3
BITMAP
3FE0
0000
0000
0000
0000
0000
0000
FFF8
ENDCHAR
STARTCHAR 30CC
ENCODING 12492
SWIDTH 1000 0
DWIDTH 16 0
BBX 10 12 3 -1
BITMAP
7FC0
0080
0080
2100
1100
0A00
0400
0A00
1100
2000
4000
8000
ENDCHAR
STARTCHAR 30CD
ENCODING 12493
SWIDTH 1000 0
DWIDTH 16 0
BBX 11 14 2 -1
BITMAP
0800
0400
0200
3F00
0200
0400
0A80
1240
2220
4200
8200
0200
0200
0200
ENDCHAR
STARTCHAR 30CE
ENCODING 12494
SWIDTH 1000 0
DWIDTH 16 0
BBX 9 10 3 2
BITMAP
0080
0180
0300
0200
0400
0800
1000
2000
4000
8000
ENDCHAR
STARTCHAR 30CF
ENCODING 12495
SWIDTH 1000 0
DWIDTH 16 0
BBX 12 8 2 3
BITMAP
0400
0C00
0880
1040
1020
2020
4010
8000
ENDCHAR
STARTCHAR 30D0
ENCODING 12496
SWIDTH 1000 0
DWIDTH 16 0
BBX 13 11 2 3
BITMAP
0020
0018
0020
0418
0C00
0880
1040
1020
2020
4010
8000
ENDCHAR
STARTCHAR 30D1
ENCODING 12497
SWIDTH 1000 0
DWIDTH 16 0
BBX 13 10 2 3
BITMAP
0010
0028
0410
0C00
0880
1040
1020
2020
4010
8000
ENDCHAR
STARTCHAR 30D2
ENCODING 12498
SWIDTH 1000 0
DWIDTH 16 0
BBX 6 11 6 1
BITMAP
80
80
8C
B0
C0
80
80
80
80
80
7C
ENDCHAR
STARTCHAR 30D3
ENCODING 12499
SWIDTH 1000 0
DWIDTH 16 0
BBX 9 13 6 1
BITMAP
0200
0180
8200
8180
8C00
B000
C000
8000
8000
8000
8000
8000
7C00
ENDCHAR
STARTCHAR 30D4
ENCODING 12500
SWIDTH 1000 0
DWIDTH 16 0
BBX 9 12 6 1
BITMAP
0100
8280
8100
8C00
B000
C000
8000
8000
8000
8000
8000
7C00
ENDCHAR
STARTCHAR 30D5
ENCODING 12501
SWIDTH 1000 0
DWIDTH 16 0
BBX 10 11 3 0
BITMAP
FFC0
0040
0080
0100
0200
0400
0800
1000
2000
4000
8000
ENDCHAR
STARTCHAR 30D6
ENCODING 12502
SWIDTH 1000 0
DWIDTH 16 0
BBX 12 14 3 0
BITMAP
0040
0030
0040
FFB0
0040
0080
0100
0200
0400
0800
1000
2000
4000
8000
ENDCHAR
STARTCHAR 30D7
ENCODING 12503
SWIDTH 1000 0
DWIDTH 16 0
BBX 12 13 3 0
BITMAP
0010
0020
FFD0
0040
0080
0100
0200
0400
0800
1000
2000
4000
8000
ENDCHAR
STARTCHAR 30D8
ENCODING 12504
SWIDTH 1000 0
DWIDTH 16 0
BBX 11 8 3 1
BITMAP
1000
2800
4400
8200
0100
0080
0040
0020
ENDCHAR
STARTCHAR 30D9
ENCODING 12505
SWIDTH 1000 0
DWIDTH 16 0
BBX 12 13 3 1
BITMAP
0040
0030
0040
0030
0000
1000
2800
4400
8200
0100
0080
0040
0020
ENDCHAR
STARTCHAR 30DA
ENCODING 12506
SWIDTH 1000 0
DWIDTH 16 0
BBX 11 12 3 1
BITMAP
0020
0040
0020
0000
1000
2800
4400
8200
0100
0080
0040
0020
ENDCHAR
STARTCHAR 30DB
ENCODING 12507
SWIDTH 1000 0
DWIDTH 16 0
BBX 13 12 2 0
BITMAP
0200
0200
FFF8
0700
0A80
1240
2220
4210
8208
0A00
0600
0200
ENDCHAR
STARTCHAR 30DC
ENCODING 12508
SWIDTH 1000 0
DWIDTH 16 0
BBX 13 14 2 0
BITMAP
0020
0018
0220
0218
0200
FFF8
0A80
1240
2220
4210
8208
0A00
0600
0200
ENDCHAR
STARTCHAR 30DD
ENCODING 12509
SWIDTH 1000 0
DWIDTH 16 0
BBX 14 13 2 0
BITMAP
0008
0214
0208
0200
FFF8
0A80
1240
2220
4210
8208
0A00
0600
0200
ENDCHAR
STARTCHAR 30DE
ENCODING 12510
SWIDTH 1000 0
DWIDTH 16 0
BBX 11 9 3 1
BITMAP
FFE0
0040
0080
0100
0200
1400
0800
0400
0200
ENDCHAR
STARTCHAR 30DF
ENCODING 12511
SWIDTH 1000 0
DWIDTH 16 0
BBX 10 11 3 1
BITMAP
7000
0F00
0000
0000
7000
0F00
0000
8000
7000
0F00
00C0
ENDCHAR
STARTCHAR 30E0
ENCODING 12512
SWIDTH 1000 0
DWIDTH 16 0
BBX 12 11 3 1
BITMAP
0200
0600
0400
0800
0800
1000
1000
2080
4040
FFA0
0010
ENDCHAR
STARTCHAR 30E1
ENCODING 12513
SWIDTH 1000 0
DWIDTH 16 0
BBX 10 12 3 0
BITMAP
0040
00C0
0080
2100
1100
0E00
0400
0A00
1100
2000
4000
8000
ENDCHAR
STARTCHAR 30E2
ENCODING 12514
SWIDTH 1000 0
DWIDTH 16 0
BBX 12 10 2 1
BITMAP
1FC0
0200
0200
0200
0200
FFF0
0200
0200
0200
03E0
ENDCHAR
STARTCHAR 30E3
ENCODING 12515
SWIDTH 1000 0
DWIDTH 16 0
BBX 9 10 4 1
BITMAP
2000
2000
FF80
1080
1100
0800
0800
0400
0400
0400
ENDCHAR
STARTCHAR 30E4
ENCODING 12516
SWIDTH 1000 0
DWIDTH 16 0
BBX 11 12 3 0
BITMAP
2000
2000
FFE0
1040
1080
1000
0800
0800
0800
0400
0400
0400
ENDCHAR
STARTCHAR 30E5
ENCODING 12517
SWIDTH 1000 0
DWIDTH 16 0
BBX 10 6 3 4
BITMAP
3F00
0100
0100
0100
0100
FFC0
ENDCHAR
STARTCHAR 30E6
ENCODING 12518
SWIDTH 1000 0
DWIDTH 16 0
BBX 13 7 2 3
BITMAP
7FC0
0040
0040
0040
0080
0000
FFF8
ENDCHAR
STARTCHAR 30E7
ENCODING 12519
SWIDTH 1000 0
DWIDTH 16 0
BBX 7 9 5 2
BITMAP
FE
02
02
02
FE
02
02
02
FE
ENDCHAR
STARTCHAR 30E8
ENCODING 12520
SWIDTH 1000 0
DWIDTH 16 0
BBX 11 12 3 0
BITMAP
FFE0
0020
0020
0020
0020
FFE0
0020
0020
0020
0020
0020
FFE0
ENDCHAR
STARTCHAR 30E9
ENCODING 12521
SWIDTH 1000 0
DWIDTH 16 0
BBX 11 13 3 -1
BITMAP
3F80
0000
0000
FFE0
0040
0080
0100
0200
0400
0800
1000
2000
4000
ENDCHAR
STARTCHAR 30EA
ENCODING 12522
SWIDTH 1000 0
DWIDTH 16 0
BBX 5 14 5 -1
BITMAP
08
08
88
88
88
88
88
88
88
08
10
20
40
80
ENDCHAR
STARTCHAR 30EB
ENCODING 12523
SWIDTH 1000 0
DWIDTH 16 0
BBX 12 14 2 -1
BITMAP
0100
1100
1100
1100
1100
1100
1100
1100
1100
2110
2120
4140
4180
8100
ENDCHAR
STARTCHAR 30EC
ENCODING 12524
SWIDTH 1000 0
DWIDTH 16 0
BBX 10 12 4 0
BITMAP
4000
4000
4000
4040
4080
4100
4200
4400
4800
5000
6000
C000
ENDCHAR
STARTCHAR 30ED
ENCODING 12525
SWIDTH 1000 0
DWIDTH 16 0
BBX 10 10 4 1
BITMAP
FFC0
8040
8040
8040
8040
8040
8040
8040
8040
FFC0
ENDCHAR
STARTCHAR 30EE
ENCODING 12526
SWIDTH 1000 0
DWIDTH 16 0
BBX 9 9 4 1
BITMAP
FF80
8080
8080
0100
0100
0200
0400
0800
1000
ENDCHAR
STARTCHAR 30EF
ENCODING 12527
SWIDTH 1000 0
DWIDTH 16 0
BBX 11 12 4 -1
BITMAP
FFE0
8020
8040
0040
0080
0080
0100
0100
0200
0400
0800
1000
ENDCHAR
STARTCHAR 30F0
ENCODING 12528
SWIDTH 1000 0
DWIDTH 16 0
BBX 13 13 2 0
BITMAP
0200
0200
0200
3FC0
2200
2200
2200
2200
FFF8
0200
0200
0200
0200
ENDCHAR
STARTCHAR 30F1
ENCODING 12529
SWIDTH 1000 0
DWIDTH 16 0
BBX 13 9 2 2
BITMAP
3FE0
0040
0080
0300
0200
0200
0200
0200
FFF8
ENDCHAR
STARTCHAR 30F2
ENCODING 12530
SWIDTH 1000 0
DWIDTH 16 0
BBX 10 12 3 0
BITMAP
FFC0
0040
FFC0
0080
0100
0200
0400
0800
1000
2000
4000
8000
ENDCHAR
STARTCHAR 30F3
ENCODING 12531
SWIDTH 1000 0
DWIDTH 16 0
BBX 11 12 3 -1
BITMAP
6000
3000
0020
0040
0080
0100
0200
0400
0800
1000
6000
C000
ENDCHAR
STARTCHAR 30F4
ENCODING 12532
SWIDTH 1000 0
DWIDTH 16 0
BBX 12 15 4 -1
BITMAP
0040
0030
0440
0430
FFE0
8040
0040
0080
0080
0100
0100
0200
0400
0800
1000
ENDCHAR
STARTCHAR 30F5
ENCODING 12533
SWIDTH 1000 0
DWIDTH 16 0
BBX 8 10 5 2
BITMAP
10
10
FF
11
11
11
21
21
45
82
ENDCHAR
STARTCHAR 30F6
ENCODING 12534
SWIDTH 1000 0
DWIDTH 16 0
BBX 8 10 4 1
BITMAP
10
20
3F
44
84
08
08
10
20
40
ENDCHAR
STARTCHAR 30FB
ENCODING 12539
SWIDTH 1000 0
DWIDTH 16 0
BBX 4 4 6 4
BITMAP
60
F0
F0
60
ENDCHAR
STARTCHAR 3105
ENCODING 12549
SWIDTH 1000 0
DWIDTH 16 0
BBX 12 15 2 -2
BITMAP
1000
3000
6000
FFF0
0070
0030
0030
0030
0030
0030
0030
0020
0660
03C0
0180
ENDCHAR
STARTCHAR 3106
ENCODING 12550
SWIDTH 1000 0
DWIDTH 16 0
BBX 12 14 2 -1
BITMAP
0800
1800
3000
7FF0
0030
0030
0060
0660
03C0
0180
03C0
0660
1820
E000
ENDCHAR
STARTCHAR 3107
ENCODING 12551
SWIDTH 1000 0
DWIDTH 16 0
BBX 12 8 2 2
BITMAP
FFF0
C030
C030
C030
C030
C030
C030
C030
ENDCHAR
STARTCHAR 3108
ENCODING 12552
SWIDTH 1000 0
DWIDTH 16 0
BBX 12 12 2 0
BITMAP
FFE0
6000
6000
6000
6000
6000
6000
6000
6000
6000
6000
3FF0
ENDCHAR
STARTCHAR 3109
ENCODING 12553
SWIDTH 1000 0
DWIDTH 16 0
BBX 12 15 2 -2
BITMAP
0800
1800
3000
7FF0
0630
0630
0630
0630
0C30
0C30
1830
1020
2660
C3C0
0180
ENDCHAR
STARTCHAR 310A
ENCODING 12554
SWIDTH 1000 0
DWIDTH 16 0
BBX 14 13 1 0
BITMAP
0200
0300
0300
0300
FFFC
0300
0300
0200
0600
0C00
1820
3FF0
0018
ENDCHAR
STARTCHAR 310B
ENCODING 12555
SWIDTH 1000 0
DWIDTH 16 0
BBX 12 14 2 -2
BITMAP
FF80
0180
0300
0600
0FF0
0030
0030
0030
0030
0030
0020
0660
03C0
0180
ENDCHAR
STARTCHAR 310C
ENCODING 12556
SWIDTH 1000 0
DWIDTH 16 0
BBX 12 15 2 -2
BITMAP
0400
2600
2600
6600
7FF0
0630
0630
0630
0630
0C30
0C30
1830
3020
6160
C0C0
ENDCHAR
STARTCHAR 310D
ENCODING 12557
SWIDTH 1000 0
DWIDTH 16 0
BBX 9 13 3 -1
BITMAP
1980
1100
3300
2200
6600
4400
CC00
4400
6600
2200
3300
1100
1980
ENDCHAR
STARTCHAR 310E
ENCODING 12558
SWIDTH 1000 0
DWIDTH 16 0
BBX 13 14 1 -2
BITMAP
FFF8
0600
0600
0C00
1800
3FF0
0030
0030
0030
0030
0030
0020
0160
00C0
ENDCHAR
STARTCHAR 310F
ENCODING 12559
SWIDTH 1000 0
DWIDTH 16 0
BBX 14 13 0 -1
BITMAP
3FFC
1800
1800
1800
1800
1800
1800
1800
1800
1000
1000
2000
C000
ENDCHAR
STARTCHAR 3110
ENCODING 12560
SWIDTH 1000 0
DWIDTH 16 0
BBX 8 15 4 -2
BITMAP
02
43
63
63
63
63
43
C7
CB
F3
03
03
03
03
03
ENDCHAR
STARTCHAR 3111
ENCODING 12561
SWIDTH 1000 0
DWIDTH 16 0
BBX 6 14 5 -1
BITMAP
18
18
10
30
20
60
C0
60
20
30
10
18
0C
0C
ENDCHAR
STARTCHAR 3112
ENCODING 12562
SWIDTH 1000 0
DWIDTH 16 0
BBX 14 13 1 -1
BITMAP
FFFC
0300
0300
0300
0300
0300
0300
0300
0300
0300
0300
0300
0300
ENDCHAR
STARTCHAR 3113
ENCODING 12563
SWIDTH 1000 0
DWIDTH 16 0
BBX 14 13 1 0
BITMAP
0200
0300
2320
3330
3330
3330
3330
3330
3FF0
0300
0300
0300
FFFC
ENDCHAR
STARTCHAR 3114
ENCODING 12564
SWIDTH 1000 0
DWIDTH 16 0
BBX 8 15 3 -2
BITMAP
03
06
0C
18
33
66
CC
1C
3C
6C
CC
0C
0C
0C
0C
ENDCHAR
STARTCHAR 3115
ENCODING 12565
SWIDTH 1000 0
DWIDTH 16 0
BBX 14 14 0 -2
BITMAP
1FFC
000C
000C
000C
1FFC
1800
1800
1800
1800
1800
1000
3000
2000
C000
ENDCHAR
STARTCHAR 3116
ENCODING 12566
SWIDTH 1000 0
DWIDTH 16 0
BBX 8 12 4 0
BITMAP
FF
C3
C3
C3
F3
DB
CF
C3
C3
C3
C3
FF
ENDCHAR
STARTCHAR 3117
ENCODING 12567
SWIDTH 1000 0
DWIDTH 16 0
BBX 11 14 2 -2
BITMAP
FFE0
1860
1860
1860
1860
1860
1840
1AC0
1980
1800
1800
1800
1800
1800
ENDCHAR
STARTCHAR 3118
ENCODING 12568
SWIDTH 1000 0
DWIDTH 16 0
BBX 13 15 1 -2
BITMAP
0400
0600
0600
FFF8
0C00
0C00
0C00
1FF0
0030
0030
0020
0060
0040
0680
0300
ENDCHAR
STARTCHAR 3119
ENCODING 12569
SWIDTH 1000 0
DWIDTH 16 0
BBX 12 13 2 0
BITMAP
0400
0600
0600
0600
0600
0400
0C00
0800
1800
3180
60C0
FFE0
0030
ENDCHAR
STARTCHAR 311A
ENCODING 12570
SWIDTH 1000 0
DWIDTH 16 0
BBX 11 15 3 -2
BITMAP
C060
60C0
3180
1B00
0600
0C00
0C00
0C00
0C00
0C00
0C00
0C00
0C00
0C00
0C00
ENDCHAR
STARTCHAR 311B
ENCODING 12571
SWIDTH 1000 0
DWIDTH 16 0
BBX 14 12 1 0
BITMAP
FFFC
0300
0300
0300
1E00
3000
6000
6000
6000
6018
3030
1FE0
ENDCHAR
STARTCHAR 311C
ENCODING 12572
SWIDTH 1000 0
DWIDTH 16 0
BBX 14 14 1 -1
BITMAP
0200
0300
0300
FFFC
0300
0300
1E00
3000
6000
6000
6000
6018
3030
1FE0
ENDCHAR
STARTCHAR 311D
ENCODING 12573
SWIDTH 1000 0
DWIDTH 16 0
BBX 13 12 1 0
BITMAP
1080
18C0
18C0
FFF8
18C0
18C0
18C0
1980
1980
1B00
1800
0FE0
ENDCHAR
STARTCHAR 311E
ENCODING 12574
SWIDTH 1000 0
DWIDTH 16 0
BBX 14 13 1 -1
BITMAP
FFFC
1B00
1B00
3300
3FF8
0318
0318
0318
0218
0618
0C10
1830
3060
ENDCHAR
STARTCHAR 311F
ENCODING 12575
SWIDTH 1000 0
DWIDTH 16 0
BBX 12 13 2 -1
BITMAP
F800
1800
1800
1800
0800
0C00
0C00
0400
0600
0300
0180
00C0
0070
ENDCHAR
STARTCHAR 3120
ENCODING 12576
SWIDTH 1000 0
DWIDTH 16 0
BBX 10 13 3 0
BITMAP
1000
1800
3100
3180
6100
4300
FE00
0C00
1800
3300
6180
FFC0
0040
ENDCHAR
STARTCHAR 3121
ENCODING 12577
SWIDTH 1000 0
DWIDTH 16 0
BBX 10 12 3 -1
BITMAP
FFC0
00C0
0180
2180
1300
0F00
0600
0600
0F00
1980
3000
6000
ENDCHAR
STARTCHAR 3122
ENCODING 12578
SWIDTH 1000 0
DWIDTH 16 0
BBX 12 14 2 -1
BITMAP
FFC0
30C0
30C0
30C0
2080
6180
7FF0
0030
0030
0030
0020
0060
00C0
0180
ENDCHAR
STARTCHAR 3123
ENCODING 12579
SWIDTH 1000 0
DWIDTH 16 0
BBX 11 14 3 -1
BITMAP
4000
6000
6000
6000
4000
C000
C000
FFE0
0060
0060
0060
0040
00C0
0180
ENDCHAR
STARTCHAR 3124
ENCODING 12580
SWIDTH 1000 0
DWIDTH 16 0
BBX 13 14 1 -1
BITMAP
0400
0600
0600
0600
FFF8
0780
0580
0D80
0D80
0980
1980
1980
3180
E0F8
ENDCHAR
STARTCHAR 3125
ENCODING 12581
SWIDTH 1000 0
DWIDTH 16 0
BBX 11 11 2 1
BITMAP
0400
0400
0400
0C00
0C00
0800
1800
3000
6000
C000
FFE0
ENDCHAR
STARTCHAR 3126
ENCODING 12582
SWIDTH 1000 0
DWIDTH 16 0
BBX 14 13 1 -1
BITMAP
0900
0D80
0D80
0D80
0D80
0D80
0D80
0D80
0D80
0980
1988
318C
E0FC
ENDCHAR
STARTCHAR 3127
ENCODING 12583
SWIDTH 1000 0
DWIDTH 16 0
BBX 2 15 7 -2
BITMAP
80
C0
C0
C0
C0
C0
C0
C0
C0
C0
C0
C0
C0
C0
C0
ENDCHAR
STARTCHAR 3128
ENCODING 12584
SWIDTH 1000 0
DWIDTH 16 0
BBX 12 14 1 -1
BITMAP
0020
0030
0030
1820
0C60
0640
03C0
0180
0180
03C0
0660
0C30
1800
E000
ENDCHAR
STARTCHAR 3129
ENCODING 12585
SWIDTH 1000 0
DWIDTH 16 0
BBX 12 10 2 1
BITMAP
0020
4030
6030
6030
6030
6030
C030
C0F0
FF30
0030
ENDCHAR
STARTCHAR 3220
ENCODING 12832
SWIDTH 1000 0
DWIDTH 16 0
BBX 13 14 2 -1
BITMAP
2020
4010
4010
8008
8008
8048
BFE8
8008
8008
8008
8008
4010
4010
2020
ENDCHAR
STARTCHAR 3221
ENCODING 12833
SWIDTH 1000 0
DWIDTH 16 0
BBX 13 14 2 -1
BITMAP
2020
4010
4090
9FC8
8008
8008
8008
8008
8008
8048
BFE8
4010
4010
2020
ENDCHAR
STARTCHAR 3222
ENCODING 12834
SWIDTH 1000 0
DWIDTH 16 0
BBX 13 14 2 -1
BITMAP
2020
4090
5FD0
8008
8008
8108
8F88
8008
8008
8048
BFE8
4010
4010
2020
ENDCHAR
STARTCHAR 3223
ENCODING 12835
SWIDTH 1000 0
DWIDTH 16 0
BBX 13 14 2 -1
BITMAP
2020
4010
6030
BFF8
A528
A528
A528
AD28
B1E8
A028
BFE8
6030
4010
2020
ENDCHAR
STARTCHAR 3224
ENCODING 12836
SWIDTH 1000 0
DWIDTH 16 0
BBX 13 14 2 -1
BITMAP
2020
4090
5FD0
8408
8488
9FC8
8488
8488
8488
84A8
BFE8
4010
4010
2020
ENDCHAR
STARTCHAR 3225
ENCODING 12837
SWIDTH 1000 0
DWIDTH 16 0
BBX 13 14 2 -1
BITMAP
2420
4610
4250
BFE8
8008
8108
8908
8988
8888
8888
9048
5050
4010
2020
ENDCHAR
STARTCHAR 3226
ENCODING 12838
SWIDTH 1000 0
DWIDTH 16 0
BBX 13 14 2 -1
BITMAP
2020
4410
4410
8408
84E8
8F88
B408
8408
8408
8408
8628
43D0
4010
2020
ENDCHAR
STARTCHAR 3227
ENCODING 12839
SWIDTH 1000 0
DWIDTH 16 0
BBX 13 14 2 -1
BITMAP
2220
4110
4910
8908
8908
8988
8888
8888
9088
90C8
A048
4050
4010
2020
ENDCHAR
STARTCHAR 3228
ENCODING 12840
SWIDTH 1000 0
DWIDTH 16 0
BBX 13 14 2 -1
BITMAP
2420
4410
4490
9FC8
8488
8488
8588
8508
8D08
8948
9168
61D0
4010
2020
ENDCHAR
STARTCHAR 3229
ENCODING 12841
SWIDTH 1000 0
DWIDTH 16 0
BBX 13 14 2 -1
BITMAP
2020
4210
4210
8208
8208
8248
BFE8
8208
8208
8208
8208
4210
4210
2020
ENDCHAR
STARTCHAR 4E00
ENCODING 19968
SWIDTH 1000 0
DWIDTH 16 0
BBX 13 2 2 6
BITMAP
0010
FFF8
ENDCHAR
STARTCHAR 4E01
ENCODING 19969
SWIDTH 1000 0
DWIDTH 16 0
BBX 13 16 2 -2
BITMAP
0010
FFF8
0300
0300
0300
0300
0300
0300
0300
0300
0300
0300
0300
0B00
0700
0200
ENDCHAR
STARTCHAR 4E03
ENCODING 19971
SWIDTH 1000 0
DWIDTH 16 0
BBX 15 14 1 -1
BITMAP
0200
0300
0300
0300
0304
033E
0FC0
F300
0300
0300
0304
0304
03FE
01FC
ENDCHAR
STARTCHAR 4E07
ENCODING 19975
SWIDTH 1000 0
DWIDTH 16 0
BBX 15 15 1 -2
BITMAP
0004
FFFE
0600
0600
0610
07F8
0630
0630
0C30
0C30
1830
1830
3030
60E0
8040
ENDCHAR
STARTCHAR 4E08
ENCODING 19976
SWIDTH 1000 0
DWIDTH 16 0
BBX 15 16 1 -2
BITMAP
0180
0184
7FFE
0180
0180
2180
2180
1180
1300
0B00
0600
0700
0CC0
1870
603E
801C
ENDCHAR
STARTCHAR 4E09
ENCODING 19977
SWIDTH 1000 0
DWIDTH 16 0
BBX 15 13 1 0
BITMAP
0010
3FF8
0000
0000
0000
0020
1FF0
0000
0000
0000
0000
0004
FFFE
ENDCHAR
STARTCHAR 4E0A
ENCODING 19978
SWIDTH 1000 0
DWIDTH 16 0
BBX 15 14 1 -1
BITMAP
0200
0300
0300
0300
0320
03F0
0300
0300
0300
0300
0300
0300
0304
FFFE
ENDCHAR
STARTCHAR 4E0B
ENCODING 19979
SWIDTH 1000 0
DWIDTH 16 0
BBX 15 15 1 -2
BITMAP
0004
FFFE
0300
0300
0300
03C0
0370
0338
0310
0300
0300
0300
0300
0300
0200
ENDCHAR
STARTCHAR 4E0C
ENCODING 19980
SWIDTH 1000 0
DWIDTH 16 0
BBX 15 15 1 -2
BITMAP
0004
FFFE
0C80
0CC0
0CC0
0CC0
0CC0
0CC0
0CC0
0CC0
0CC0
18C0
30C0
60C0
80C0
ENDCHAR
STARTCHAR 4E0D
ENCODING 19981
SWIDTH 1000 0
DWIDTH 16 0
BBX 15 16 1 -2
BITMAP
0004
FFFE
0180
0180
0300
0340
07E0
0DB0
1998
319C
618E
8184
0180
0180
0180
0180
ENDCHAR
STARTCHAR 4E0E
ENCODING 19982
SWIDTH 1000 0
DWIDTH 16 0
BBX 15 16 1 -2
BITMAP
1000
1800
1808
1FFC
1800
1800
1804
3FFE
100C
000C
004C
FFEC
000C
000C
0038
0010
ENDCHAR
STARTCHAR 4E10
ENCODING 19984
SWIDTH 1000 0
DWIDTH 16 0
BBX 14 16 2 -2
BITMAP
0010
FFF8
0600
4640
67E0
6600
6608
7FFC
C018
0018
0018
0018
0018
0118
00F0
0060
ENDCHAR
STARTCHAR 4E11
ENCODING 19985
SWIDTH 1000 0
DWIDTH 16 0
BBX 15 15 1 -2
BITMAP
0008
3FFC
0618
0618
0618
0638
0630
3FF0
0C30
0C30
0C30
1860
1860
1864
FFFE
ENDCHAR
STARTCHAR 4E13
ENCODING 19987
SWIDTH 1000 0
DWIDTH 16 0
BBX 15 16 1 -2
BITMAP
0100
0180
0310
3FF8
0300
0604
FFFE
0600
0C10
1FF8
0830
0060
0CC0
0380
01C0
0080
ENDCHAR
STARTCHAR 4E14
ENCODING 19988
SWIDTH 1000 0
DWIDTH 16 0
BBX 15 14 1 -1
BITMAP
1020
1FF0
1860
1860
1860
1FE0
1860
1860
1FE0
1860
1860
1860
1864
FFFE
ENDCHAR
STARTCHAR 4E15
ENCODING 19989
SWIDTH 1000 0
DWIDTH 16 0
BBX 15 16 1 -2
BITMAP
0008
7FFC
0180
0180
0300
0340
07E0
0DB0
1998
319C
618E
8184
0180
0180
0184
FFFE
ENDCHAR
STARTCHAR 4E16
ENCODING 19990
SWIDTH 1000 0
DWIDTH 16 0
BBX 15 16 1 -2
BITMAP
2220
3330
3330
3330
3334
FFFE
3330
3330
3330
3330
33F0
3220
3000
3008
7FFC
2000
ENDCHAR
STARTCHAR 4E18
ENCODING 19992
SWIDTH 1000 0
DWIDTH 16 0
BBX 15 16 1 -2
BITMAP
0010
01F8
1FE0
1800
1800
1800
1808
1FFC
18C0
18C0
18C0
18C0
18C0
18C0
18C4
FFFE
ENDCHAR
STARTCHAR 4E19
ENCODING 19993
SWIDTH 1000 0
DWIDTH 16 0
BBX 15 16 1 -2
BITMAP
0004
FFFE
0300
0300
4304
7FFE
630C
630C
638C
66CC
666C
6C7C
702C
600C
603C
6008
ENDCHAR
STARTCHAR 4E1A
ENCODING 19994
SWIDTH 1000 0
DWIDTH 16 0
BBX 15 15 1 -1
BITMAP
0880
0CC0
0CC0
0CC8
8CCC
4CCC
6CD8
6CD8
3CD0
3CF0
2CE0
0CC0
0CC0
0CC4
FFFE
ENDCHAR
STARTCHAR 4E1B
ENCODING 19995
SWIDTH 1000 0
DWIDTH 16 0
BBX 15 16 1 -2
BITMAP
1040
1870
1860
1860
1860
1860
1860
1860
1860
34D0
36D8
638C
410E
8204
0004
FFFE
ENDCHAR
STARTCHAR 4E1C
ENCODING 19996
SWIDTH 1000 0
DWIDTH 16 0
BBX 14 16 1 -2
BITMAP
0300
0608
7FFC
0C00
0D00
1980
1990
3FF8
1180
09A0
1D90
1998
319C
618C
8788
0100
ENDCHAR
STARTCHAR 4E1D
ENCODING 19997
SWIDTH 1000 0
DWIDTH 16 0
BBX 15 15 1 -1
BITMAP
0820
0C30
1860
1040
34D0
2698
7DF0
18A0
3060
20C0
7DF8
2080
0000
0004
FFFE
ENDCHAR
STARTCHAR 4E1E
ENCODING 19998
SWIDTH 1000 0
DWIDTH 16 0
BBX 15 16 1 -2
BITMAP
0020
1FF0
0060
00C0
0380
0584
7DAE
0FF8
07F0
0D90
1998
3198
618E
8184
0188
3FFC
ENDCHAR
STARTCHAR 4E22
ENCODING 20002
SWIDTH 1000 0
DWIDTH 16 0
BBX 14 16 1 -2
BITMAP
0060
0FF0
7F00
0300
0320
3FF0
0300
0308
FFFC
0300
0680
0CC0
1860
31F0
7F38
3010
ENDCHAR
STARTCHAR 4E24
ENCODING 20004
SWIDTH 1000 0
DWIDTH 16 0
BBX 15 16 1 -2
BITMAP
0004
FFFE
06C0
06C0
46C4
7FFE
66CC
66CC
67EC
6DBC
693C
722C
600C
602C
601C
4008
ENDCHAR
STARTCHAR 4E25
ENCODING 20005
SWIDTH 1000 0
DWIDTH 16 0
BBX 15 16 1 -2
BITMAP
0004
7FFE
06C8
36CC
1ED8
2EE4
3FFE
3000
3000
3000
3000
3000
2000
6000
4000
8000
ENDCHAR
STARTCHAR 4E27
ENCODING 20007
SWIDTH 1000 0
DWIDTH 16 0
BBX 15 16 1 -2
BITMAP
0300
0310
7FF8
2310
1B38
0F60
0B44
FFFE
1B08
1B1C
1990
18C0
1860
1F30
3C1E
180C
ENDCHAR
STARTCHAR 4E28
ENCODING 20008
SWIDTH 1000 0
DWIDTH 16 0
BBX 2 16 7 -2
BITMAP
C0
C0
C0
C0
C0
C0
C0
C0
C0
C0
C0
C0
C0
C0
C0
C0
ENDCHAR
STARTCHAR 4E2A
ENCODING 20010
SWIDTH 1000 0
DWIDTH 16 0
BBX 14 16 2 -2
BITMAP
0200
0700
0600
0D00
0D80
1AC0
3370
633C
8318
0300
0300
0300
0300
0300
0300
0200
ENDCHAR
STARTCHAR 4E2B
ENCODING 20011
SWIDTH 1000 0
DWIDTH 16 0
BBX 12 16 3 -2
BITMAP
0040
8060
60F0
30C0
3980
1200
0600
0600
0600
0600
0600
0600
0600
0600
0600
0400
ENDCHAR
STARTCHAR 4E2C
ENCODING 20012
SWIDTH 1000 0
DWIDTH 16 0
BBX 8 16 4 -2
BITMAP
06
06
06
66
36
36
1E
06
07
0E
9E
76
66
46
06
04
ENDCHAR
STARTCHAR 4E2D
ENCODING 20013
SWIDTH 1000 0
DWIDTH 16 0
BBX 13 16 2 -2
BITMAP
0400
0600
0600
8610
FFF8
C630
C630
C630
C630
FFF0
8620
0600
0600
0600
0600
0400
ENDCHAR
STARTCHAR 4E30
ENCODING 20016
SWIDTH 1000 0
DWIDTH 16 0
BBX 14 16 1 -2
BITMAP
0200
0380
0310
7FF8
0300
0300
0320
3FF0
0300
0300
0308
FFFC
0300
0300
0300
0200
ENDCHAR
STARTCHAR 4E32
ENCODING 20018
SWIDTH 1000 0
DWIDTH 16 0
BBX 13 16 3 -2
BITMAP
0600
4620
7FF0
6660
6660
7FE0
4640
8610
FFF8
C630
C630
C630
FFF0
8620
0600
0400
ENDCHAR
STARTCHAR 4E34
ENCODING 20020
SWIDTH 1000 0
DWIDTH 16 0
BBX 15 16 1 -2
BITMAP
1040
18E0
18C4
99FE
D9C0
DB70
DA3C
DC08
DA04
DBFE
DB6C
9B6C
1B6C
1B6C
1BFC
1208
ENDCHAR
STARTCHAR 4E36
ENCODING 20022
SWIDTH 1000 0
DWIDTH 16 0
BBX 6 8 4 4
BITMAP
80
40
60
78
3C
3C
18
10
ENDCHAR
STARTCHAR 4E38
ENCODING 20024
SWIDTH 1000 0
DWIDTH 16 0
BBX 14 16 2 -2
BITMAP
0C00
0C00
0C00
0C20
7FF0
0C60
0C60
1C60
0F60
0FE0
0D60
1860
1868
306C
607C
8038
ENDCHAR
STARTCHAR 4E39
ENCODING 20025
SWIDTH 1000 0
DWIDTH 16 0
BBX 15 16 1 -2
BITMAP
1010
1FF8
1830
1A30
1B30
19B0
1930
1834
FFFE
1830
1830
3030
3030
20B0
2070
4020
ENDCHAR
STARTCHAR 4E3A
ENCODING 20026
SWIDTH 1000 0
DWIDTH 16 0
BBX 15 16 1 -2
BITMAP
0200
2300
3300
1B00
1304
7FFE
030C
030C
078C
06CC
066C
0C4C
0C0C
180C
3078
C010
ENDCHAR
STARTCHAR 4E3B
ENCODING 20027
SWIDTH 1000 0
DWIDTH 16 0
BBX 15 15 1 -1
BITMAP
0600
0380
0110
3FF8
0300
0300
0300
0320
1FF0
0300
0300
0300
0300
0304
FFFE
ENDCHAR
STARTCHAR 4E3D
ENCODING 20029
SWIDTH 1000 0
DWIDTH 16 0
BBX 15 16 1 -2
BITMAP
0004
FFFE
0000
4284
7FFE
66CC
66CC
76EC
7EFC
6EDC
66CC
66CC
66CC
66CC
6EDC
4488
ENDCHAR
STARTCHAR 4E3E
ENCODING 20030
SWIDTH 1000 0
DWIDTH 16 0
BBX 15 16 1 -2
BITMAP
2410
1318
1DB0
0960
7FFC
06C0
0E60
1B30
331C
6FCE
8304
0320
3FF0
0300
0300
0300
ENDCHAR
STARTCHAR 4E3F
ENCODING 20031
SWIDTH 1000 0
DWIDTH 16 0
BBX 8 16 2 -2
BITMAP
03
03
03
03
03
03
03
03
03
07
06
0C
18
30
60
80
ENDCHAR
STARTCHAR 4E43
ENCODING 20035
SWIDTH 1000 0
DWIDTH 16 0
BBX 14 16 1 -2
BITMAP
0010
7FF8
1830
1830
1860
18C0
1830
1818
180C
180C
180C
300C
300C
204C
40F8
8030
ENDCHAR
STARTCHAR 4E45
ENCODING 20037
SWIDTH 1000 0
DWIDTH 16 0
BBX 15 16 1 -2
BITMAP
0400
0600
0C20
0FF0
0C60
1860
30C0
40C0
0180
01C0
0360
0620
0C30
181C
300E
C004
ENDCHAR
STARTCHAR 4E47
ENCODING 20039
SWIDTH 1000 0
DWIDTH 16 0
BBX 15 16 1 -2
BITMAP
007C
0FE0
7F00
0300
0300
0300
0304
FFFE
0300
0300
0300
0304
0304
0306
03FE
01FC
ENDCHAR
STARTCHAR 4E48
ENCODING 20040
SWIDTH 1000 0
DWIDTH 16 0
BBX 15 16 1 -2
BITMAP
0100
0380
0300
0600
0620
0C70
1860
30C0
61A0
8190
0318
060C
0C0C
1FFE
3E06
1004
ENDCHAR
STARTCHAR 4E49
ENCODING 20041
SWIDTH 1000 0
DWIDTH 16 0
BBX 15 16 1 -2
BITMAP
0400
0210
2318
2198
1130
1030
0830
0860
0460
06C0
0380
0380
06C0
0C70
303E
C00C
ENDCHAR
STARTCHAR 4E4B
ENCODING 20043
SWIDTH 1000 0
DWIDTH 16 0
BBX 15 15 1 -1
BITMAP
0600
0380
0110
3FF8
0030
0060
00C0
0180
0300
0C00
1800
3C00
E600
43FE
01FC
ENDCHAR
STARTCHAR 4E4C
ENCODING 20044
SWIDTH 1000 0
DWIDTH 16 0
BBX 15 16 1 -2
BITMAP
0E00
1C10
3FF8
7030
B030
3070
3024
3FFE
200C
000C
002C
FFFC
000C
000C
003C
0018
ENDCHAR
STARTCHAR 4E4D
ENCODING 20045
SWIDTH 1000 0
DWIDTH 16 0
BBX 15 16 1 -2
BITMAP
1000
3800
3004
3FFE
6600
4600
8610
07F8
0600
0608
07FC
0600
0600
0600
0600
0400
ENDCHAR
STARTCHAR 4E4E
ENCODING 20046
SWIDTH 1000 0
DWIDTH 16 0
BBX 14 16 2 -2
BITMAP
00C0
03E0
0F00
7B20
2330
3360
1B40
1388
FFFC
0300
0300
0300
0300
0B00
0700
0200
ENDCHAR
STARTCHAR 4E4F
ENCODING 20047
SWIDTH 1000 0
DWIDTH 16 0
BBX 15 16 1 -2
BITMAP
0060
03F8
7F80
0200
0180
00C8
3FFC
0038
0070
01E0
0780
1E00
3800
6E00
E7FE
43FC
ENDCHAR
STARTCHAR 4E50
ENCODING 20048
SWIDTH 1000 0
DWIDTH 16 0
BBX 15 16 1 -2
BITMAP
0020
11F0
1F80
1900
1980
1980
1990
7FF8
0180
09A0
1D90
1998
318C
6586
8384
0100
ENDCHAR
STARTCHAR 4E52
ENCODING 20050
SWIDTH 1000 0
DWIDTH 16 0
BBX 15 16 1 -2
BITMAP
0020
07F0
3FE0
3000
3008
3FFC
30C0
30C0
30C4
FFFE
0800
1C00
1800
3000
4000
8000
ENDCHAR
STARTCHAR 4E53
ENCODING 20051
SWIDTH 1000 0
DWIDTH 16 0
BBX 15 16 1 -2
BITMAP
0020
07F0
3FE0
3000
3008
3FFC
30C0
30C0
30C4
FFFE
0080
0060
0038
001C
001C
0008
ENDCHAR
STARTCHAR 4E54
ENCODING 20052
SWIDTH 1000 0
DWIDTH 16 0
BBX 15 16 1 -2
BITMAP
00F8
7FE0
0600
0600
0C04
FFFE
1860
3038
785E
986C
1860
1860
1860
1060
2060
4040
ENDCHAR
STARTCHAR 4E56
ENCODING 20054
SWIDTH 1000 0
DWIDTH 16 0
BBX 14 16 2 -2
BITMAP
01C0
0FF0
7B00
0308
FFFC
1340
1B68
FB7C
1B70
1B68
FB7C
5B38
0300
0300
0300
0300
ENDCHAR
STARTCHAR 4E58
ENCODING 20056
SWIDTH 1000 0
DWIDTH 16 0
BBX 14 16 2 -2
BITMAP
01C0
7FF0
0300
1B68
FB7C
1B70
1B68
FB7C
47B8
0F80
0F40
1B60
3338
631C
8308
0300
ENDCHAR
STARTCHAR 4E59
ENCODING 20057
SWIDTH 1000 0
DWIDTH 16 0
BBX 14 14 2 -1
BITMAP
0040
7FE0
00C0
0180
0300
0600
0C00
1800
3000
6008
C008
C00C
FFFC
7FF8
ENDCHAR
STARTCHAR 4E5C
ENCODING 20060
SWIDTH 1000 0
DWIDTH 16 0
BBX 15 16 1 -2
BITMAP
1000
1800
1800
1808
187C
1BD8
1E18
F818
1818
1898
1878
1834
1804
1806
1FFE
0FFC
ENDCHAR
STARTCHAR 4E5D
ENCODING 20061
SWIDTH 1000 0
DWIDTH 16 0
BBX 15 16 1 -2
BITMAP
0400
0600
0600
0620
7FF0
0660
0660
0660
0660
0C60
0C60
1860
1864
3064
607E
803C
ENDCHAR
STARTCHAR 4E5E
ENCODING 20062
SWIDTH 1000 0
DWIDTH 16 0
BBX 15 16 1 -2
BITMAP
1800
3008
6FFC
4000
8000
0020
3FF0
0060
00F0
01C0
0300
0600
0800
1804
0FFE
07F8
ENDCHAR
STARTCHAR 4E5F
ENCODING 20063
SWIDTH 1000 0
DWIDTH 16 0
BBX 15 16 1 -2
BITMAP
0200
0300
0300
2300
3330
33F8
3F30
F330
3330
3370
3320
3204
3004
3006
3FFE
1FFC
ENDCHAR
STARTCHAR 4E60
ENCODING 20064
SWIDTH 1000 0
DWIDTH 16 0
BBX 14 16 1 -2
BITMAP
0008
7FFC
0018
1018
0C18
0618
0618
0438
00D8
0398
0F18
3C18
F018
4018
0078
0010
ENDCHAR
STARTCHAR 4E61
ENCODING 20065
SWIDTH 1000 0
DWIDTH 16 0
BBX 14 16 1 -2
BITMAP
0200
0700
0E20
1830
3060
7FC0
2188
060C
1818
7FF0
2060
00C0
0380
0700
1C00
E000
ENDCHAR
STARTCHAR 4E66
ENCODING 20070
SWIDTH 1000 0
DWIDTH 16 0
BBX 15 16 1 -2
BITMAP
0310
030C
0314
3FF8
0330
0330
0330
0334
FFFE
030C
030C
030C
030C
0338
0310
0300
ENDCHAR
STARTCHAR 4E69
ENCODING 20073
SWIDTH 1000 0
DWIDTH 16 0
BBX 15 16 1 -2
BITMAP
2080
30C0
34C0
3EC0
30C0
30C0
30C0
30C0
B4C0
FEC0
CCC0
CCC0
CCC4
CCC4
FC7E
CC3C
ENDCHAR
STARTCHAR 4E70
ENCODING 20080
SWIDTH 1000 0
DWIDTH 16 0
BBX 15 16 1 -2
BITMAP
0008
7FFC
0118
21D8
1DB0
09A0
4180
3180
3B00
1304
FFFE
0300
06C0
0C78
183E
601C
ENDCHAR
STARTCHAR 4E71
ENCODING 20081
SWIDTH 1000 0
DWIDTH 16 0
BBX 15 16 1 -2
BITMAP
0C00
7E60
1860
1860
1860
FE60
1860
1860
5A60
7F60
6660
6660
6660
6662
7E7E
443C
ENDCHAR
STARTCHAR 4E73
ENCODING 20083
SWIDTH 1000 0
DWIDTH 16 0
BBX 14 16 1 -2
BITMAP
0E80
3FC0
CAC0
5CC0
2CC0
7EC0
04C0
0CC0
0CC0
7EC0
ECC0
4CC0
0CC8
0CC8
38FC
1078
ENDCHAR
STARTCHAR 4E7E
ENCODING 20094
SWIDTH 1000 0
DWIDTH 16 0
BBX 15 16 1 -2
BITMAP
3040
30C4
FEFE
30C0
B480
FD00
CC08
FCFC
CC18
FC18
B030
3020
FC60
30C4
307E
303C
ENDCHAR
STARTCHAR 4E86
ENCODING 20102
SWIDTH 1000 0
DWIDTH 16 0
BBX 11 16 3 -2
BITMAP
0040
FFE0
00C0
0180
0300
0600
0600
0600
0600
0600
0600
0600
0600
2600
1E00
0C00
ENDCHAR
STARTCHAR 4E88
ENCODING 20104
SWIDTH 1000 0
DWIDTH 16 0
BBX 15 16 1 -2
BITMAP
0020
3FF0
0060
0980
0700
0204
FFFE
030C
0310
0300
0300
0300
0300
0300
0E00
0400
ENDCHAR
STARTCHAR 4E89
ENCODING 20105
SWIDTH 1000 0
DWIDTH 16 0
BBX 15 16 1 -2
BITMAP
0400
0620
0FF0
1860
30C8
7FFC
8318
0318
FFFE
0318
0318
3FF8
0310
0300
0F00
0200
ENDCHAR
STARTCHAR 4E8B
ENCODING 20107
SWIDTH 1000 0
DWIDTH 16 0
BBX 15 16 1 -2
BITMAP
0300
0308
FFFC
2310
3FF8
3330
3FF0
2320
7FF8
0318
FFFE
0318
7FF8
0310
0F00
0200
ENDCHAR
STARTCHAR 4E8C
ENCODING 20108
SWIDTH 1000 0
DWIDTH 16 0
BBX 15 11 1 1
BITMAP
0010
3FF8
0000
0000
0000
0000
0000
0000
0000
0004
FFFE
ENDCHAR
STARTCHAR 4E8D
ENCODING 20109
SWIDTH 1000 0
DWIDTH 16 0
BBX 15 16 1 -2
BITMAP
0020
1FF0
0000
0000
0004
FFFE
0180
0180
0180
0180
0180
0180
0180
0180
0780
0300
ENDCHAR
STARTCHAR 4E8E
ENCODING 20110
SWIDTH 1000 0
DWIDTH 16 0
BBX 14 16 2 -2
BITMAP
0020
3FF0
0300
0300
0300
0308
FFFC
0300
0300
0300
0300
0300
0300
0300
0F00
0200
ENDCHAR
STARTCHAR 4E8F
ENCODING 20111
SWIDTH 1000 0
DWIDTH 16 0
BBX 15 16 1 -2
BITMAP
0020
1FF0
0000
0000
0004
FFFE
0600
0C00
0C10
1FF8
0830
0030
0060
0260
01C0
0080
ENDCHAR
STARTCHAR 4E91
ENCODING 20113
SWIDTH 1000 0
DWIDTH 16 0
BBX 15 16 1 -2
BITMAP
0020
3FF0
0000
0000
0000
0004
FFFE
0300
0680
0640
0C60
1830
1030
3FF8
7E18
2010
ENDCHAR
STARTCHAR 4E92
ENCODING 20114
SWIDTH 1000 0
DWIDTH 16 0
BBX 15 15 1 -1
BITMAP
0008
7FFC
0600
0600
0C20
0FF0
0C60
0C60
18C0
18C0
3FC0
1180
0180
0304
FFFE
ENDCHAR
STARTCHAR 4E93
ENCODING 20115
SWIDTH 1000 0
DWIDTH 16 0
BBX 15 16 1 -2
BITMAP
0010
3FF8
0000
0000
0004
FFFE
0CC0
0CC0
0CC0
0CC0
0CC0
0CC0
18C0
30C0
60C0
80C0
ENDCHAR
STARTCHAR 4E94
ENCODING 20116
SWIDTH 1000 0
DWIDTH 16 0
BBX 15 15 1 -1
BITMAP
0008
7FFC
0600
0600
0600
0620
7FF0
0660
0660
0660
0C60
0C60
0C60
0C64
FFFE
ENDCHAR
STARTCHAR 4E95
ENCODING 20117
SWIDTH 1000 0
DWIDTH 16 0
BBX 15 16 1 -2
BITMAP
0840
0C60
0C60
3FF8
0C60
0C60
0C60
0C64
FFFE
0C60
0C60
1860
1860
3060
2060
4040
ENDCHAR
STARTCHAR 4E98
ENCODING 20120
SWIDTH 1000 0
DWIDTH 16 0
BBX 15 16 1 -2
BITMAP
0008
7FFC
0000
0000
1010
1FF8
1830
1830
1FF0
1830
1830
1FF0
1010
0000
0000
FFFE
ENDCHAR
STARTCHAR 4E9A
ENCODING 20122
SWIDTH 1000 0
DWIDTH 16 0
BBX 15 15 1 -1
BITMAP
0008
7FFC
0CC0
0CC0
0CC8
8CCC
4CCC
6CD8
6CD8
3CF0
3CE0
2CC0
0CC0
0CC4
FFFE
ENDCHAR
STARTCHAR 4E9B
ENCODING 20123
SWIDTH 1000 0
DWIDTH 16 0
BBX 15 16 1 -2
BITMAP
0880
0CC0
4CC8
6FDC
6CF8
6CE4
6CC4
6FC6
FCFE
607C
0000
1FE0
0000
0000
0004
FFFE
ENDCHAR
STARTCHAR 4E9F
ENCODING 20127
SWIDTH 1000 0
DWIDTH 16 0
BBX 15 16 1 -2
BITMAP
0020
1FF0
0060
00C0
0380
0184
45BE
7F86
6DA4
6D9C
6D98
7DBC
45AE
01C4
0180
FFFE
ENDCHAR
STARTCHAR 4EA0
ENCODING 20128
SWIDTH 1000 0
DWIDTH 16 0
BBX 15 5 1 6
BITMAP
0600
0300
0300
0384
FFFE
ENDCHAR
STARTCHAR 4EA1
ENCODING 20129
SWIDTH 1000 0
DWIDTH 16 0
BBX 15 16 1 -2
BITMAP
0600
0380
0304
FFFE
3000
3000
3000
3000
3000
3000
3000
3000
3000
3010
3FF8
3000
ENDCHAR
STARTCHAR 4EA2
ENCODING 20130
SWIDTH 1000 0
DWIDTH 16 0
BBX 15 16 1 -2
BITMAP
0600
0380
0104
FFFE
0820
0FF0
0C60
0C60
0C60
0C60
0C60
0C60
1864
1864
307E
C03C
ENDCHAR
STARTCHAR 4EA4
ENCODING 20132
SWIDTH 1000 0
DWIDTH 16 0
BBX 15 16 1 -2
BITMAP
0200
0308
7FFC
0840
0C20
1830
3058
287C
44C8
06C0
0380
0180
03C0
0670
183E
E00C
ENDCHAR
STARTCHAR 4EA5
ENCODING 20133
SWIDTH 1000 0
DWIDTH 16 0
BBX 13 16 2 -2
BITMAP
0400
0600
0610
FFF8
0600
0C80
19C0
3F80
1300
0640
0CE0
1980
33C0
C660
0C30
3020
ENDCHAR
STARTCHAR 4EA6
ENCODING 20134
SWIDTH 1000 0
DWIDTH 16 0
BBX 15 16 1 -2
BITMAP
0200
0180
0184
FFFE
0C60
2C60
3C70
6C78
EC6C
CC6E
4C6E
0C64
0C60
1860
3060
4060
ENDCHAR
STARTCHAR 4EA7
ENCODING 20135
SWIDTH 1000 0
DWIDTH 16 0
BBX 15 16 1 -2
BITMAP
0600
0380
0108
7FFC
0820
0E70
24C4
3FFE
3000
3000
3000
3000
6000
6000
4000
8000
ENDCHAR
STARTCHAR 4EA8
ENCODING 20136
SWIDTH 1000 0
DWIDTH 16 0
BBX 14 16 2 -2
BITMAP
0200
0308
FFFC
1020
1FF0
1860
1FE0
1050
7FF8
0070
00C0
0180
0180
0980
0780
0300
ENDCHAR
STARTCHAR 4EA9
ENCODING 20137
SWIDTH 1000 0
DWIDTH 16 0
BBX 14 16 1 -2
BITMAP
0600
0308
FFFC
0000
2010
3FF8
3330
3330
3330
3FF0
3330
3330
3330
3330
3FF0
2020
ENDCHAR
STARTCHAR 4EAB
ENCODING 20139
SWIDTH 1000 0
DWIDTH 16 0
BBX 15 16 1 -2
BITMAP
0100
0184
7FFE
0810
0FF8
0C30
0FF0
0810
1FF0
0060
00C4
FFFE
0180
0980
0780
0300
ENDCHAR
STARTCHAR 4EAC
ENCODING 20140
SWIDTH 1000 0
DWIDTH 16 0
BBX 14 16 1 -2
BITMAP
0600
0308
FFFC
0000
1020
1FF0
1860
1860
1FE0
1240
1B40
1B20
3330
2318
4710
0200
ENDCHAR
STARTCHAR 4EAD
ENCODING 20141
SWIDTH 1000 0
DWIDTH 16 0
BBX 15 16 1 -2
BITMAP
0200
0190
3FF8
0000
1FF0
1830
1FF0
1010
4004
FFFE
C026
5FF4
0180
0180
0780
0300
ENDCHAR
STARTCHAR 4EAE
ENCODING 20142
SWIDTH 1000 0
DWIDTH 16 0
BBX 15 16 1 -2
BITMAP
0300
0188
7FFC
1010
1FF8
1830
1FF0
5024
7FFE
C82C
8FF8
0C60
1C64
1864
307E
403C
ENDCHAR
STARTCHAR 4EB2
ENCODING 20146
SWIDTH 1000 0
DWIDTH 16 0
BBX 14 16 1 -2
BITMAP
0600
0310
7FF8
1860
0CC0
0988
FFFC
0300
0310
7FF8
1340
1B20
3338
631C
8F08
0200
ENDCHAR
STARTCHAR 4EB3
ENCODING 20147
SWIDTH 1000 0
DWIDTH 16 0
BBX 15 16 1 -2
BITMAP
0300
3FF8
0FE0
0C60
0FE0
4844
FFFE
C04C
80E8
01C0
0F80
0300
7FF4
0304
03FE
01FC
ENDCHAR
STARTCHAR 4EB5
ENCODING 20149
SWIDTH 1000 0
DWIDTH 16 0
BBX 15 16 1 -2
BITMAP
0180
7FFC
1990
7FF8
19B0
3FB4
59F6
3B3E
161C
0A08
1D9C
3CB8
6C60
8F38
0E1C
0408
ENDCHAR
STARTCHAR 4EBA
ENCODING 20154
SWIDTH 1000 0
DWIDTH 16 0
BBX 15 16 1 -2
BITMAP
0200
0380
0300
0300
0300
0300
0680
0680
06C0
0C40
0C60
1830
3038
201C
400E
8004
ENDCHAR
STARTCHAR 4EBB
ENCODING 20155
SWIDTH 1000 0
DWIDTH 16 0
BBX 8 16 3 -2
BITMAP
02
06
0F
1C
38
78
98
18
18
18
18
18
18
18
18
18
ENDCHAR
STARTCHAR 4EBF
ENCODING 20159
SWIDTH 1000 0
DWIDTH 16 0
BBX 15 16 1 -2
BITMAP
1000
1804
3BFE
3006
600C
7018
B030
3060
30C0
3180
3300
3304
3604
3606
33FE
31FC
ENDCHAR
STARTCHAR 4EC0
ENCODING 20160
SWIDTH 1000 0
DWIDTH 16 0
BBX 15 16 1 -2
BITMAP
1040
1860
1860
3060
2060
7064
77FE
B060
3060
3060
3060
3060
3060
3060
3060
2040
ENDCHAR
STARTCHAR 4EC1
ENCODING 20161
SWIDTH 1000 0
DWIDTH 16 0
BBX 15 16 1 -2
BITMAP
0800
1C00
1808
37FC
6000
B000
3000
3000
3000
3000
3000
3000
3004
3FFE
3000
3000
ENDCHAR
STARTCHAR 4EC2
ENCODING 20162
SWIDTH 1000 0
DWIDTH 16 0
BBX 15 16 1 -2
BITMAP
0880
1CC0
18C0
30C4
67FE
B0CC
30CC
30CC
30CC
30CC
31CC
318C
330C
3658
3C38
2810
ENDCHAR
STARTCHAR 4EC3
ENCODING 20163
SWIDTH 1000 0
DWIDTH 16 0
BBX 15 16 1 -2
BITMAP
0800
1C04
1BFE
3030
6030
B030
3030
3030
3030
3030
3030
3030
3030
30B0
3070
3020
ENDCHAR
STARTCHAR 4EC4
ENCODING 20164
SWIDTH 1000 0
DWIDTH 16 0
BBX 15 16 1 -2
BITMAP
4008
7FFC
6100
6180
6180
6180
6180
6180
6180
6180
61C0
63C0
6760
6E30
581E
A00C
ENDCHAR
STARTCHAR 4EC5
ENCODING 20165
SWIDTH 1000 0
DWIDTH 16 0
BBX 15 16 1 -2
BITMAP
1000
1808
1BFC
3018
2218
7218
7130
B130
30B0
30E0
3040
30E0
31B0
331C
360E
2804
ENDCHAR
STARTCHAR 4EC6
ENCODING 20166
SWIDTH 1000 0
DWIDTH 16 0
BBX 15 16 1 -2
BITMAP
08C0
1CC0
18C0
30C0
60C0
B0E0
30D0
30D8
30CC
30CE
30C4
30C0
30C0
30C0
30C0
3080
ENDCHAR
STARTCHAR 4EC7
ENCODING 20167
SWIDTH 1000 0
DWIDTH 16 0
BBX 15 16 1 -2
BITMAP
0900
1D80
1980
3180
6190
B7F8
31B0
31B0
31B0
31B0
31B0
3330
3334
3634
343E
281C
ENDCHAR
STARTCHAR 4EC9
ENCODING 20169
SWIDTH 1000 0
DWIDTH 16 0
BBX 15 16 1 -2
BITMAP
0910
1DF8
19B0
31B0
61B0
B1B0
31B0
31B0
31B0
31B0
31B0
31B0
3334
3334
363E
281C
ENDCHAR
STARTCHAR 4ECA
ENCODING 20170
SWIDTH 1000 0
DWIDTH 16 0
BBX 15 16 1 -2
BITMAP
0100
0180
0380
06C0
0C60
1A30
3118
618E
8124
1FF0
0060
0060
00C0
00C0
0180
0180
ENDCHAR
STARTCHAR 4ECB
ENCODING 20171
SWIDTH 1000 0
DWIDTH 16 0
BBX 15 16 1 -2
BITMAP
0100
0180
0300
06C0
0C60
1838
301E
C844
0C60
0C60
0C60
0C60
0C60
1860
1060
2040
ENDCHAR
STARTCHAR 4ECD
ENCODING 20173
SWIDTH 1000 0
DWIDTH 16 0
BBX 15 16 1 -2
BITMAP
1008
1BFC
1998
3198
2198
7190
71A4
B1BE
318C
318C
330C
330C
330C
360C
3438
2810
ENDCHAR
STARTCHAR 4ECE
ENCODING 20174
SWIDTH 1000 0
DWIDTH 16 0
BBX 15 16 1 -2
BITMAP
1040
1C70
1860
1860
1860
1860
1860
1860
1860
1860
1C70
36D0
33D8
618C
410E
8204
ENDCHAR
STARTCHAR 4ED1
ENCODING 20177
SWIDTH 1000 0
DWIDTH 16 0
BBX 15 16 1 -2
BITMAP
0100
0380
0300
0680
0C60
1830
303C
6C4E
8CE4
0DC0
0D80
0F00
1C00
0C08
0FFC
03F8
ENDCHAR
STARTCHAR 4ED3
ENCODING 20179
SWIDTH 1000 0
DWIDTH 16 0
BBX 15 16 1 -2
BITMAP
0100
0380
0300
0680
0C60
1830
383C
6FFE
8C64
0C60
0C60
0CE0
0C48
0C08
0FFC
07F8
ENDCHAR
STARTCHAR 4ED4
ENCODING 20180
SWIDTH 1000 0
DWIDTH 16 0
BBX 15 16 1 -2
BITMAP
0800
1C08
1BFC
3018
6030
B020
3040
3060
3064
37FE
3060
3060
3060
3060
31C0
2080
ENDCHAR
STARTCHAR 4ED5
ENCODING 20181
SWIDTH 1000 0
DWIDTH 16 0
BBX 15 16 1 -2
BITMAP
0860
1C60
1860
3060
6064
B7FE
3060
3060
3060
3060
3060
3060
3060
3068
33FC
3000
ENDCHAR
STARTCHAR 4ED6
ENCODING 20182
SWIDTH 1000 0
DWIDTH 16 0
BBX 15 16 1 -2
BITMAP
1040
1860
1860
3264
237E
73EC
776C
B36C
336C
337C
3368
3300
3304
3304
33FE
21FC
ENDCHAR
STARTCHAR 4ED7
ENCODING 20183
SWIDTH 1000 0
DWIDTH 16 0
BBX 15 16 1 -2
BITMAP
0820
1C30
1830
3030
6034
B7FE
3030
3230
3130
31B0
30E0
3060
30F0
30DC
318E
3604
ENDCHAR
STARTCHAR 4ED8
ENCODING 20184
SWIDTH 1000 0
DWIDTH 16 0
BBX 15 16 1 -2
BITMAP
0410
0E18
0C18
1C1A
1BFE
3818
7918
5998
98D8
18D8
1898
1818
1818
1858
1838
1810
ENDCHAR
STARTCHAR 4ED9
ENCODING 20185
SWIDTH 1000 0
DWIDTH 16 0
BBX 15 16 1 -2
BITMAP
1040
1860
3860
3060
6060
7666
B666
3666
3666
3666
3666
3666
3666
37FE
3606
3000
ENDCHAR
STARTCHAR 4EDD
ENCODING 20189
SWIDTH 1000 0
DWIDTH 16 0
BBX 15 16 1 -2
BITMAP
0300
0780
0CC0
1870
303E
400C
8040
1FE0
0300
0300
0300
0300
0300
0300
0310
7FF8
ENDCHAR
STARTCHAR 4EDE
ENCODING 20190
SWIDTH 1000 0
DWIDTH 16 0
BBX 15 16 1 -2
BITMAP
0800
1C04
1BFE
306C
606C
B16C
336C
31EC
306C
30CC
30CC
30CC
318C
332C
321C
2408
ENDCHAR
STARTCHAR 4EDF
ENCODING 20191
SWIDTH 1000 0
DWIDTH 16 0
BBX 15 16 1 -2
BITMAP
0808
1C3C
19F8
3060
6060
B060
3064
37FE
3060
3060
3060
3060
3060
3060
3060
3040
ENDCHAR
STARTCHAR 4EE1
ENCODING 20193
SWIDTH 1000 0
DWIDTH 16 0
BBX 15 16 1 -2
BITMAP
0840
1CE0
18C0
3184
61FE
B300
3008
31FC
3018
3070
30C0
3180
3304
3304
33FE
21FC
ENDCHAR
STARTCHAR 4EE3
ENCODING 20195
SWIDTH 1000 0
DWIDTH 16 0
BBX 15 16 1 -2
BITMAP
1090
18D8
18CC
30C8
20C4
77FE
70C0
B0C0
30C0
3060
3060
3030
3032
301A
301E
200C
ENDCHAR
STARTCHAR 4EE4
ENCODING 20196
SWIDTH 1000 0
DWIDTH 16 0
BBX 15 16 1 -2
BITMAP
0100
0180
0380
06C0
0C60
1A30
3118
618E
8124
1FF0
0060
04C0
0280
0300
0180
0100
ENDCHAR
STARTCHAR 4EE5
ENCODING 20197
SWIDTH 1000 0
DWIDTH 16 0
BBX 15 16 1 -2
BITMAP
0020
4830
6430
6630
6630
6430
6030
6030
6030
6070
6268
6CCC
78CC
F186
4306
0C04
ENDCHAR
STARTCHAR 4EE8
ENCODING 20200
SWIDTH 1000 0
DWIDTH 16 0
BBX 15 16 1 -2
BITMAP
0800
1C08
1BFC
3000
6000
B000
3010
31F8
3000
3000
3000
3000
3000
3004
37FE
2000
ENDCHAR
STARTCHAR 4EEA
ENCODING 20202
SWIDTH 1000 0
DWIDTH 16 0
BBX 15 16 1 -2
BITMAP
1080
18C0
38E8
306C
624E
730E
B11C
3198
30B0
30F0
3060
30E0
31B0
3318
321E
340C
ENDCHAR
STARTCHAR 4EEB
ENCODING 20203
SWIDTH 1000 0
DWIDTH 16 0
BBX 15 16 1 -2
BITMAP
0820
1C30
1870
3060
60C0
B088
319C
3338
3230
3460
30C0
30C8
3084
31BE
33E6
2104
ENDCHAR
STARTCHAR 4EEC
ENCODING 20204
SWIDTH 1000 0
DWIDTH 16 0
BBX 15 16 1 -2
BITMAP
1200
1B04
197E
340C
260C
760C
760C
B60C
360C
360C
360C
360C
360C
360C
363C
2408
ENDCHAR
STARTCHAR 4EF0
ENCODING 20208
SWIDTH 1000 0
DWIDTH 16 0
BBX 15 16 1 -2
BITMAP
1080
19C4
3B7E
3666
6666
7666
B666
3666
3666
3676
366E
37E4
3760
3460
3060
3040
ENDCHAR
STARTCHAR 4EF2
ENCODING 20210
SWIDTH 1000 0
DWIDTH 16 0
BBX 15 16 1 -2
BITMAP
0860
1C60
1860
3064
63FE
B36C
336C
336C
336C
33FC
3364
3060
3060
3060
3060
2040
ENDCHAR
STARTCHAR 4EF3
ENCODING 20211
SWIDTH 1000 0
DWIDTH 16 0
BBX 15 16 1 -2
BITMAP
0A20
1F30
1B34
3336
6336
B3F6
3334
3338
3338
3330
3330
3330
33F0
3730
323E
201C
ENDCHAR
STARTCHAR 4EF5
ENCODING 20213
SWIDTH 1000 0
DWIDTH 16 0
BBX 15 16 1 -2
BITMAP
0880
1CC0
1988
31FC
6360
B060
3060
3064
37FE
3060
3060
3060
3060
3060
3060
2040
ENDCHAR
STARTCHAR 4EF6
ENCODING 20214
SWIDTH 1000 0
DWIDTH 16 0
BBX 15 16 1 -2
BITMAP
1040
1A60
1B60
3368
23FC
7660
7460
B860
3064
37FE
3060
3060
3060
3060
3060
2040
ENDCHAR
STARTCHAR 4EF7
ENCODING 20215
SWIDTH 1000 0
DWIDTH 16 0
BBX 15 16 1 -2
BITMAP
1040
1860
18C0
30E0
21B0
731C
760E
B924
31B0
31B0
31B0
31B0
31B0
3330
3230
2430
ENDCHAR
STARTCHAR 4EFB
ENCODING 20219
SWIDTH 1000 0
DWIDTH 16 0
BBX 15 16 1 -2
BITMAP
1010
18F8
17C0
30C0
20C0
70C0
70C4
BFFE
30C0
30C0
30C0
30C0
30C0
30C8
37FC
2000
ENDCHAR
STARTCHAR 4EFD
ENCODING 20221
SWIDTH 1000 0
DWIDTH 16 0
BBX 15 16 1 -2
BITMAP
1020
1920
19B0
3190
2318
720C
760E
B404
3BF8
3198
3198
3198
3198
3318
3238
2410
ENDCHAR
STARTCHAR 4EFF
ENCODING 20223
SWIDTH 1000 0
DWIDTH 16 0
BBX 15 16 1 -2
BITMAP
08C0
1C70
1824
33FE
60C0
B0C4
30FE
30CC
30CC
30CC
31CC
318C
318C
3358
3238
3410
ENDCHAR
STARTCHAR 4F01
ENCODING 20225
SWIDTH 1000 0
DWIDTH 16 0
BBX 15 15 1 -1
BITMAP
0100
0380
06C0
0C60
1830
301C
610E
8184
1190
19F8
1980
1980
1980
1988
7FFC
ENDCHAR
STARTCHAR 4F09
ENCODING 20233
SWIDTH 1000 0
DWIDTH 16 0
BBX 15 16 1 -2
BITMAP
08C0
1C60
1864
33FE
6000
B108
31FC
3198
3198
3198
3198
3198
319A
319A
331E
240C
ENDCHAR
STARTCHAR 4F0A
ENCODING 20234
SWIDTH 1000 0
DWIDTH 16 0
BBX 15 16 1 -2
BITMAP
1000
1808
3FFC
3198
6198
7FFE
B198
3198
37F8
3188
3180
3180
3180
3300
3600
2800
ENDCHAR
STARTCHAR 4F0D
ENCODING 20237
SWIDTH 1000 0
DWIDTH 16 0
BBX 15 16 1 -2
BITMAP
1000
1808
1FFC
3180
2180
7180
7188
B7FC
3198
3198
3198
3198
3198
3198
3FFE
3000
ENDCHAR
STARTCHAR 4F0E
ENCODING 20238
SWIDTH 1000 0
DWIDTH 16 0
BBX 15 16 1 -2
BITMAP
1040
1860
1864
37FE
2060
7068
73FC
B118
3198
30B0
30F0
3060
30F0
319C
330E
2404
ENDCHAR
STARTCHAR 4F0F
ENCODING 20239
SWIDTH 1000 0
DWIDTH 16 0
BBX 15 16 1 -2
BITMAP
1080
18D0
18D8
30D8
20C0
77FC
70C0
B0C0
31E0
31A0
31B0
3310
3318
360C
340E
2804
ENDCHAR
STARTCHAR 4F10
ENCODING 20240
SWIDTH 1000 0
DWIDTH 16 0
BBX 15 16 1 -2
BITMAP
0490
0ED8
0CCC
1CC8
18CE
38F8
7FC4
58CE
98DC
1878
1870
18F0
19B2
1B1A
1C1E
180C
ENDCHAR
STARTCHAR 4F11
ENCODING 20241
SWIDTH 1000 0
DWIDTH 16 0
BBX 15 16 1 -2
BITMAP
0860
1C60
1860
3064
63FE
B0E0
30F0
31F0
31E8
3168
336C
3266
3466
3064
3060
3040
ENDCHAR
STARTCHAR 4F17
ENCODING 20247
SWIDTH 1000 0
DWIDTH 16 0
BBX 15 16 1 -2
BITMAP
0100
0380
06C0
0C60
1838
301E
C844
0C60
0C60
0C60
0C60
1E70
1BD8
32CC
618E
8204
ENDCHAR
STARTCHAR 4F18
ENCODING 20248
SWIDTH 1000 0
DWIDTH 16 0
BBX 15 16 1 -2
BITMAP
1090
18D8
18CC
30C8
20C0
77FC
70C0
B0E0
31B0
31B0
31B0
31B0
3332
3332
363E
281E
ENDCHAR
STARTCHAR 4F19
ENCODING 20249
SWIDTH 1000 0
DWIDTH 16 0
BBX 15 16 1 -2
BITMAP
1040
1870
3860
3264
6266
736C
B778
3260
3060
30F0
30D0
3198
3198
330C
320E
2404
ENDCHAR
STARTCHAR 4F1A
ENCODING 20250
SWIDTH 1000 0
DWIDTH 16 0
BBX 15 16 1 -2
BITMAP
0180
0300
0780
0CC0
1870
305C
6FEE
8004
0010
3FF8
0640
0C20
1830
3FF0
3F18
1010
ENDCHAR
STARTCHAR 4F1B
ENCODING 20251
SWIDTH 1000 0
DWIDTH 16 0
BBX 15 16 1 -2
BITMAP
0800
1D84
19FE
3180
6184
B1C6
31AC
31B8
3198
31AC
31C6
3184
3180
3184
31FE
2180
ENDCHAR
STARTCHAR 4F1E
ENCODING 20254
SWIDTH 1000 0
DWIDTH 16 0
BBX 15 16 1 -2
BITMAP
0100
0380
0300
0680
0C60
1B30
331C
632E
9334
1B60
0B44
FFFE
0300
0300
0300
0300
ENDCHAR
STARTCHAR 4F1F
ENCODING 20255
SWIDTH 1000 0
DWIDTH 16 0
BBX 15 16 1 -2
BITMAP
1080
18C8
1FFC
30C0
20D0
77F8
70C0
B0C4
3FFE
30CC
30CC
30CC
30DC
30C8
30C0
30C0
ENDCHAR
STARTCHAR 4F20
ENCODING 20256
SWIDTH 1000 0
DWIDTH 16 0
BBX 15 16 1 -2
BITMAP
1040
18E0
18C8
37FC
20C0
7184
7FFE
B180
3308
37FC
3218
3030
31A0
30F0
3038
2010
ENDCHAR
STARTCHAR 4F22
ENCODING 20258
SWIDTH 1000 0
DWIDTH 16 0
BBX 15 16 1 -2
BITMAP
0800
1DFC
18D8
30D8
6198
B198
33FE
3038
3078
30F8
30D8
3198
3318
3618
3078
2030
ENDCHAR
STARTCHAR 4F24
ENCODING 20260
SWIDTH 1000 0
DWIDTH 16 0
BBX 15 16 1 -2
BITMAP
1080
18C0
1984
31FE
2300
76C0
78C4
B7FE
30CC
30CC
30CC
318C
318C
330C
3638
2810
ENDCHAR
STARTCHAR 4F25
ENCODING 20261
SWIDTH 1000 0
DWIDTH 16 0
BBX 15 16 1 -2
BITMAP
0900
1D84
198E
318C
6198
B1E0
3184
37FE
31A0
31A0
3190
3198
318C
31AE
33C6
2184
ENDCHAR
STARTCHAR 4F26
ENCODING 20262
SWIDTH 1000 0
DWIDTH 16 0
BBX 15 16 1 -2
BITMAP
0840
1CE0
18C0
31E0
6198
B30C
3206
3580
319C
3198
31B0
31E0
3380
3584
31FE
30FC
ENDCHAR
STARTCHAR 4F27
ENCODING 20263
SWIDTH 1000 0
DWIDTH 16 0
BBX 15 16 1 -2
BITMAP
0840
1C60
18E0
30F0
6198
B30C
3206
35FC
3198
3198
31B8
3190
3180
3184
31FE
20FC
ENDCHAR
STARTCHAR 4F2A
ENCODING 20266
SWIDTH 1000 0
DWIDTH 16 0
BBX 15 16 1 -2
BITMAP
12C0
19C0
38C4
37FE
60CC
70CC
B0CC
30EC
30DC
30CC
30CC
30CC
30CC
318C
323C
3418
ENDCHAR
STARTCHAR 4F2B
ENCODING 20267
SWIDTH 1000 0
DWIDTH 16 0
BBX 15 16 1 -2
BITMAP
0840
1C60
1870
3124
63FE
B306
3204
3000
3000
3000
3000
3000
3004
33FE
3000
2000
ENDCHAR
STARTCHAR 4F2F
ENCODING 20271
SWIDTH 1000 0
DWIDTH 16 0
BBX 15 16 1 -2
BITMAP
0820
1C70
18E0
3184
63FE
B18C
318C
318C
318C
31FC
318C
318C
318C
318C
31FC
318C
ENDCHAR
STARTCHAR 4F30
ENCODING 20272
SWIDTH 1000 0
DWIDTH 16 0
BBX 15 16 1 -2
BITMAP
1040
1860
3860
3064
67FE
7060
B060
3264
33FE
330C
330C
330C
330C
33FC
330C
2208
ENDCHAR
STARTCHAR 4F32
ENCODING 20274
SWIDTH 1000 0
DWIDTH 16 0
BBX 15 16 1 -2
BITMAP
0A04
1FFE
1B0C
330C
630C
B3FC
3304
3340
3364
336E
336C
336C
3368
3270
34E2
203C
ENDCHAR
STARTCHAR 4F34
ENCODING 20276
SWIDTH 1000 0
DWIDTH 16 0
BBX 15 16 1 -2
BITMAP
0840
1E64
1B66
31EC
6168
B070
33FC
3060
3060
3060
3060
37FE
3060
3060
3060
3040
ENDCHAR
STARTCHAR 4F36
ENCODING 20278
SWIDTH 1000 0
DWIDTH 16 0
BBX 15 16 1 -2
BITMAP
10C0
18C0
19E0
31B0
2318
728C
74CE
B854
33F8
3030
3030
3260
31C0
30C0
3060
2040
ENDCHAR
STARTCHAR 4F38
ENCODING 20280
SWIDTH 1000 0
DWIDTH 16 0
BBX 15 16 1 -2
BITMAP
0860
1C60
1860
3364
63FE
B36C
336C
33FC
336C
336C
33FC
336C
3060
3060
3060
3040
ENDCHAR
STARTCHAR 4F3A
ENCODING 20282
SWIDTH 1000 0
DWIDTH 16 0
BBX 15 16 1 -2
BITMAP
0804
1BFE
180C
300C
67FC
B22C
33FC
336C
336C
336C
33EC
324C
300C
302C
301C
3008
ENDCHAR
STARTCHAR 4F3C
ENCODING 20284
SWIDTH 1000 0
DWIDTH 16 0
BBX 15 16 1 -2
BITMAP
1020
1830
1C30
3630
2730
76B0
76F0
B6B0
3630
3630
36B0
3778
3E6C
34C6
3186
2204
ENDCHAR
STARTCHAR 4F3D
ENCODING 20285
SWIDTH 1000 0
DWIDTH 16 0
BBX 15 16 1 -2
BITMAP
1400
1E00
3622
36BE
6FF6
76B6
B6B6
36B6
36B6
36B6
36B6
36B6
34B6
34BE
3BA4
2900
ENDCHAR
STARTCHAR 4F43
ENCODING 20291
SWIDTH 1000 0
DWIDTH 16 0
BBX 14 16 1 -2
BITMAP
0800
1C00
1800
3408
67FC
B6D8
36D8
36D8
37F8
36D8
36D8
36D8
36D8
37F8
3410
3000
ENDCHAR
STARTCHAR 4F46
ENCODING 20294
SWIDTH 1000 0
DWIDTH 16 0
BBX 15 16 1 -2
BITMAP
1000
1904
19FE
318C
218C
718C
71FC
B18C
318C
31FC
3108
3000
3000
3004
37FE
2000
ENDCHAR
STARTCHAR 4F4D
ENCODING 20301
SWIDTH 1000 0
DWIDTH 16 0
BBX 15 16 1 -2
BITMAP
1100
18C0
1860
3048
27FC
7000
7010
B418
3630
3330
3320
3260
3040
3084
3FFE
2000
ENDCHAR
STARTCHAR 4F4E
ENCODING 20302
SWIDTH 1000 0
DWIDTH 16 0
BBX 15 16 1 -2
BITMAP
1008
1A7C
1BF0
3330
2330
7334
73FE
B330
3330
3330
3318
3318
335A
336A
37EE
2244
ENDCHAR
STARTCHAR 4F4F
ENCODING 20303
SWIDTH 1000 0
DWIDTH 16 0
BBX 15 16 1 -2
BITMAP
1180
18E0
1848
33FC
2060
7060
7060
B060
31F8
3060
3060
3060
3060
3064
37FE
2000
ENDCHAR
STARTCHAR 4F50
ENCODING 20304
SWIDTH 1000 0
DWIDTH 16 0
BBX 15 16 1 -2
BITMAP
08C0
1CC4
1BFE
30C0
60C0
B0C0
3180
3188
33FC
3260
3460
3860
3060
3060
3064
27FE
ENDCHAR
STARTCHAR 4F51
ENCODING 20305
SWIDTH 1000 0
DWIDTH 16 0
BBX 15 16 1 -2
BITMAP
08C0
1CC4
1BFE
30C0
60C0
B180
3300
3304
35FE
398C
318C
318C
318C
318C
31FC
310C
ENDCHAR
STARTCHAR 4F53
ENCODING 20307
SWIDTH 1000 0
DWIDTH 16 0
BBX 15 16 1 -2
BITMAP
1080
18C0
18C0
30C8
27FC
70C0
71E0
B1E0
33D0
33D0
32D8
36CC
37FE
38C4
30C0
20C0
ENDCHAR
STARTCHAR 4F55
ENCODING 20309
SWIDTH 1000 0
DWIDTH 16 0
BBX 15 16 1 -2
BITMAP
1000
1804
1FFE
3018
2458
77F8
76D8
B6D8
36D8
36D8
37D8
3498
3018
3058
3038
2010
ENDCHAR
STARTCHAR 4F57
ENCODING 20311
SWIDTH 1000 0
DWIDTH 16 0
BBX 15 16 1 -2
BITMAP
0880
1C40
1A62
37FE
6606
B284
30C0
30C8
30DC
30F8
30E0
31C4
33C4
34C6
30FC
2078
ENDCHAR
STARTCHAR 4F58
ENCODING 20312
SWIDTH 1000 0
DWIDTH 16 0
BBX 15 16 1 -2
BITMAP
0100
0300
0780
0CC0
1870
3018
67CE
8004
0010
3FF8
0300
1340
1B60
3338
471C
0208
ENDCHAR
STARTCHAR 4F59
ENCODING 20313
SWIDTH 1000 0
DWIDTH 16 0
BBX 15 16 1 -2
BITMAP
0100
0380
06C0
0C60
1838
305E
CFE4
0180
0188
3FFC
09C0
0DB0
1998
318C
4788
0100
ENDCHAR
STARTCHAR 4F5A
ENCODING 20314
SWIDTH 1000 0
DWIDTH 16 0
BBX 15 16 1 -2
BITMAP
0840
1D60
1960
33FC
6360
B660
3464
33FE
3060
3060
3070
30F8
30CC
318E
3306
2404
ENDCHAR
STARTCHAR 4F5B
ENCODING 20315
SWIDTH 1000 0
DWIDTH 16 0
BBX 15 16 1 -2
BITMAP
1120
19B0
39B4
37FE
61B4
75B4
B7FC
35B0
35B2
37FE
35B6
31B6
31B6
333E
3634
2420
ENDCHAR
STARTCHAR 4F5C
ENCODING 20316
SWIDTH 1000 0
DWIDTH 16 0
BBX 15 16 1 -2
BITMAP
1080
18C0
1984
31FE
23C0
72C8
74FC
B0C0
30C0
30C4
30FE
30C0
30C0
30C0
30C0
20C0
ENDCHAR
STARTCHAR 4F5D
ENCODING 20317
SWIDTH 1000 0
DWIDTH 16 0
BBX 15 16 1 -2
BITMAP
0840
1CE0
18C0
3184
63FE
B60C
322C
33FC
336C
336C
336C
33EC
320C
302C
301C
2008
ENDCHAR
STARTCHAR 4F5E
ENCODING 20318
SWIDTH 1000 0
DWIDTH 16 0
BBX 15 16 1 -2
BITMAP
0808
1DFC
1800
3004
67FE
B0C0
30D0
3198
37FE
3198
3318
3370
31E0
33B0
361C
2808
ENDCHAR
STARTCHAR 4F5F
ENCODING 20319
SWIDTH 1000 0
DWIDTH 16 0
BBX 15 16 1 -2
BITMAP
0980
1D88
19FC
3118
6298
B070
3060
30D8
318E
3244
3060
3030
3100
30E0
307C
2018
ENDCHAR
STARTCHAR 4F60
ENCODING 20320
SWIDTH 1000 0
DWIDTH 16 0
BBX 15 16 1 -2
BITMAP
1040
18E0
18C0
3184
21FE
734C
7468
B160
31F0
33E8
336C
3666
3864
3060
31E0
2040
ENDCHAR
STARTCHAR 4F63
ENCODING 20323
SWIDTH 1000 0
DWIDTH 16 0
BBX 15 16 1 -2
BITMAP
0800
1E02
1BFE
3366
6366
B3FE
3366
3366
33FE
3366
3366
3366
3366
3266
346E
2844
ENDCHAR
STARTCHAR 4F64
ENCODING 20324
SWIDTH 1000 0
DWIDTH 16 0
BBX 15 16 1 -2
BITMAP
0804
1FFE
1A00
3300
6310
B3F8
3330
33B0
33F0
3370
3330
3330
3374
37B6
373E
221C
ENDCHAR
STARTCHAR 4F65
ENCODING 20325
SWIDTH 1000 0
DWIDTH 16 0
BBX 15 15 1 -1
BITMAP
0100
0300
0780
0CC0
1870
3018
602E
9FF4
0020
2430
1660
1B60
0F40
0A88
7FFC
ENDCHAR
STARTCHAR 4F67
ENCODING 20327
SWIDTH 1000 0
DWIDTH 16 0
BBX 15 16 1 -2
BITMAP
0840
1C60
1868
307C
6060
B064
37FE
3060
3070
3078
307C
306C
3068
3060
3060
2040
ENDCHAR
STARTCHAR 4F69
ENCODING 20329
SWIDTH 1000 0
DWIDTH 16 0
BBX 15 16 1 -2
BITMAP
0800
1C04
1FFC
360C
66EC
B7FC
364C
37FC
375C
3554
3554
3574
3554
3844
3044
3042
ENDCHAR
STARTCHAR 4F6C
ENCODING 20332
SWIDTH 1000 0
DWIDTH 16 0
BBX 15 16 1 -2
BITMAP
1080
18C0
18C8
37FC
20D8
70D0
70E4
BFFE
3184
33CE
36D8
34F0
38C4
30C4
30FE
207C
ENDCHAR
STARTCHAR 4F6F
ENCODING 20335
SWIDTH 1000 0
DWIDTH 16 0
BBX 15 16 1 -2
BITMAP
1208
199C
38B0
33FC
6060
7068
B3FC
3060
3064
37FE
3060
3060
3060
3060
3060
3040
ENDCHAR
STARTCHAR 4F70
ENCODING 20336
SWIDTH 1000 0
DWIDTH 16 0
BBX 15 16 1 -2
BITMAP
0804
1FFE
18C0
3080
6104
B3FE
330C
330C
330C
33FC
330C
330C
330C
330C
33FC
330C
ENDCHAR
STARTCHAR 4F73
ENCODING 20339
SWIDTH 1000 0
DWIDTH 16 0
BBX 15 16 1 -2
BITMAP
1040
1860
1868
33FC
2060
7064
77FE
B060
3060
3068
33FC
3060
3060
3060
3064
27FE
ENDCHAR
STARTCHAR 4F74
ENCODING 20340
SWIDTH 1000 0
DWIDTH 16 0
BBX 15 16 1 -2
BITMAP
0804
1FFE
1998
3198
61F8
B198
3198
31F8
3198
3198
319E
37F8
3318
3018
3018
2010
ENDCHAR
STARTCHAR 4F76
ENCODING 20342
SWIDTH 1000 0
DWIDTH 16 0
BBX 15 16 1 -2
BITMAP
0840
1C60
1864
37FE
6060
B068
33FC
3000
3204
33FE
330C
330C
330C
330C
33FC
2208
ENDCHAR
STARTCHAR 4F7B
ENCODING 20347
SWIDTH 1000 0
DWIDTH 16 0
BBX 15 16 1 -2
BITMAP
09B0
1DB0
19B4
31B6
67BC
B3B0
31B0
31BC
33B6
37B6
35B4
31B0
31B4
31B4
333E
241C
ENDCHAR
STARTCHAR 4F7C
ENCODING 20348
SWIDTH 1000 0
DWIDTH 16 0
BBX 15 16 1 -2
BITMAP
0860
1C34
1BFE
3090
60C8
B19C
311E
3294
34B0
3060
3060
3070
30D8
318C
330E
2404
ENDCHAR
STARTCHAR 4F7E
ENCODING 20350
SWIDTH 1000 0
DWIDTH 16 0
BBX 15 16 1 -2
BITMAP
0990
1DB8
1B1C
320E
6504
B1FE
318C
318C
31FC
318C
318C
31FC
318C
318C
331C
2408
ENDCHAR
STARTCHAR 4F7F
ENCODING 20351
SWIDTH 1000 0
DWIDTH 16 0
BBX 15 16 1 -2
BITMAP
1040
1860
1864
37FE
2264
73FE
736C
B36C
33FC
3268
3160
30C0
30E0
31B8
331E
2C04
ENDCHAR
STARTCHAR 4F83
ENCODING 20355
SWIDTH 1000 0
DWIDTH 16 0
BBX 15 16 1 -2
BITMAP
0904
1DFE
198C
318C
618C
B18C
31FC
31AC
30A8
30A8
30A8
30A8
30AA
312A
320E
2404
ENDCHAR
STARTCHAR 4F84
ENCODING 20356
SWIDTH 1000 0
DWIDTH 16 0
BBX 15 16 1 -2
BITMAP
1004
3FFE
30C0
60C0
618C
B30E
31F4
3060
3060
3068
37FC
3060
3060
3060
3064
2FFE
ENDCHAR
STARTCHAR 4F88
ENCODING 20360
SWIDTH 1000 0
DWIDTH 16 0
BBX 15 16 1 -2
BITMAP
0840
1CE0
18C8
31FC
6318
B5B0
30E0
3180
3644
30FE
318C
33D8
3470
3060
3180
3600
ENDCHAR
STARTCHAR 4F89
ENCODING 20361
SWIDTH 1000 0
DWIDTH 16 0
BBX 15 16 1 -2
BITMAP
0840
1C60
1BFC
30E0
61B0
B318
320E
35F4
3000
37FC
3188
33FC
3118
3018
3070
2020
ENDCHAR
STARTCHAR 4F8B
ENCODING 20363
SWIDTH 1000 0
DWIDTH 16 0
BBX 15 16 1 -2
BITMAP
1044
1FE6
3B06
3206
62A6
77F6
B4B6
36B6
3BB6
3336
31B6
32E6
3686
3406
380E
2004
ENDCHAR
STARTCHAR 4F8D
ENCODING 20365
SWIDTH 1000 0
DWIDTH 16 0
BBX 15 16 1 -2
BITMAP
0860
1C68
19FC
3060
6064
B7FE
3018
301A
33FE
3118
3198
30D8
3098
3058
3038
3010
ENDCHAR
STARTCHAR 4F8F
ENCODING 20367
SWIDTH 1000 0
DWIDTH 16 0
BBX 15 16 1 -2
BITMAP
0860
1F60
1B68
33FC
6260
B460
3064
37FE
30F0
30F8
31F8
31EC
336E
3266
3464
2040
ENDCHAR
STARTCHAR 4F91
ENCODING 20369
SWIDTH 1000 0
DWIDTH 16 0
BBX 15 16 1 -2
BITMAP
0860
1C60
1864
37FE
60C0
B184
33FE
358C
318C
31FC
318C
318C
31FC
318C
319C
2108
ENDCHAR
STARTCHAR 4F94
ENCODING 20372
SWIDTH 1000 0
DWIDTH 16 0
BBX 15 16 1 -2
BITMAP
0860
1CD0
1998
337C
63C8
B0C0
31E0
3368
33FC
3460
3064
33FE
3060
3060
3060
2040
ENDCHAR
STARTCHAR 4F97
ENCODING 20375
SWIDTH 1000 0
DWIDTH 16 0
BBX 15 16 1 -2
BITMAP
1404
1FFE
3E0C
360C
67FC
760C
B6EC
36AC
36AC
36AC
36EC
36AC
360C
362C
341C
2808
ENDCHAR
STARTCHAR 4F9B
ENCODING 20379
SWIDTH 1000 0
DWIDTH 16 0
BBX 15 16 1 -2
BITMAP
1220
1B30
1B30
37FC
2330
7330
7330
B330
3334
3FFE
3120
3390
3318
361C
340C
2808
ENDCHAR
STARTCHAR 4F9D
ENCODING 20381
SWIDTH 1000 0
DWIDTH 16 0
BBX 15 16 1 -2
BITMAP
1080
1840
1864
37FE
2060
70C0
70C4
B1A6
31AC
33B8
3790
3998
31BC
31CE
3384
2100
ENDCHAR
STARTCHAR 4FA0
ENCODING 20384
SWIDTH 1000 0
DWIDTH 16 0
BBX 15 16 1 -2
BITMAP
1040
1860
3868
33FC
6168
71FC
B0F0
3064
37FE
3060
30F0
30D0
3198
330C
320E
3404
ENDCHAR
STARTCHAR 4FA3
ENCODING 20387
SWIDTH 1000 0
DWIDTH 16 0
BBX 15 16 1 -2
BITMAP
0908
1DFC
1998
3198
6198
B1F8
3108
3000
3204
33FE
330C
330C
330C
330C
33FC
330C
ENDCHAR
STARTCHAR 4FA5
ENCODING 20389
SWIDTH 1000 0
DWIDTH 16 0
BBX 15 16 1 -2
BITMAP
1100
1988
1FFC
3190
21B8
70F4
70E4
B1BE
321C
37F8
31B0
31B0
31B4
3334
363E
281C
ENDCHAR
STARTCHAR 4FA6
ENCODING 20390
SWIDTH 1000 0
DWIDTH 16 0
BBX 15 16 1 -2
BITMAP
0860
1C64
187E
3060
6364
B3FE
334C
336C
336C
336C
336C
3268
30C0
3198
330E
2404
ENDCHAR
STARTCHAR 4FA7
ENCODING 20391
SWIDTH 1000 0
DWIDTH 16 0
BBX 15 16 1 -2
BITMAP
2004
3846
3FE6
6846
6A56
4B56
EB56
6B56
6B56
6B56
6B56
6B46
6686
6CC6
686E
5044
ENDCHAR
STARTCHAR 4FA8
ENCODING 20392
SWIDTH 1000 0
DWIDTH 16 0
BBX 15 16 1 -2
BITMAP
0800
1C7C
1BC0
30C0
60C4
B7FE
30D0
3198
310C
3396
359A
3198
3198
3118
3218
3410
ENDCHAR
STARTCHAR 4FA9
ENCODING 20393
SWIDTH 1000 0
DWIDTH 16 0
BBX 15 16 1 -2
BITMAP
1040
18C0
18E0
31B0
2318
760E
79F4
B000
3008
37FC
30C0
3190
3118
333C
37CC
2208
ENDCHAR
STARTCHAR 4FAA
ENCODING 20394
SWIDTH 1000 0
DWIDTH 16 0
BBX 15 16 1 -2
BITMAP
0840
1C68
1BFC
3118
61B0
B0E0
31B8
330E
3514
3198
3198
3198
3198
3318
3218
2410
ENDCHAR
STARTCHAR 4FAC
ENCODING 20396
SWIDTH 1000 0
DWIDTH 16 0
BBX 15 16 1 -2
BITMAP
0860
1D62
1BFE
3366
6264
B060
30E4
31CE
33EC
36F8
30D0
30C8
30CC
30EE
31C6
2084
ENDCHAR
STARTCHAR 4FAE
ENCODING 20398
SWIDTH 1000 0
DWIDTH 16 0
BBX 15 16 1 -2
BITMAP
1180
1B04
3BFE
3604
63FE
734C
B36C
332C
37FE
334C
336C
332C
33FE
360C
301C
2008
ENDCHAR
STARTCHAR 4FAF
ENCODING 20399
SWIDTH 1000 0
DWIDTH 16 0
BBX 15 16 1 -2
BITMAP
1008
1BFC
1860
3064
27FE
7100
7188
B3FC
3260
3460
3FFE
3070
30D8
318C
330E
2404
ENDCHAR
STARTCHAR 4FB5
ENCODING 20405
SWIDTH 1000 0
DWIDTH 16 0
BBX 15 16 1 -2
BITMAP
13F8
1818
19F8
3018
23F8
7414
7FFE
BC0C
3BF8
3230
3130
31E0
30E0
31B8
331E
2C04
ENDCHAR
STARTCHAR 4FBF
ENCODING 20415
SWIDTH 1000 0
DWIDTH 16 0
BBX 15 16 1 -2
BITMAP
1004
1BFE
1860
3264
23FE
736C
73FC
B36C
33FC
3268
3160
31C0
30E0
31B0
331E
2C04
ENDCHAR
STARTCHAR 4FC3
ENCODING 20419
SWIDTH 1000 0
DWIDTH 16 0
BBX 15 16 1 -2
BITMAP
1208
1BFC
1B18
3318
2318
73F8
7250
B060
3268
337C
3360
3360
32E0
3670
343E
280C
ENDCHAR
STARTCHAR 4FC4
ENCODING 20420
SWIDTH 1000 0
DWIDTH 16 0
BBX 15 16 1 -2
BITMAP
10A0
19F4
1736
3332
2330
7FFE
7330
B374
33B6
373C
3F38
3B30
3372
339A
370E
2206
ENDCHAR
STARTCHAR 4FC5
ENCODING 20421
SWIDTH 1000 0
DWIDTH 16 0
BBX 15 16 1 -2
BITMAP
0858
1C68
1864
37FE
6060
B264
33EE
3178
3070
30F8
3168
336C
3666
3064
30E0
2040
ENDCHAR
STARTCHAR 4FCA
ENCODING 20426
SWIDTH 1000 0
DWIDTH 16 0
BBX 15 16 1 -2
BITMAP
10D0
1998
1B0C
37FE
21B4
7318
728E
B4C4
31FC
3198
3358
3230
3470
30DC
318E
2604
ENDCHAR
STARTCHAR 4FCE
ENCODING 20430
SWIDTH 1000 0
DWIDTH 16 0
BBX 15 15 1 -1
BITMAP
1000
3904
31FE
318C
798C
CF8C
85FC
218C
398C
318C
71FC
798C
4F8C
858C
83FE
ENDCHAR
STARTCHAR 4FCF
ENCODING 20431
SWIDTH 1000 0
DWIDTH 16 0
BBX 15 16 1 -2
BITMAP
0840
1E66
1B6C
33EC
6170
B264
33FE
330C
330C
33FC
330C
330C
33FC
330C
331C
3308
ENDCHAR
STARTCHAR 4FD0
ENCODING 20432
SWIDTH 1000 0
DWIDTH 16 0
BBX 15 16 1 -2
BITMAP
1044
19E6
3F86
3186
61A6
77F6
B1B6
33F6
33F6
37B6
35B6
39A6
3186
3186
318E
2104
ENDCHAR
STARTCHAR 4FD1
ENCODING 20433
SWIDTH 1000 0
DWIDTH 16 0
BBX 15 16 1 -2
BITMAP
09FC
1C0C
1898
3070
6224
B3FE
336C
336C
33FC
336C
336C
33FC
336C
336C
331C
2208
ENDCHAR
STARTCHAR 4FD7
ENCODING 20439
SWIDTH 1000 0
DWIDTH 16 0
BBX 15 16 1 -2
BITMAP
0890
1DC8
198C
3268
6090
B198
3308
320C
348E
39FC
3198
3198
3198
3198
31F8
3198
ENDCHAR
STARTCHAR 4FD8
ENCODING 20440
SWIDTH 1000 0
DWIDTH 16 0
BBX 15 16 1 -2
BITMAP
0818
1CFC
1BC8
348C
66D8
B250
33FC
3018
3070
3064
37FE
3060
3060
3160
30E0
3040
ENDCHAR
STARTCHAR 4FDA
ENCODING 20442
SWIDTH 1000 0
DWIDTH 16 0
BBX 15 16 1 -2
BITMAP
0A04
1FFE
1B6C
336C
63FC
B36C
336C
33FC
3264
3060
3068
33FC
3060
3060
3064
27FE
ENDCHAR
STARTCHAR 4FDC
ENCODING 20444
SWIDTH 1000 0
DWIDTH 16 0
BBX 15 16 1 -2
BITMAP
0860
1E64
1BFE
336C
63FC
B36C
33FC
3004
37FE
30C4
31FE
330C
300C
3058
3038
2010
ENDCHAR
STARTCHAR 4FDD
ENCODING 20445
SWIDTH 1000 0
DWIDTH 16 0
BBX 15 16 1 -2
BITMAP
1208
1BFC
1B18
3318
2318
73F8
7250
B064
37FE
30F0
31F8
3168
336C
3266
3464
2040
ENDCHAR
STARTCHAR 4FDE
ENCODING 20446
SWIDTH 1000 0
DWIDTH 16 0
BBX 15 16 1 -2
BITMAP
0300
0300
0EC0
1838
600E
9FE4
0108
3F8C
336C
3F6C
336C
3F6C
336C
230C
271C
4208
ENDCHAR
STARTCHAR 4FDF
ENCODING 20447
SWIDTH 1000 0
DWIDTH 16 0
BBX 15 16 1 -2
BITMAP
0860
1CD0
1998
337C
63C8
B0C0
3188
33FC
3260
3064
37FE
3060
30F0
319C
330E
2404
ENDCHAR
STARTCHAR 4FE1
ENCODING 20449
SWIDTH 1000 0
DWIDTH 16 0
BBX 15 16 1 -2
BITMAP
1080
18C4
1FFE
3000
2010
73F8
7000
B3F8
3000
3208
33FC
3318
3318
3318
33F8
2210
ENDCHAR
STARTCHAR 4FE3
ENCODING 20451
SWIDTH 1000 0
DWIDTH 16 0
BBX 15 16 1 -2
BITMAP
0904
1DFE
198C
318C
61FC
B008
31FC
3060
3064
33FE
3060
30D0
30D8
318C
330E
2404
ENDCHAR
STARTCHAR 4FE6
ENCODING 20454
SWIDTH 1000 0
DWIDTH 16 0
BBX 15 16 1 -2
BITMAP
0820
1C34
1BFE
3030
61FC
B060
33FE
30C0
318C
310C
33FE
328C
34CC
304C
301C
2008
ENDCHAR
STARTCHAR 4FE8
ENCODING 20456
SWIDTH 1000 0
DWIDTH 16 0
BBX 15 16 1 -2
BITMAP
0804
1FFE
19B4
35BE
67B8
B3B0
3FFE
3300
3300
3300
3300
3300
3300
3200
3400
2800
ENDCHAR
STARTCHAR 4FE9
ENCODING 20457
SWIDTH 1000 0
DWIDTH 16 0
BBX 15 16 1 -2
BITMAP
1004
1FFE
38D8
30D8
64DA
77FE
B6D6
3696
36FE
376E
372E
3646
3686
3606
360E
2404
ENDCHAR
STARTCHAR 4FEA
ENCODING 20458
SWIDTH 1000 0
DWIDTH 16 0
BBX 15 16 1 -2
BITMAP
1800
1C04
3FFE
3000
64A4
77FE
B6AC
36AC
36AC
37BC
37BC
36AC
36AC
36AC
36AC
2408
ENDCHAR
STARTCHAR 4FED
ENCODING 20461
SWIDTH 1000 0
DWIDTH 16 0
BBX 15 16 1 -2
BITMAP
1040
18E0
18C0
31B0
2318
760E
79F4
B000
3188
34EC
3358
31B0
3120
3044
37FE
2000
ENDCHAR
STARTCHAR 4FEE
ENCODING 20462
SWIDTH 1000 0
DWIDTH 16 0
BBX 15 16 1 -2
BITMAP
1080
18C8
19FC
3198
22B0
7060
74D8
B5AE
3664
34D8
3730
3464
30CE
3318
3070
2780
ENDCHAR
STARTCHAR 4FEF
ENCODING 20463
SWIDTH 1000 0
DWIDTH 16 0
BBX 15 16 1 -2
BITMAP
10C0
1864
3FFE
3600
6648
766C
B6CC
36BE
37CC
37EC
36FC
36DC
34CC
38CC
30DC
2088
ENDCHAR
STARTCHAR 4FF1
ENCODING 20465
SWIDTH 1000 0
DWIDTH 16 0
BBX 15 16 1 -2
BITMAP
1208
1BFC
1B18
33F8
2318
73F8
7318
B3F8
3318
3318
3FFE
3120
3190
3318
360C
2808
ENDCHAR
STARTCHAR 4FF3
ENCODING 20467
SWIDTH 1000 0
DWIDTH 16 0
BBX 15 16 1 -2
BITMAP
0920
1DB0
19B0
37BC
61B0
B1B0
31B0
37BC
31B0
31B0
31B0
3FBE
31B0
31B0
3330
2420
ENDCHAR
STARTCHAR 4FF8
ENCODING 20472
SWIDTH 1000 0
DWIDTH 16 0
BBX 15 16 1 -2
BITMAP
0840
1C68
1BFC
3060
61FC
B0C0
33FE
3190
3358
366E
31FC
3060
3064
37FE
3060
2060
ENDCHAR
STARTCHAR 4FFA
ENCODING 20474
SWIDTH 1000 0
DWIDTH 16 0
BBX 15 16 1 -2
BITMAP
0840
0C60
1BFC
18E0
3198
3B0E
5C44
9A64
1BFE
1B6C
1BFC
1B6C
1BFC
1A62
187E
103C
ENDCHAR
STARTCHAR 4FFE
ENCODING 20478
SWIDTH 1000 0
DWIDTH 16 0
BBX 15 16 1 -2
BITMAP
08E0
1DC4
1BFE
376C
636C
B3FC
336C
336C
33FC
30E0
31B0
3234
37FE
3030
3030
2030
ENDCHAR
STARTCHAR 500C
ENCODING 20492
SWIDTH 1000 0
DWIDTH 16 0
BBX 15 16 1 -2
BITMAP
0840
1A64
1FFE
3606
6304
B1F8
3198
3198
31F8
3180
3184
31FE
318C
318C
31FC
2108
ENDCHAR
STARTCHAR 500D
ENCODING 20493
SWIDTH 1000 0
DWIDTH 16 0
BBX 15 16 1 -2
BITMAP
10C0
1868
17FC
3210
2318
71B0
7124
BFFE
3208
33FC
3318
3318
3318
3318
33F8
2210
ENDCHAR
STARTCHAR 500F
ENCODING 20495
SWIDTH 1000 0
DWIDTH 16 0
BBX 15 16 1 -2
BITMAP
08C0
1CC4
19FE
318C
625C
B430
3678
36CC
3726
363C
3634
35FE
3030
306C
30C6
3104
ENDCHAR
STARTCHAR 5012
ENCODING 20498
SWIDTH 1000 0
DWIDTH 16 0
BBX 15 16 1 -2
BITMAP
1044
1FE6
3B06
3206
66A6
74F6
BFF6
32B6
3336
3FF6
3336
3326
3346
3F86
340E
2004
ENDCHAR
STARTCHAR 5014
ENCODING 20500
SWIDTH 1000 0
DWIDTH 16 0
BBX 15 16 1 -2
BITMAP
1404
1FFE
3E0C
360C
67FC
7628
B7B6
37B6
37FE
37B4
3734
37B6
37B6
35B6
35FE
2904
ENDCHAR
STARTCHAR 5018
ENCODING 20504
SWIDTH 1000 0
DWIDTH 16 0
BBX 15 16 1 -2
BITMAP
0860
1E64
1B6E
3168
646C
B7FE
360C
36EC
36AC
36AC
36AC
36EC
36AC
360C
361C
3008
ENDCHAR
STARTCHAR 5019
ENCODING 20505
SWIDTH 1000 0
DWIDTH 16 0
BBX 15 16 1 -2
BITMAP
1008
1BFC
1860
3064
27FE
7080
76C8
B7FC
3760
3660
37FE
3670
34D8
318C
330E
2404
ENDCHAR
STARTCHAR 501A
ENCODING 20506
SWIDTH 1000 0
DWIDTH 16 0
BBX 15 16 1 -2
BITMAP
1060
1868
39FC
3060
60D8
708E
B104
37FE
302C
31EC
312C
312C
31EC
310C
3038
3010
ENDCHAR
STARTCHAR 501C
ENCODING 20508
SWIDTH 1000 0
DWIDTH 16 0
BBX 15 16 1 -2
BITMAP
0A02
1FFE
1B06
3326
63FE
B326
3326
33FE
3306
3376
3356
3356
3376
3256
340E
2004
ENDCHAR
STARTCHAR 501F
ENCODING 20511
SWIDTH 1000 0
DWIDTH 16 0
BBX 15 16 1 -2
BITMAP
1110
1998
1998
33FC
2198
7198
77FE
B204
33FE
330C
330C
33FC
330C
330C
33FC
2208
ENDCHAR
STARTCHAR 5021
ENCODING 20513
SWIDTH 1000 0
DWIDTH 16 0
BBX 15 16 1 -2
BITMAP
0904
1DFE
198C
31FC
618C
B18C
31FC
3202
33FE
3306
3306
33FE
3306
3306
33FE
3204
ENDCHAR
STARTCHAR 5025
ENCODING 20517
SWIDTH 1000 0
DWIDTH 16 0
BBX 15 16 1 -2
BITMAP
0820
1D34
1BFE
3356
62DC
B198
330E
3604
3008
31FC
3060
3060
3060
3060
3064
23FE
ENDCHAR
STARTCHAR 5026
ENCODING 20518
SWIDTH 1000 0
DWIDTH 16 0
BBX 15 16 1 -2
BITMAP
14D0
1AD8
1BD0
32E0
27FC
70C0
7FFE
B1B0
3318
37FE
3B34
3370
3324
3304
33FE
21FC
ENDCHAR
STARTCHAR 5028
ENCODING 20520
SWIDTH 1000 0
DWIDTH 16 0
BBX 15 16 1 -2
BITMAP
0A04
1FFE
1B0C
330C
63FC
B328
3330
33FE
3330
33B4
33FE
33CC
32CC
36CC
34FC
2488
ENDCHAR
STARTCHAR 5029
ENCODING 20521
SWIDTH 1000 0
DWIDTH 16 0
BBX 15 16 1 -2
BITMAP
0860
1C68
1BFC
3060
63FC
B064
37FE
3204
33FE
330C
33FC
330C
33FC
330C
321C
2408
ENDCHAR
STARTCHAR 502A
ENCODING 20522
SWIDTH 1000 0
DWIDTH 16 0
BBX 15 16 1 -2
BITMAP
08C0
1DDE
1B06
3306
63DE
B306
3306
33FE
32DA
30D8
30D8
3198
3198
3118
321E
340C
ENDCHAR
STARTCHAR 502C
ENCODING 20524
SWIDTH 1000 0
DWIDTH 16 0
BBX 15 16 1 -2
BITMAP
0840
1C68
187C
3264
63FE
B30C
33FC
330C
33FC
3368
3064
37FE
3060
3060
3060
2040
ENDCHAR
STARTCHAR 502D
ENCODING 20525
SWIDTH 1000 0
DWIDTH 16 0
BBX 15 16 1 -2
BITMAP
0810
1DF8
1860
33FC
60F0
B1E8
336E
3464
3080
318C
37FE
318C
3398
30F0
33DE
260C
ENDCHAR
STARTCHAR 502E
ENCODING 20526
SWIDTH 1000 0
DWIDTH 16 0
BBX 15 16 1 -2
BITMAP
0A04
1FFE
1B6C
33FC
636C
B3FC
3264
3060
37FE
30E0
30F0
31FC
336E
3266
34E4
2040
ENDCHAR
STARTCHAR 503A
ENCODING 20538
SWIDTH 1000 0
DWIDTH 16 0
BBX 15 16 1 -2
BITMAP
0860
1C68
1BFC
3068
63FC
B064
37FE
3204
33FE
330C
336C
336C
336C
32D8
318E
3604
ENDCHAR
STARTCHAR 503C
ENCODING 20540
SWIDTH 1000 0
DWIDTH 16 0
BBX 15 16 1 -2
BITMAP
10C0
18C4
1FFE
30C0
22C8
73FC
7318
B318
33F8
3318
33F8
3318
33F8
3318
3318
2FFE
ENDCHAR
STARTCHAR 503E
ENCODING 20542
SWIDTH 1000 0
DWIDTH 16 0
BBX 15 16 1 -2
BITMAP
1004
1BFE
3060
3544
65FE
778C
B5AC
35AC
35AC
35AC
35AC
3E70
34D8
30CC
318E
2204
ENDCHAR
STARTCHAR 5043
ENCODING 20547
SWIDTH 1000 0
DWIDTH 16 0
BBX 15 16 1 -2
BITMAP
0A08
1FFC
1B00
3378
6348
B378
3348
3378
3320
3328
33FC
3350
3338
334C
33FE
2200
ENDCHAR
STARTCHAR 5047
ENCODING 20551
SWIDTH 1000 0
DWIDTH 16 0
BBX 15 16 1 -2
BITMAP
1444
1FFE
3ECC
36CC
66CC
77FC
B684
367E
378C
362C
3668
3798
3638
366C
3646
2484
ENDCHAR
STARTCHAR 5048
ENCODING 20552
SWIDTH 1000 0
DWIDTH 16 0
BBX 15 16 1 -2
BITMAP
0A08
1FFC
1B18
33F8
6318
B3F8
32D0
3182
33FE
3646
3466
32E6
36BE
3716
33DC
2008
ENDCHAR
STARTCHAR 504C
ENCODING 20556
SWIDTH 1000 0
DWIDTH 16 0
BBX 15 16 1 -2
BITMAP
0B18
1B18
1FFE
3318
6318
B0C0
30C4
33FE
30C0
3184
33FE
358C
318C
318C
31FC
2104
ENDCHAR
STARTCHAR 504E
ENCODING 20558
SWIDTH 1000 0
DWIDTH 16 0
BBX 15 16 1 -2
BITMAP
0A08
1FFC
1B58
33F8
6358
B3F8
3214
37FE
3300
3348
332C
3330
3338
334C
378E
2304
ENDCHAR
STARTCHAR 504F
ENCODING 20559
SWIDTH 1000 0
DWIDTH 16 0
BBX 15 16 1 -2
BITMAP
10C0
1A64
1BFE
330C
230C
73FC
7308
B302
37FE
3756
3F56
3BFE
3356
3356
335E
2204
ENDCHAR
STARTCHAR 5055
ENCODING 20565
SWIDTH 1000 0
DWIDTH 16 0
BBX 15 16 1 -2
BITMAP
0B30
1F36
1BFC
3334
6376
B3BE
361C
3104
31FE
318C
318C
31FC
318C
318C
31FC
2104
ENDCHAR
STARTCHAR 505A
ENCODING 20570
SWIDTH 1000 0
DWIDTH 16 0
BBX 15 16 1 -2
BITMAP
2220
3330
3330
2320
6FFE
432C
634C
EB2C
6FA8
6D98
6D90
6DB8
6FA8
696C
60C6
4104
ENDCHAR
STARTCHAR 505C
ENCODING 20572
SWIDTH 1000 0
DWIDTH 16 0
BBX 15 16 1 -2
BITMAP
1060
1BFC
1908
31FC
2198
71F8
7514
BFFE
3C06
3BFC
3060
3060
3060
3060
31E0
2040
ENDCHAR
STARTCHAR 5065
ENCODING 20581
SWIDTH 1000 0
DWIDTH 16 0
BBX 15 16 1 -2
BITMAP
1040
1864
39FE
326C
6FFE
766C
B7FC
3468
3E60
37FC
3660
37FE
3E60
3740
35FE
28FC
ENDCHAR
STARTCHAR 506C
ENCODING 20588
SWIDTH 1000 0
DWIDTH 16 0
BBX 15 16 1 -2
BITMAP
0980
1D84
1BFE
36AC
65EC
B0FC
316C
315C
3288
3080
30E4
32F6
32D6
36CA
34FA
2070
ENDCHAR
STARTCHAR 5076
ENCODING 20598
SWIDTH 1000 0
DWIDTH 16 0
BBX 15 16 1 -2
BITMAP
1408
3FFC
36D8
77F8
66D8
C7F8
64C8
68C4
6FFE
6CCC
6DAC
6FFC
6E2C
6C0C
6C3C
4818
ENDCHAR
STARTCHAR 5077
ENCODING 20599
SWIDTH 1000 0
DWIDTH 16 0
BBX 15 16 1 -2
BITMAP
0860
1C60
18F0
3198
630E
B5FC
3000
3244
33C4
3254
33D4
3254
33D4
3254
32CC
3244
ENDCHAR
STARTCHAR 507B
ENCODING 20603
SWIDTH 1000 0
DWIDTH 16 0
BBX 15 16 1 -2
BITMAP
0860
1E66
1B6C
3168
67FE
B1F0
336C
3366
3266
34C0
37FE
318C
31D8
3070
30DC
230E
ENDCHAR
STARTCHAR 507E
ENCODING 20606
SWIDTH 1000 0
DWIDTH 16 0
BBX 15 16 1 -2
BITMAP
08C0
18C8
1FFC
30C0
63F4
BFFE
3330
37F8
3698
36D8
36D8
36D8
34F0
319C
370E
2C04
ENDCHAR
STARTCHAR 507F
ENCODING 20607
SWIDTH 1000 0
DWIDTH 16 0
BBX 15 16 1 -2
BITMAP
0860
1E64
1B66
3568
6FFE
BC06
3804
33F8
3000
3004
37FE
30C0
3190
3318
37FC
360C
ENDCHAR
STARTCHAR 5080
ENCODING 20608
SWIDTH 1000 0
DWIDTH 16 0
BBX 15 16 1 -2
BITMAP
10C0
1D88
1FFC
36D8
27F8
76D8
76D8
B7F8
34D0
30E8
31E8
31F4
337E
3662
347E
283C
ENDCHAR
STARTCHAR 5085
ENCODING 20613
SWIDTH 1000 0
DWIDTH 16 0
BBX 15 16 1 -2
BITMAP
106C
1FFE
3860
33FC
636C
73FC
B36C
33FC
336C
330C
3018
37FE
3318
3198
3138
2010
ENDCHAR
STARTCHAR 5088
ENCODING 20616
SWIDTH 1000 0
DWIDTH 16 0
BBX 15 16 1 -2
BITMAP
1004
1FFE
3CA4
37FE
66AC
76AC
B7FC
3488
30C4
3FFE
31E0
33D0
32D8
34CE
38C4
2080
ENDCHAR
STARTCHAR 508D
ENCODING 20621
SWIDTH 1000 0
DWIDTH 16 0
BBX 15 16 1 -2
BITMAP
0840
1C60
1BFC
3108
6198
B090
37FE
3646
3666
33FC
30C0
30FC
30CC
30CC
319C
3308
ENDCHAR
STARTCHAR 50A3
ENCODING 20643
SWIDTH 1000 0
DWIDTH 16 0
BBX 15 16 1 -2
BITMAP
0840
1C68
1BFC
3060
61F8
B0C4
37FE
3198
334C
366E
3B7C
31F0
33FC
376E
32E4
3040
ENDCHAR
STARTCHAR 50A5
ENCODING 20645
SWIDTH 1000 0
DWIDTH 16 0
BBX 15 16 1 -2
BITMAP
0A48
1D6C
1B7A
33FE
6606
B3FC
3198
3198
3198
31F8
31A8
30F0
30F4
31B4
333E
261C
ENDCHAR
STARTCHAR 50A7
ENCODING 20647
SWIDTH 1000 0
DWIDTH 16 0
BBX 15 16 1 -2
BITMAP
08C0
1A64
1FFE
3606
6234
B1E0
3308
33FC
3318
3318
331A
37FE
3130
339C
370E
2C04
ENDCHAR
STARTCHAR 50A8
ENCODING 20648
SWIDTH 1000 0
DWIDTH 16 0
BBX 15 16 1 -2
BITMAP
2040
3060
7864
6DFE
6C6C
C07A
7FFE
6CC0
6D84
6DFE
6ECC
6EFC
7CCC
68CC
60FC
6088
ENDCHAR
STARTCHAR 50A9
ENCODING 20649
SWIDTH 1000 0
DWIDTH 16 0
BBX 15 16 1 -2
BITMAP
0818
1830
186C
30E4
617E
BFEC
356C
357E
376C
336C
33FE
34EC
386C
306C
307E
2060
ENDCHAR
STARTCHAR 50AC
ENCODING 20652
SWIDTH 1000 0
DWIDTH 16 0
BBX 15 16 1 -2
BITMAP
0840
1F6C
1B6C
33FC
6108
B3A0
3330
36FC
3730
3BFC
3330
33FC
3330
3330
33FE
2200
ENDCHAR
STARTCHAR 50B2
ENCODING 20658
SWIDTH 1000 0
DWIDTH 16 0
BBX 15 16 1 -2
BITMAP
1208
1B0C
3318
2FD0
431E
EFB4
6326
6FCC
632C
631C
63D8
66C8
66DC
6CD6
69D6
50A2
ENDCHAR
STARTCHAR 50BA
ENCODING 20666
SWIDTH 1000 0
DWIDTH 16 0
BBX 15 16 1 -2
BITMAP
0908
1DBC
1AA4
34E8
6330
B218
340E
39F4
3000
33FC
3060
3178
336C
366E
30E4
3040
ENDCHAR
STARTCHAR 50BB
ENCODING 20667
SWIDTH 1000 0
DWIDTH 16 0
BBX 15 16 1 -2
BITMAP
08C0
1DE0
1A04
37FE
66AC
B64C
36AC
37FC
36AC
3110
328C
31F0
3298
3070
30DE
330C
ENDCHAR
STARTCHAR 50CF
ENCODING 20687
SWIDTH 1000 0
DWIDTH 16 0
BBX 15 16 1 -2
BITMAP
10CC
19F8
3A14
33FE
636C
73FC
B2C4
3060
31E4
3336
31BC
3338
34FC
33B6
3674
3020
ENDCHAR
STARTCHAR 50D6
ENCODING 20694
SWIDTH 1000 0
DWIDTH 16 0
BBX 15 16 1 -2
BITMAP
0860
1860
1BFE
3060
63FC
B108
31FC
3198
31F8
3090
33FE
3604
33FE
330C
33FC
230C
ENDCHAR
STARTCHAR 50DA
ENCODING 20698
SWIDTH 1000 0
DWIDTH 16 0
BBX 15 16 1 -2
BITMAP
1040
1864
1FFE
32EC
2198
730E
7FFC
B318
33F8
3318
33F8
3168
33F0
336C
36E6
2844
ENDCHAR
STARTCHAR 50E6
ENCODING 20710
SWIDTH 1000 0
DWIDTH 16 0
BBX 15 16 1 -2
BITMAP
0A20
1B34
1B36
3FF4
6030
B7FE
3530
3730
3238
3228
3328
36A8
3AE8
322A
366E
2204
ENDCHAR
STARTCHAR 50E7
ENCODING 20711
SWIDTH 1000 0
DWIDTH 16 0
BBX 15 16 1 -2
BITMAP
098C
1ED8
1BFE
3326
63AE
B376
33FE
3304
31FE
318C
318C
31FC
318C
318C
31FC
3108
ENDCHAR
STARTCHAR 50EC
ENCODING 20716
SWIDTH 1000 0
DWIDTH 16 0
BBX 15 16 1 -2
BITMAP
0890
19D8
1D8C
313E
6398
B5BE
3198
31BE
3198
3198
317E
3000
3194
335E
3356
2202
ENDCHAR
STARTCHAR 50ED
ENCODING 20717
SWIDTH 1000 0
DWIDTH 16 0
BBX 15 16 1 -2
BITMAP
0BDE
1A94
1A94
37DE
6108
B29A
34EE
3204
33FE
330C
330C
33FC
330C
330C
33FC
2204
ENDCHAR
STARTCHAR 50EE
ENCODING 20718
SWIDTH 1000 0
DWIDTH 16 0
BBX 15 16 1 -2
BITMAP
0860
1FFC
1910
30A4
63FE
B204
33FE
336C
33FC
336C
33FC
336C
3060
33FC
3060
23FE
ENDCHAR
STARTCHAR 50F3
ENCODING 20723
SWIDTH 1000 0
DWIDTH 16 0
BBX 15 16 1 -2
BITMAP
0808
1DFC
1850
33FE
6356
B356
33FE
3346
3168
30F4
33FE
3060
30F0
336E
3464
3040
ENDCHAR
STARTCHAR 50F5
ENCODING 20725
SWIDTH 1000 0
DWIDTH 16 0
BBX 15 16 1 -2
BITMAP
17FE
1804
1BFE
336C
23FC
736C
73FC
B7FE
3204
33FE
336C
33FC
336C
33FC
3208
2FFE
ENDCHAR
STARTCHAR 50FB
ENCODING 20731
SWIDTH 1000 0
DWIDTH 16 0
BBX 15 16 1 -2
BITMAP
0818
1C4C
1FFE
36D4
66DE
B6CC
37C8
36BE
360C
37CC
36DE
36CC
36CC
37CC
3ACC
2808
ENDCHAR
STARTCHAR 5106
ENCODING 20742
SWIDTH 1000 0
DWIDTH 16 0
BBX 15 16 1 -2
BITMAP
0808
129C
37D8
229E
6024
E444
27D4
2854
3754
2554
254C
2758
2054
2256
21E6
20A2
ENDCHAR
STARTCHAR 5107
ENCODING 20743
SWIDTH 1000 0
DWIDTH 16 0
BBX 15 16 1 -2
BITMAP
0A08
1BFC
1AA8
33F8
6208
B7FE
3208
33FC
3318
33F8
3288
3184
33AC
35D8
31BE
210C
ENDCHAR
STARTCHAR 510B
ENCODING 20747
SWIDTH 1000 0
DWIDTH 16 0
BBX 15 16 1 -2
BITMAP
0988
1DFC
1B18
37FE
6368
B3B4
33FE
3300
33FC
3300
33FC
3384
33FE
32CC
34FC
3084
ENDCHAR
STARTCHAR 5112
ENCODING 20754
SWIDTH 1000 0
DWIDTH 16 0
BBX 15 16 1 -2
BITMAP
11F8
1A64
1FFE
3666
25EC
7060
736C
B000
3FFE
34C4
37FE
36AC
36AC
36AC
36BC
2408
ENDCHAR
STARTCHAR 5121
ENCODING 20769
SWIDTH 1000 0
DWIDTH 16 0
BBX 15 16 1 -2
BITMAP
1204
1BFE
1B6C
33FC
236C
736C
73FC
B8A2
3FBE
3AAA
3AAA
3FBE
3AAA
3AAA
3FBE
28A2
ENDCHAR
STARTCHAR 513F
ENCODING 20799
SWIDTH 1000 0
DWIDTH 16 0
BBX 15 16 1 -2
BITMAP
0880
0EE0
0CC0
0CC0
0CC0
0CC0
0CC0
0CC0
0CC0
0CC0
0CC0
1CC4
18C4
30C6
60FE
807C
ENDCHAR
STARTCHAR 5140
ENCODING 20800
SWIDTH 1000 0
DWIDTH 16 0
BBX 15 15 1 -2
BITMAP
0004
FFFE
0C80
0CC0
0CC0
0CC0
0CC0
0CC0
0CC0
0CC0
0CC4
18C4
30C6
60FE
807C
ENDCHAR
STARTCHAR 5141
ENCODING 20801
SWIDTH 1000 0
DWIDTH 16 0
BBX 15 16 1 -2
BITMAP
0400
0E00
0C40
1860
1030
7FF8
7EB8
0CD0
0CC0
0CC0
0CC0
18C0
18C4
30C4
60FE
807C
ENDCHAR
STARTCHAR 5143
ENCODING 20803
SWIDTH 1000 0
DWIDTH 16 0
BBX 15 16 1 -2
BITMAP
0020
1FF0
0000
0000
0000
0008
7FFC
06C0
06C0
06C0
0CC0
0CC0
18C4
18C4
30FE
C07C
ENDCHAR
STARTCHAR 5144
ENCODING 20804
SWIDTH 1000 0
DWIDTH 16 0
BBX 14 16 2 -2
BITMAP
2020
3FF0
3060
3060
3060
3060
3FE0
2DA0
0D80
0D80
0D80
1D80
1988
3188
61FC
80F8
ENDCHAR
STARTCHAR 5145
ENCODING 20805
SWIDTH 1000 0
DWIDTH 16 0
BBX 14 16 2 -2
BITMAP
0600
0308
FFFC
0400
0E80
1C60
3030
7FF8
28D0
0CC0
0CC0
18C0
18C8
30C8
60FC
8078
ENDCHAR
STARTCHAR 5146
ENCODING 20806
SWIDTH 1000 0
DWIDTH 16 0
BBX 15 16 1 -2
BITMAP
0880
0CC4
0CCE
4CCC
6CCC
6CD8
2CE0
0CD0
1CC8
6CCC
CCCE
18C4
18C0
30C0
407E
803C
ENDCHAR
STARTCHAR 5148
ENCODING 20808
SWIDTH 1000 0
DWIDTH 16 0
BBX 15 16 1 -2
BITMAP
0180
1180
1990
3FF8
3180
6180
4188
BFFC
06C0
06C0
06C0
0CC0
0CC2
18C2
30FE
C07E
ENDCHAR
STARTCHAR 5149
ENCODING 20809
SWIDTH 1000 0
DWIDTH 16 0
BBX 15 16 1 -2
BITMAP
0200
2310
1318
1B30
1B30
1360
0348
7FFC
06C0
06C0
06C0
0CC0
0CC4
18C4
30FE
C07C
ENDCHAR
STARTCHAR 514B
ENCODING 20811
SWIDTH 1000 0
DWIDTH 16 0
BBX 15 16 1 -2
BITMAP
0200
0310
7FF8
0300
1320
1FF0
1860
1860
1FE0
1480
06C0
0CC0
0CC4
18C4
30FE
C07C
ENDCHAR
STARTCHAR 514D
ENCODING 20813
SWIDTH 1000 0
DWIDTH 16 0
BBX 15 16 1 -2
BITMAP
0800
0C20
1FF0
3060
60C8
BFFC
3318
3318
3FF8
2710
0780
0D80
0D84
1984
31FE
C0FC
ENDCHAR
STARTCHAR 5151
ENCODING 20817
SWIDTH 1000 0
DWIDTH 16 0
BBX 14 16 2 -2
BITMAP
2040
18E0
1CC0
29A0
3FF0
3060
3060
3060
3FE0
2940
0D80
1988
1988
318C
61FC
80F8
ENDCHAR
STARTCHAR 5154
ENCODING 20820
SWIDTH 1000 0
DWIDTH 16 0
BBX 15 16 1 -2
BITMAP
0C00
1C20
1FF0
3060
6088
BFFC
3318
3318
3FF8
05A8
0FB0
0DB8
0D98
1994
30FE
407C
ENDCHAR
STARTCHAR 5155
ENCODING 20821
SWIDTH 1000 0
DWIDTH 16 0
BBX 14 16 2 -2
BITMAP
F8F8
D8D8
D8D8
DFD8
C018
FFF8
9110
1980
1980
1980
1980
1988
1988
318C
60FC
80F8
ENDCHAR
STARTCHAR 5156
ENCODING 20822
SWIDTH 1000 0
DWIDTH 16 0
BBX 14 16 1 -2
BITMAP
0600
0208
FFFC
0900
1D80
18C0
1470
2520
0BC0
1EC0
0800
0F80
0D88
1D88
31FC
40F8
ENDCHAR
STARTCHAR 515A
ENCODING 20826
SWIDTH 1000 0
DWIDTH 16 0
BBX 14 16 2 -2
BITMAP
2320
1B30
4B48
FFFC
D018
9FF0
1860
1860
1FE0
1CE0
0CC0
0CC0
0CC8
18C8
30FC
C078
ENDCHAR
STARTCHAR 515C
ENCODING 20828
SWIDTH 1000 0
DWIDTH 16 0
BBX 14 16 2 -2
BITMAP
0300
3208
EFFC
CD98
CD98
CF98
DD98
EDF8
4F98
0900
0D80
1980
1988
318C
61FC
80F8
ENDCHAR
STARTCHAR 5162
ENCODING 20834
SWIDTH 1000 0
DWIDTH 16 0
BBX 15 16 1 -2
BITMAP
1020
1830
1A34
FFFE
1830
7EFC
66CE
66CC
7EFC
2C58
3C78
3CD8
2DDA
6E9A
451E
820C
ENDCHAR
STARTCHAR 5165
ENCODING 20837
SWIDTH 1000 0
DWIDTH 16 0
BBX 15 16 1 -2
BITMAP
0400
0E00
0300
0300
0180
0380
03C0
06C0
0660
0C60
0C30
1830
1818
301C
600E
8004
ENDCHAR
STARTCHAR 5168
ENCODING 20840
SWIDTH 1000 0
DWIDTH 16 0
BBX 15 15 1 -1
BITMAP
0100
0380
06C0
0C60
1838
301E
DFF4
0300
0320
1FF0
0300
0300
0300
0308
7FFC
ENDCHAR
STARTCHAR 516B
ENCODING 20843
SWIDTH 1000 0
DWIDTH 16 0
BBX 15 16 1 -2
BITMAP
0080
08C0
0CC0
0CC0
0CC0
0CC0
0CC0
0CC0
0C60
1860
1860
3030
3038
601C
400E
8004
ENDCHAR
STARTCHAR 516C
ENCODING 20844
SWIDTH 1000 0
DWIDTH 16 0
BBX 15 16 1 -2
BITMAP
0440
0E60
0C60
0C60
1830
1838
311C
638E
8304
06C0
0660
0C30
1838
3FF8
3E18
1010
ENDCHAR
STARTCHAR 516D
ENCODING 20845
SWIDTH 1000 0
DWIDTH 16 0
BBX 15 16 1 -2
BITMAP
0400
0300
0380
0180
0104
FFFE
0000
0480
0E40
0C60
0C20
1830
1818
301C
200C
4008
ENDCHAR
STARTCHAR 516E
ENCODING 20846
SWIDTH 1000 0
DWIDTH 16 0
BBX 15 16 1 -2
BITMAP
0480
0E40
0C60
1830
301C
600E
8FE4
0600
0620
07F0
0030
0030
0030
0230
01E0
0040
ENDCHAR
STARTCHAR 5170
ENCODING 20848
SWIDTH 1000 0
DWIDTH 16 0
BBX 15 15 1 -1
BITMAP
2020
1830
0C60
08D0
3FF8
0000
0000
0020
1FF0
0000
0000
0000
0000
0004
FFFE
ENDCHAR
STARTCHAR 5171
ENCODING 20849
SWIDTH 1000 0
DWIDTH 16 0
BBX 15 16 1 -2
BITMAP
0C60
0C60
0C60
3FF8
0C60
0C60
0C60
0C60
0C64
FFFE
0440
0E20
0C30
1818
301C
4008
ENDCHAR
STARTCHAR 5173
ENCODING 20851
SWIDTH 1000 0
DWIDTH 16 0
BBX 15 16 1 -2
BITMAP
1020
0C70
0E60
04D0
3FF8
0300
0300
0308
7FFC
0780
06C0
0C60
1870
3038
601E
800C
ENDCHAR
STARTCHAR 5174
ENCODING 20852
SWIDTH 1000 0
DWIDTH 16 0
BBX 15 16 1 -2
BITMAP
0408
420C
2318
3318
1990
19B0
1120
0044
FFFE
0480
0E40
0C60
1830
3018
601C
8008
ENDCHAR
STARTCHAR 5175
ENCODING 20853
SWIDTH 1000 0
DWIDTH 16 0
BBX 15 16 1 -2
BITMAP
0060
11F0
1F00
1800
1810
1FF8
1860
1860
1860
1864
FFFE
0840
1C30
1818
301C
C008
ENDCHAR
STARTCHAR 5176
ENCODING 20854
SWIDTH 1000 0
DWIDTH 16 0
BBX 15 16 1 -2
BITMAP
0840
0C68
7FFC
0C60
0C60
0FE0
0C60
0FE0
0C60
0C64
FFFE
0840
1C60
1830
3038
4010
ENDCHAR
STARTCHAR 5177
ENCODING 20855
SWIDTH 1000 0
DWIDTH 16 0
BBX 15 16 1 -2
BITMAP
1010
1FF8
1830
1FF0
1830
1FF0
1830
1FF0
1830
1834
FFFE
04C0
0E60
1C38
301C
4008
ENDCHAR
STARTCHAR 5178
ENCODING 20856
SWIDTH 1000 0
DWIDTH 16 0
BBX 15 16 1 -2
BITMAP
0480
06C0
26C8
3FFC
36D8
36D8
3FF8
36D8
36D8
36D8
FFFE
0860
1C30
1818
301C
4008
ENDCHAR
STARTCHAR 5179
ENCODING 20857
SWIDTH 1000 0
DWIDTH 16 0
BBX 15 16 1 -2
BITMAP
1060
0C60
0C84
FFFE
1830
3060
2040
CC98
7DF8
0C98
1830
1030
2468
4C8C
FDFC
4488
ENDCHAR
STARTCHAR 517B
ENCODING 20859
SWIDTH 1000 0
DWIDTH 16 0
BBX 15 16 1 -2
BITMAP
1860
0CD0
7FF8
0300
3FF0
0608
FFFC
0C40
18B0
3CD8
6CCE
8CC4
18C0
18C0
30C0
40C0
ENDCHAR
STARTCHAR 517C
ENCODING 20860
SWIDTH 1000 0
DWIDTH 16 0
BBX 15 16 1 -2
BITMAP
1860
0CC4
FFFE
0CC8
3FFC
0CD8
FFFE
0CD8
3FF8
0CD0
2CE0
3CF0
6CD8
58CC
91C8
2080
ENDCHAR
STARTCHAR 517D
ENCODING 20861
SWIDTH 1000 0
DWIDTH 16 0
BBX 14 16 2 -2
BITMAP
18C0
2D90
3FF8
3330
3FF0
3330
3FF0
3030
FFFC
1820
1FF0
1860
1860
1860
1FE0
1860
ENDCHAR
STARTCHAR 5180
ENCODING 20864
SWIDTH 1000 0
DWIDTH 16 0
BBX 14 16 1 -2
BITMAP
0CC8
7CFC
0CC8
FCFC
6878
3FF0
3330
3FF0
3330
3FF0
0CC0
3FF0
0CC8
FFFC
1860
3030
ENDCHAR
STARTCHAR 5181
ENCODING 20865
SWIDTH 1000 0
DWIDTH 16 0
BBX 15 16 1 -2
BITMAP
CD04
59FE
018C
FD8C
B5FC
FD04
B5D8
FDFC
31D8
35FE
FFCC
31E8
31D0
32C8
36EE
2044
ENDCHAR
STARTCHAR 5182
ENCODING 20866
SWIDTH 1000 0
DWIDTH 16 0
BBX 15 16 1 -2
BITMAP
8004
FFFE
C00C
C00C
C00C
C00C
C00C
C00C
C00C
C00C
C00C
C00C
C00C
C04C
C03C
8018
ENDCHAR
STARTCHAR 5185
ENCODING 20869
SWIDTH 1000 0
DWIDTH 16 0
BBX 14 16 2 -2
BITMAP
0400
0600
0600
8608
FFFC
C618
C618
CF18
CD98
D8D8
D0F8
E058
C018
C018
C078
8010
ENDCHAR
STARTCHAR 5188
ENCODING 20872
SWIDTH 1000 0
DWIDTH 16 0
BBX 14 16 2 -2
BITMAP
8008
FFFC
C018
C098
D1D8
CD98
C718
C318
C798
CCD8
D8F8
E058
C018
C058
C038
8010
ENDCHAR
STARTCHAR 5189
ENCODING 20873
SWIDTH 1000 0
DWIDTH 16 0
BBX 15 16 1 -2
BITMAP
0200
0300
4308
7FFC
6318
6318
6318
7FF8
6318
6318
631A
FFFE
6018
6018
6038
4018
ENDCHAR
STARTCHAR 518C
ENCODING 20876
SWIDTH 1000 0
DWIDTH 16 0
BBX 15 16 1 -2
BITMAP
2288
3EFC
36D8
36D8
36D8
36D8
36D8
FFFE
36D8
36D8
36D8
36D8
36D8
36D8
2EB8
4510
ENDCHAR
STARTCHAR 518D
ENCODING 20877
SWIDTH 1000 0
DWIDTH 16 0
BBX 15 16 1 -2
BITMAP
0004
FFFE
0300
2308
3FFC
3318
3318
3FF8
3318
3318
FFFE
3018
3018
3018
3078
2010
ENDCHAR
STARTCHAR 5192
ENCODING 20882
SWIDTH 1000 0
DWIDTH 16 0
BBX 14 16 1 -2
BITMAP
8008
FFFC
C018
FFF8
C018
FFF8
8008
4010
7FF8
6030
7FF0
6030
7FF0
6030
7FF0
6030
ENDCHAR
STARTCHAR 5195
ENCODING 20885
SWIDTH 1000 0
DWIDTH 16 0
BBX 14 16 2 -2
BITMAP
3FF8
3030
3FF0
3030
3FF0
0E40
1BE0
60D0
BFF8
3330
3FF0
2690
0D80
1988
31FC
40F8
ENDCHAR
STARTCHAR 5196
ENCODING 20886
SWIDTH 1000 0
DWIDTH 16 0
BBX 15 5 1 5
BITMAP
4004
FFFE
C00C
C00C
8008
ENDCHAR
STARTCHAR 5197
ENCODING 20887
SWIDTH 1000 0
DWIDTH 16 0
BBX 15 15 1 -2
BITMAP
4004
FFFE
C00C
8828
0FF0
0C60
0C60
0C60
0C60
0C60
0C60
0C64
1864
307E
403C
ENDCHAR
STARTCHAR 5199
ENCODING 20889
SWIDTH 1000 0
DWIDTH 16 0
BBX 15 16 1 -2
BITMAP
2004
7FFE
E80C
4C08
0C10
0FF8
0C00
0C08
0FFC
0818
0098
FFD8
0018
0018
0070
0020
ENDCHAR
STARTCHAR 519B
ENCODING 20891
SWIDTH 1000 0
DWIDTH 16 0
BBX 15 16 1 -2
BITMAP
2004
7FFE
E20C
4308
1FF0
0600
0D00
09A0
1FF0
0980
0188
7FFC
0180
0180
0180
0100
ENDCHAR
STARTCHAR 519C
ENCODING 20892
SWIDTH 1000 0
DWIDTH 16 0
BBX 15 16 1 -2
BITMAP
0300
2304
7FFE
630C
E618
4710
0D08
1C9C
3CB0
6CC0
8C40
0C60
0C38
0D9E
1E04
0800
ENDCHAR
STARTCHAR 51A0
ENCODING 20896
SWIDTH 1000 0
DWIDTH 16 0
BBX 15 16 1 -2
BITMAP
2004
7FFE
E006
4214
3F18
0018
00FE
7F98
1B58
1B78
1B38
1B18
333C
3314
63FE
81FC
ENDCHAR
STARTCHAR 51A2
ENCODING 20898
SWIDTH 1000 0
DWIDTH 16 0
BBX 15 16 1 -2
BITMAP
4004
FFFE
C04C
9FE8
0180
0304
070E
0D98
1FB0
2FE0
4DC0
17E0
0FB8
119E
2784
0300
ENDCHAR
STARTCHAR 51A4
ENCODING 20900
SWIDTH 1000 0
DWIDTH 16 0
BBX 15 16 1 -2
BITMAP
4004
FFFE
C60C
8FE8
3060
4088
3FFC
3318
3318
3FF8
2310
0698
06D8
0CC4
18FE
607C
ENDCHAR
STARTCHAR 51A5
ENCODING 20901
SWIDTH 1000 0
DWIDTH 16 0
BBX 15 16 1 -2
BITMAP
4004
FFFE
D04C
9FE8
1860
1FE0
1860
1FE0
1220
0300
0188
7FFC
0440
1820
3030
201C
ENDCHAR
STARTCHAR 51AB
ENCODING 20907
SWIDTH 1000 0
DWIDTH 16 0
BBX 7 14 3 -1
BITMAP
80
60
7C
70
20
02
04
0C
98
78
70
60
60
20
ENDCHAR
STARTCHAR 51AC
ENCODING 20908
SWIDTH 1000 0
DWIDTH 16 0
BBX 15 16 1 -2
BITMAP
0400
0620
0FF0
0C60
1EC0
3380
4380
06C0
0C70
331E
C1CC
0080
0400
0380
01C0
0080
ENDCHAR
STARTCHAR 51AF
ENCODING 20911
SWIDTH 1000 0
DWIDTH 16 0
BBX 15 16 1 -2
BITMAP
0010
87F8
6330
7330
2330
0330
0334
0BFE
120C
100C
302C
EFFC
600C
704C
2038
0010
ENDCHAR
STARTCHAR 51B0
ENCODING 20912
SWIDTH 1000 0
DWIDTH 16 0
BBX 15 16 1 -2
BITMAP
0080
80C0
60C4
72CE
2FDC
03F0
03E0
16F0
16D0
34D8
6CD8
E8CC
70CE
62C4
21C0
0080
ENDCHAR
STARTCHAR 51B1
ENCODING 20913
SWIDTH 1000 0
DWIDTH 16 0
BBX 15 16 1 -2
BITMAP
0004
87FE
6060
7064
20FE
00CC
01CC
1198
1198
33F8
6130
E030
7060
6060
2064
07FE
ENDCHAR
STARTCHAR 51B2
ENCODING 20914
SWIDTH 1000 0
DWIDTH 16 0
BBX 15 16 1 -2
BITMAP
0040
8060
6060
7462
27FE
0666
0666
0E66
1666
17FE
3464
E060
6060
7060
2060
0040
ENDCHAR
STARTCHAR 51B3
ENCODING 20915
SWIDTH 1000 0
DWIDTH 16 0
BBX 15 16 1 -2
BITMAP
0080
80C0
60C8
73FC
20D8
00D8
00D8
08D8
17FE
10C0
31E0
E1B0
6318
731C
260E
0804
ENDCHAR
STARTCHAR 51B5
ENCODING 20917
SWIDTH 1000 0
DWIDTH 16 0
BBX 15 16 1 -2
BITMAP
8208
63FC
7318
3318
2318
03F8
0A10
0920
11B0
11B0
31B0
E330
6334
7634
2C3E
101C
ENDCHAR
STARTCHAR 51B6
ENCODING 20918
SWIDTH 1000 0
DWIDTH 16 0
BBX 15 16 1 -2
BITMAP
0060
8070
60C0
7188
230C
07FE
0304
0000
0B04
13FE
330C
E30C
630C
730C
23FC
030C
ENDCHAR
STARTCHAR 51B7
ENCODING 20919
SWIDTH 1000 0
DWIDTH 16 0
BBX 15 16 1 -2
BITMAP
00C0
80C0
61E0
71B0
2318
068C
0CCE
1054
0BF8
1030
3030
E260
61C0
70E0
2060
0040
ENDCHAR
STARTCHAR 51BB
ENCODING 20923
SWIDTH 1000 0
DWIDTH 16 0
BBX 15 16 1 -2
BITMAP
00C0
80C4
67FE
7180
21C0
0360
0368
07FC
0A60
1170
33E8
E36C
6666
7466
28E4
0040
ENDCHAR
STARTCHAR 51BC
ENCODING 20924
SWIDTH 1000 0
DWIDTH 16 0
BBX 15 16 1 -2
BITMAP
0360
8360
6368
73FC
2660
0460
0C64
17FE
11B0
31B0
61B0
E1B0
71B0
6134
223E
041C
ENDCHAR
STARTCHAR 51BD
ENCODING 20925
SWIDTH 1000 0
DWIDTH 16 0
BBX 15 16 1 -2
BITMAP
0044
8FE6
6306
7206
22A6
07F6
04B6
16B6
1BB6
3336
61B6
E2E6
7686
6406
200E
0004
ENDCHAR
STARTCHAR 51C0
ENCODING 20928
SWIDTH 1000 0
DWIDTH 16 0
BBX 15 16 1 -2
BITMAP
0080
80C8
61FC
7318
2634
03FE
086C
0FFE
106C
13FC
3068
E060
6060
7160
20E0
0040
ENDCHAR
STARTCHAR 51C4
ENCODING 20932
SWIDTH 1000 0
DWIDTH 16 0
BBX 15 16 1 -2
BITMAP
00C0
8FFE
40C8
67FC
70CC
2FFE
00CC
07FC
10C0
1194
2FFE
6318
E630
C1C0
437C
0E38
ENDCHAR
STARTCHAR 51C6
ENCODING 20934
SWIDTH 1000 0
DWIDTH 16 0
BBX 15 16 1 -2
BITMAP
0220
8330
6330
7624
26FE
0C30
0E30
16FC
1630
B630
66FC
6630
7630
3634
27FE
0400
ENDCHAR
STARTCHAR 51C7
ENCODING 20935
SWIDTH 1000 0
DWIDTH 16 0
BBX 15 16 1 -2
BITMAP
0C48
8C6C
6CEE
7FC6
2CC2
1EA2
3F30
4D70
1D60
2CC0
6CC8
ED8C
6FFE
6D86
2C04
0800
ENDCHAR
STARTCHAR 51C9
ENCODING 20937
SWIDTH 1000 0
DWIDTH 16 0
BBX 15 16 1 -2
BITMAP
00C0
8064
67FE
7204
23FE
030C
0B0C
0BFC
1268
1170
31E8
E36C
636E
7266
24E4
0040
ENDCHAR
STARTCHAR 51CB
ENCODING 20939
SWIDTH 1000 0
DWIDTH 16 0
BBX 15 16 1 -2
BITMAP
0202
83FE
6306
7326
23FE
0326
0326
0BFE
1306
1376
3356
E356
6376
7656
240E
0804
ENDCHAR
STARTCHAR 51CC
ENCODING 20940
SWIDTH 1000 0
DWIDTH 16 0
BBX 15 16 1 -2
BITMAP
0040
8068
63FC
7060
2064
07FE
0198
0B4E
16FC
118C
31D8
E370
6470
70D8
218E
0604
ENDCHAR
STARTCHAR 51CF
ENCODING 20943
SWIDTH 1000 0
DWIDTH 16 0
BBX 15 16 1 -2
BITMAP
0030
803C
6436
77FE
2630
0630
07F4
0E36
17F6
177C
3758
E758
67DA
7D2A
284E
1004
ENDCHAR
STARTCHAR 51D1
ENCODING 20945
SWIDTH 1000 0
DWIDTH 16 0
BBX 15 16 1 -2
BITMAP
00C0
80C8
67FC
20C0
03F8
00C4
0FFE
09B0
160E
1BFC
30C0
E7FC
60E0
71B0
231E
040C
ENDCHAR
STARTCHAR 51DB
ENCODING 20955
SWIDTH 1000 0
DWIDTH 16 0
BBX 15 16 1 -2
BITMAP
00C4
8FFE
6404
77FE
26EC
06AC
06EC
0FFC
1408
13F8
3000
EFFE
63D8
76CC
2DC6
1084
ENDCHAR
STARTCHAR 51DD
ENCODING 20957
SWIDTH 1000 0
DWIDTH 16 0
BBX 15 16 1 -2
BITMAP
137C
130C
960C
DC28
D110
4E04
04FE
1812
1E58
2CD8
4CDE
5FD8
CCF8
CE98
490C
5206
ENDCHAR
STARTCHAR 51E0
ENCODING 20960
SWIDTH 1000 0
DWIDTH 16 0
BBX 15 15 1 -2
BITMAP
0840
0FE0
0CC0
0CC0
0CC0
0CC0
0CC0
0CC0
0CC0
0CC0
1CC4
18C4
30C6
60FE
807C
ENDCHAR
STARTCHAR 51E1
ENCODING 20961
SWIDTH 1000 0
DWIDTH 16 0
BBX 15 16 1 -2
BITMAP
0820
0FF0
0C60
0C60
0C60
0E60
0F60
0DE0
0DE0
0D60
0C60
0C60
1864
1864
307E
C03C
ENDCHAR
STARTCHAR 51E4
ENCODING 20964
SWIDTH 1000 0
DWIDTH 16 0
BBX 15 16 1 -2
BITMAP
2010
3FF8
3030
30B0
3FF0
38F0
35B0
37B0
3330
33B0
37F0
34F0
68B4
6034
401E
800C
ENDCHAR
STARTCHAR 51EB
ENCODING 20971
SWIDTH 1000 0
DWIDTH 16 0
BBX 14 16 2 -2
BITMAP
0E00
1800
3FE0
7060
7660
B2E0
3048
3FFC
088C
0F8C
0D8C
0DAC
0D9C
1980
3188
40F8
ENDCHAR
STARTCHAR 51ED
ENCODING 20973
SWIDTH 1000 0
DWIDTH 16 0
BBX 15 16 1 -2
BITMAP
107C
3BF8
3060
6060
59F8
9860
1864
1FFE
1020
0FF0
0C60
0C60
0C60
0864
103E
201C
ENDCHAR
STARTCHAR 51EF
ENCODING 20975
SWIDTH 1000 0
DWIDTH 16 0
BBX 15 16 1 -2
BITMAP
1088
9AFC
DBD8
DBD8
FFD8
82D8
FED8
06D8
46D8
7ED8
64D8
60D8
6F9A
F99A
631E
040C
ENDCHAR
STARTCHAR 51F0
ENCODING 20976
SWIDTH 1000 0
DWIDTH 16 0
BBX 15 16 1 -2
BITMAP
4008
7FFC
6318
6A58
6FF8
6CD8
6FD8
6CD8
6FD8
6898
6FD8
6318
6FDA
431A
435E
9FEC
ENDCHAR
STARTCHAR 51F3
ENCODING 20979
SWIDTH 1000 0
DWIDTH 16 0
BBX 15 16 1 -2
BITMAP
7EB0
26E4
3C6E
1FF0
3038
6FEE
8C64
0FE0
06C8
7FFC
0820
0FF0
0C60
0C64
187E
603C
ENDCHAR
STARTCHAR 51F5
ENCODING 20981
SWIDTH 1000 0
DWIDTH 16 0
BBX 15 11 1 0
BITMAP
8002
C006
C006
C006
C006
C006
C006
C006
C006
FFFE
8002
ENDCHAR
STARTCHAR 51F6
ENCODING 20982
SWIDTH 1000 0
DWIDTH 16 0
BBX 15 16 1 -2
BITMAP
0020
0830
0870
C466
C666
C6C6
C3C6
C186
C3C6
C266
C676
CC36
D026
C006
FFFE
C006
ENDCHAR
STARTCHAR 51F8
ENCODING 20984
SWIDTH 1000 0
DWIDTH 16 0
BBX 15 16 1 -2
BITMAP
1820
1FF0
1860
1860
1860
1860
1860
D864
F87E
C00C
C00C
C00C
C00C
C00C
FFFC
C00C
ENDCHAR
STARTCHAR 51F9
ENCODING 20985
SWIDTH 1000 0
DWIDTH 16 0
BBX 15 16 1 -2
BITMAP
8484
FEFE
CCCC
CCCC
CCCC
CCCC
CCCC
CFCC
C00C
C00C
C00C
C00C
C00C
C00C
FFFC
8008
ENDCHAR
STARTCHAR 51FA
ENCODING 20986
SWIDTH 1000 0
DWIDTH 16 0
BBX 14 16 1 -2
BITMAP
0200
4310
6318
6318
6318
6318
7FF8
4310
0300
8308
C30C
C30C
C30C
C30C
FFFC
8008
ENDCHAR
STARTCHAR 51FB
ENCODING 20987
SWIDTH 1000 0
DWIDTH 16 0
BBX 14 16 1 -2
BITMAP
0200
0300
0320
3FF0
0300
0300
0308
FFFC
0300
2320
3330
3330
3330
3330
3FF0
2020
ENDCHAR
STARTCHAR 51FC
ENCODING 20988
SWIDTH 1000 0
DWIDTH 16 0
BBX 14 16 2 -2
BITMAP
0200
0300
0300
0B20
3F70
07E0
0788
8FCC
DB6C
F33C
E30C
C30C
C70C
C20C
FFFC
C00C
ENDCHAR
STARTCHAR 51FD
ENCODING 20989
SWIDTH 1000 0
DWIDTH 16 0
BBX 14 16 2 -2
BITMAP
0020
3FF0
0060
00C0
0180
3320
9F78
CBC8
C78C
CFCC
DB6C
FB3C
D72C
C20C
FFFC
8008
ENDCHAR
STARTCHAR 51FF
ENCODING 20991
SWIDTH 1000 0
DWIDTH 16 0
BBX 15 16 1 -2
BITMAP
0888
4CDC
6CD8
7CD0
3CE0
2CC4
FFFE
0860
66CC
6FEC
630C
67CC
630C
630C
7FFC
600C
ENDCHAR
STARTCHAR 5200
ENCODING 20992
SWIDTH 1000 0
DWIDTH 16 0
BBX 14 16 1 -2
BITMAP
0008
3FFC
0618
0618
0618
0618
0618
0618
0618
0C18
0C18
1818
1818
3030
60F0
8020
ENDCHAR
STARTCHAR 5201
ENCODING 20993
SWIDTH 1000 0
DWIDTH 16 0
BBX 14 16 2 -2
BITMAP
0008
7FFC
0018
0018
0018
0098
0118
0318
0618
1C18
3818
F018
E038
40B0
0070
0020
ENDCHAR
STARTCHAR 5202
ENCODING 20994
SWIDTH 1000 0
DWIDTH 16 0
BBX 6 16 9 -2
BITMAP
08
0C
0C
8C
CC
CC
CC
CC
CC
CC
8C
0C
0C
4C
3C
18
ENDCHAR
STARTCHAR 5203
ENCODING 20995
SWIDTH 1000 0
DWIDTH 16 0
BBX 13 16 2 -2
BITMAP
0010
FFF8
0C30
0C30
4C30
2C30
1C30
0E30
0F30
1BB0
1930
3030
3030
6160
40E0
8040
ENDCHAR
STARTCHAR 5206
ENCODING 20998
SWIDTH 1000 0
DWIDTH 16 0
BBX 15 16 1 -2
BITMAP
0440
0E60
0C60
0C60
1830
1838
301C
7FEE
8664
0660
0660
0660
0C60
0D60
18E0
2040
ENDCHAR
STARTCHAR 5207
ENCODING 20999
SWIDTH 1000 0
DWIDTH 16 0
BBX 15 16 1 -2
BITMAP
2000
3004
33FE
30CC
3CCC
F0CC
30CC
30CC
30CC
30CC
358C
398C
730C
260C
0438
0810
ENDCHAR
STARTCHAR 5208
ENCODING 21000
SWIDTH 1000 0
DWIDTH 16 0
BBX 15 16 1 -2
BITMAP
0004
0206
8306
4746
4666
2466
2C66
1C66
1866
1C66
3C46
2606
4706
8226
001E
000C
ENDCHAR
STARTCHAR 520A
ENCODING 21002
SWIDTH 1000 0
DWIDTH 16 0
BBX 15 16 1 -2
BITMAP
0104
0F86
7C06
0C06
0C26
0D36
FFB6
0C36
0C36
0C36
0C36
1826
1806
3006
200E
4004
ENDCHAR
STARTCHAR 520D
ENCODING 21005
SWIDTH 1000 0
DWIDTH 16 0
BBX 14 16 2 -2
BITMAP
1000
1800
3820
3FE0
2060
4040
8088
FFFC
0018
0018
7FF8
0018
0018
0018
FFF8
0010
ENDCHAR
STARTCHAR 520E
ENCODING 21006
SWIDTH 1000 0
DWIDTH 16 0
BBX 15 16 1 -2
BITMAP
2004
3006
3106
7FC6
5566
9566
1566
3566
3566
2D66
6D46
6906
4906
5926
571E
920C
ENDCHAR
STARTCHAR 5211
ENCODING 21009
SWIDTH 1000 0
DWIDTH 16 0
BBX 15 16 1 -2
BITMAP
0102
7F86
2206
3306
3316
3376
FFF6
3336
3336
3316
3306
3306
3306
2316
430E
8204
ENDCHAR
STARTCHAR 5212
ENCODING 21010
SWIDTH 1000 0
DWIDTH 16 0
BBX 15 16 1 -2
BITMAP
1204
1B06
1986
1906
FFA6
1836
1936
19B6
1B36
0E36
0C36
1C26
3686
6686
83CE
0184
ENDCHAR
STARTCHAR 5216
ENCODING 21014
SWIDTH 1000 0
DWIDTH 16 0
BBX 15 16 1 -2
BITMAP
4106
7F86
6306
6336
6336
7F36
6336
6336
7F76
6336
6336
6306
6306
6306
471C
8208
ENDCHAR
STARTCHAR 5217
ENCODING 21015
SWIDTH 1000 0
DWIDTH 16 0
BBX 15 16 1 -2
BITMAP
0104
FF86
1806
1806
1926
3FB6
3336
6336
7336
9E36
0E36
0C26
1806
3006
600E
8004
ENDCHAR
STARTCHAR 5218
ENCODING 21016
SWIDTH 1000 0
DWIDTH 16 0
BBX 15 16 1 -2
BITMAP
1008
180E
0C0C
094C
FFEC
066C
466C
266C
3C6C
186C
1C4C
360C
630C
418C
813C
0008
ENDCHAR
STARTCHAR 5219
ENCODING 21017
SWIDTH 1000 0
DWIDTH 16 0
BBX 15 16 1 -2
BITMAP
0004
4086
7FC6
61A6
69B6
6DB6
6DB6
6DB6
6DB6
6DB6
6DB6
4D26
1A06
3306
61DE
8084
ENDCHAR
STARTCHAR 521A
ENCODING 21018
SWIDTH 1000 0
DWIDTH 16 0
BBX 15 16 1 -2
BITMAP
8084
FFC6
C186
C586
E7A6
D5B6
DDB6
C9B6
DDB6
D7B6
E5B6
C1A6
C186
C586
C38E
8104
ENDCHAR
STARTCHAR 521B
ENCODING 21019
SWIDTH 1000 0
DWIDTH 16 0
BBX 15 16 1 -2
BITMAP
0404
0E06
0C06
1E06
1B36
31B6
6136
BFB6
3336
3336
3706
3206
3006
3116
3F8E
1F04
ENDCHAR
STARTCHAR 521D
ENCODING 21021
SWIDTH 1000 0
DWIDTH 16 0
BBX 15 16 1 -2
BITMAP
3000
1804
15FE
FECC
0CCC
1ACC
3BCC
3ECC
7CCC
5BCC
9ACC
18CC
198C
198C
1B3C
1408
ENDCHAR
STARTCHAR 5220
ENCODING 21024
SWIDTH 1000 0
DWIDTH 16 0
BBX 15 16 1 -2
BITMAP
2A84
3B86
2A86
2A86
2AB6
2AB6
7FF6
2AB6
2AB6
2AB6
2AA6
2A86
2A86
2A96
4A8E
9D84
ENDCHAR
STARTCHAR 5224
ENCODING 21028
SWIDTH 1000 0
DWIDTH 16 0
BBX 15 16 1 -2
BITMAP
0804
4D06
2D86
3D26
2EB6
7FF6
0C36
0CB6
FFF6
0C36
0C26
1806
1806
3006
601E
8004
ENDCHAR
STARTCHAR 5228
ENCODING 21032
SWIDTH 1000 0
DWIDTH 16 0
BBX 15 16 1 -2
BITMAP
3084
3FC6
6186
61A6
BDB6
35B6
35B6
35B6
35B6
3FB6
3536
3006
3006
3086
1FCE
0F84
ENDCHAR
STARTCHAR 5229
ENCODING 21033
SWIDTH 1000 0
DWIDTH 16 0
BBX 15 16 1 -2
BITMAP
0208
0F0E
7C0C
0C4C
0C6C
7FEC
0C6C
1E6C
1F6C
3DEC
2D4C
4C0C
8C0C
0C2C
0C1C
0808
ENDCHAR
STARTCHAR 522B
ENCODING 21035
SWIDTH 1000 0
DWIDTH 16 0
BBX 15 16 1 -2
BITMAP
4084
7FC6
6186
61A6
61B6
7FB6
5136
18B6
FFF6
19B6
19A6
3186
3186
6186
471E
8204
ENDCHAR
STARTCHAR 522D
ENCODING 21037
SWIDTH 1000 0
DWIDTH 16 0
BBX 15 16 1 -2
BITMAP
0204
7F06
0606
0C26
1E36
3336
C1B6
7F36
1836
1836
1826
1806
1B06
FC26
401E
000C
ENDCHAR
STARTCHAR 522E
ENCODING 21038
SWIDTH 1000 0
DWIDTH 16 0
BBX 15 16 1 -2
BITMAP
0C08
7E0E
180C
180C
1A4C
FF6C
186C
186C
5A6C
7F6C
666C
664C
660C
662C
7E1C
4408
ENDCHAR
STARTCHAR 5230
ENCODING 21040
SWIDTH 1000 0
DWIDTH 16 0
BBX 15 16 1 -2
BITMAP
0108
FF8E
100C
384C
346C
666C
FF6C
526C
186C
FF6C
186C
184C
180C
1F2C
FC1C
6008
ENDCHAR
STARTCHAR 5233
ENCODING 21043
SWIDTH 1000 0
DWIDTH 16 0
BBX 15 16 1 -2
BITMAP
1804
1806
FF06
1826
3C36
6636
43B6
BD36
0036
FF36
2226
7F06
0606
2626
1E1E
0C0C
ENDCHAR
STARTCHAR 5236
ENCODING 21046
SWIDTH 1000 0
DWIDTH 16 0
BBX 15 16 1 -2
BITMAP
4C04
6D06
7F86
4C26
8CB6
FFF6
0C36
4CB6
7FF6
6DB6
6DB6
6DA6
6D86
6F86
4D1E
0C04
ENDCHAR
STARTCHAR 5237
ENCODING 21047
SWIDTH 1000 0
DWIDTH 16 0
BBX 15 16 1 -2
BITMAP
4086
7FC6
6186
6186
7FB6
66B6
4636
5FB6
56B6
56B6
5686
5686
5686
5796
460E
8604
ENDCHAR
STARTCHAR 5238
ENCODING 21048
SWIDTH 1000 0
DWIDTH 16 0
BBX 15 16 1 -2
BITMAP
1330
0B60
3FF8
0300
06C8
7FFC
0C60
1830
3058
6FEE
8364
0660
0460
0C60
19E0
20C0
ENDCHAR
STARTCHAR 5239
ENCODING 21049
SWIDTH 1000 0
DWIDTH 16 0
BBX 15 16 1 -2
BITMAP
2304
1B86
0E06
1B06
31B6
4936
0C36
0D36
7FB6
1C36
3E26
6D86
4D06
8C16
0C0E
0804
ENDCHAR
STARTCHAR 523A
ENCODING 21050
SWIDTH 1000 0
DWIDTH 16 0
BBX 15 16 1 -2
BITMAP
0C04
0C06
FFC6
4CA6
7FB6
6DB6
6DB6
6FB6
5D36
1E26
3D06
2D86
6CC6
4C86
8C1E
0C04
ENDCHAR
STARTCHAR 523B
ENCODING 21051
SWIDTH 1000 0
DWIDTH 16 0
BBX 15 16 1 -2
BITMAP
1804
0C86
FFC6
0C06
1826
3236
6736
3E36
1836
3236
6736
8C26
1E06
3306
618E
8104
ENDCHAR
STARTCHAR 523D
ENCODING 21053
SWIDTH 1000 0
DWIDTH 16 0
BBX 15 16 1 -2
BITMAP
0404
0E06
0C06
1E06
3326
21B6
5EF6
80B6
0036
7FB6
0C36
1A26
1906
3396
7CCE
2084
ENDCHAR
STARTCHAR 523F
ENCODING 21055
SWIDTH 1000 0
DWIDTH 16 0
BBX 15 16 1 -2
BITMAP
1004
9A06
DB06
DB46
DB66
FF66
B166
3266
7F66
C666
2646
3606
1C06
1826
701E
800C
ENDCHAR
STARTCHAR 5240
ENCODING 21056
SWIDTH 1000 0
DWIDTH 16 0
BBX 15 16 1 -2
BITMAP
1004
9A06
DB06
DB46
DB66
FF66
8166
7E66
0766
0666
7E46
6206
6706
7C26
F01E
600C
ENDCHAR
STARTCHAR 5241
ENCODING 21057
SWIDTH 1000 0
DWIDTH 16 0
BBX 15 16 1 -2
BITMAP
2104
3F86
3306
3326
3336
6BF6
CDB6
0C36
FFB6
2E36
3F06
7D86
6CC6
4C96
9C0E
0804
ENDCHAR
STARTCHAR 5242
ENCODING 21058
SWIDTH 1000 0
DWIDTH 16 0
BBX 15 16 1 -2
BITMAP
0804
0C86
7FC6
2306
1626
0C36
1B36
31F6
F2B6
3336
3336
3326
3306
3306
230E
4204
ENDCHAR
STARTCHAR 5243
ENCODING 21059
SWIDTH 1000 0
DWIDTH 16 0
BBX 15 16 1 -2
BITMAP
2408
290E
7F8C
1B4C
1B6C
7F6C
586C
596C
7FEC
3B6C
3B6C
7B4C
5F0C
9A2C
181C
1808
ENDCHAR
STARTCHAR 524A
ENCODING 21066
SWIDTH 1000 0
DWIDTH 16 0
BBX 14 16 2 -2
BITMAP
1808
990C
D98C
7B4C
DD6C
FFEC
C36C
C36C
FF6C
C36C
C34C
FF0C
C30C
C30C
CF3C
8208
ENDCHAR
STARTCHAR 524C
ENCODING 21068
SWIDTH 1000 0
DWIDTH 16 0
BBX 15 16 1 -2
BITMAP
0C04
0C06
FFC6
4CA6
7FB6
6DB6
6DB6
6DB6
7FB6
4EB6
1E26
3F06
6D86
4DE6
9C9E
080C
ENDCHAR
STARTCHAR 524D
ENCODING 21069
SWIDTH 1000 0
DWIDTH 16 0
BBX 15 16 1 -2
BITMAP
1830
0E60
04C4
FFFE
0000
2108
3F8C
334C
336C
3F6C
336C
3F6C
334C
330C
373C
2208
ENDCHAR
STARTCHAR 5250
ENCODING 21072
SWIDTH 1000 0
DWIDTH 16 0
BBX 15 16 1 -2
BITMAP
4104
7F86
6306
6306
6326
7F36
5236
98B6
FFF6
D9B6
DDB6
F7A6
E586
C186
C38E
8104
ENDCHAR
STARTCHAR 5251
ENCODING 21073
SWIDTH 1000 0
DWIDTH 16 0
BBX 15 16 1 -2
BITMAP
0404
0E06
0C06
1B06
19A6
30F6
7FB6
9136
19B6
4F36
6B36
3226
24C6
0716
FC0E
4004
ENDCHAR
STARTCHAR 5254
ENCODING 21076
SWIDTH 1000 0
DWIDTH 16 0
BBX 15 16 1 -2
BITMAP
6108
7F8E
630C
7F4C
636C
7F6C
736C
316C
7FEC
AB6C
2B6C
2B4C
530C
532C
AF1C
4608
ENDCHAR
STARTCHAR 5256
ENCODING 21078
SWIDTH 1000 0
DWIDTH 16 0
BBX 15 16 1 -2
BITMAP
1806
0C06
7F96
0236
4736
3636
24B6
FFF6
0036
4136
7FB6
6306
6306
6306
7F1C
4308
ENDCHAR
STARTCHAR 525C
ENCODING 21084
SWIDTH 1000 0
DWIDTH 16 0
BBX 15 16 1 -2
BITMAP
0804
0C06
4486
FFE6
C1B6
6136
30B6
67B6
5CB6
8CB6
6EA6
3D06
1486
2526
461E
800C
ENDCHAR
STARTCHAR 525E
ENCODING 21086
SWIDTH 1000 0
DWIDTH 16 0
BBX 15 16 1 -2
BITMAP
1804
1806
FF06
1826
3C36
6636
4336
FFB6
0336
4B36
7F26
4B06
7B06
4B26
0F1E
060C
ENDCHAR
STARTCHAR 5261
ENCODING 21089
SWIDTH 1000 0
DWIDTH 16 0
BBX 15 16 1 -2
BITMAP
1004
9A06
7F06
5C26
1836
3C36
6736
9236
1936
DBB6
7E26
5806
1C06
3E26
671E
820C
ENDCHAR
STARTCHAR 5265
ENCODING 21093
SWIDTH 1000 0
DWIDTH 16 0
BBX 15 16 1 -2
BITMAP
0086
7FC6
0186
3F86
01B6
FFF6
0C36
8D36
6DB6
2F36
1E06
2D06
6D86
CCD6
5C8E
0804
ENDCHAR
STARTCHAR 5267
ENCODING 21095
SWIDTH 1000 0
DWIDTH 16 0
BBX 15 16 1 -2
BITMAP
2084
3FC6
3186
3186
3FA6
3536
3636
3FF6
3636
76B6
7FF6
79A6
5986
5986
9F8E
1104
ENDCHAR
STARTCHAR 5269
ENCODING 21097
SWIDTH 1000 0
DWIDTH 16 0
BBX 15 16 1 -2
BITMAP
0F04
7806
0D06
FFA6
2D36
2D36
EDF6
2D36
2D36
EDF6
1C26
3E06
3D06
6DD6
8C8E
0804
ENDCHAR
STARTCHAR 526A
ENCODING 21098
SWIDTH 1000 0
DWIDTH 16 0
BBX 15 16 1 -2
BITMAP
0C60
FFFE
2210
3F98
36D8
3ED8
36D8
3ED8
3698
2E38
4410
3FFC
0618
0C18
1878
6010
ENDCHAR
STARTCHAR 526F
ENCODING 21103
SWIDTH 1000 0
DWIDTH 16 0
BBX 14 16 1 -2
BITMAP
0108
FF8C
000C
7E0C
664C
666C
7E6C
816C
FFEC
DB6C
DB6C
FF0C
DB0C
DB2C
FF1C
8208
ENDCHAR
STARTCHAR 5272
ENCODING 21106
SWIDTH 1000 0
DWIDTH 16 0
BBX 15 16 1 -2
BITMAP
1804
4C86
FFC6
C986
8D26
3F36
0C36
7F36
0CB6
FFF6
40B6
7FE6
6186
6186
7F8E
4104
ENDCHAR
STARTCHAR 527D
ENCODING 21117
SWIDTH 1000 0
DWIDTH 16 0
BBX 15 16 1 -2
BITMAP
0004
7F06
1406
94A6
FFF6
D5B6
D5B6
FFB6
80B6
3E36
0026
FF86
2C06
2F26
7D9E
980C
ENDCHAR
STARTCHAR 527F
ENCODING 21119
SWIDTH 1000 0
DWIDTH 16 0
BBX 15 16 1 -2
BITMAP
36C4
6D86
DB06
6D86
7FE6
6DB6
7FB6
6DB6
7FB6
4D36
FFF6
2D26
7D86
4CD6
9C8E
0804
ENDCHAR
STARTCHAR 5281
ENCODING 21121
SWIDTH 1000 0
DWIDTH 16 0
BBX 15 16 1 -2
BITMAP
3604
6406
FF86
6C26
7F36
6C36
7F36
6C36
7FB6
40B6
49E6
DB46
DA66
9266
005E
000C
ENDCHAR
STARTCHAR 5282
ENCODING 21122
SWIDTH 1000 0
DWIDTH 16 0
BBX 15 16 1 -2
BITMAP
4002
7FE2
4A52
7FFA
4492
554A
554A
554A
554A
5F4A
554A
4442
44A2
4932
922E
0004
ENDCHAR
STARTCHAR 5288
ENCODING 21128
SWIDTH 1000 0
DWIDTH 16 0
BBX 15 16 1 -2
BITMAP
3E60
3630
36FC
3E58
7450
71FE
7E30
B6FC
3E30
2220
0008
7FFC
0C18
0C18
1878
6030
ENDCHAR
STARTCHAR 5290
ENCODING 21136
SWIDTH 1000 0
DWIDTH 16 0
BBX 15 16 1 -2
BITMAP
3604
FF86
3606
3826
6C36
FF36
6C36
7F36
6C36
7F36
6C26
7F86
5F06
1126
0E1E
71CC
ENDCHAR
STARTCHAR 5293
ENCODING 21139
SWIDTH 1000 0
DWIDTH 16 0
BBX 15 16 1 -2
BITMAP
3004
7F06
6306
7B26
6F36
6336
7F36
FFB6
C9B6
FFB6
C9A6
FF86
0006
FFA6
361E
664C
ENDCHAR
STARTCHAR 529B
ENCODING 21147
SWIDTH 1000 0
DWIDTH 16 0
BBX 14 16 1 -2
BITMAP
0400
0600
0600
0608
7FFC
0618
0618
0618
0C18
0C18
0C18
1818
1818
3030
60F0
8020
ENDCHAR
STARTCHAR 529D
ENCODING 21149
SWIDTH 1000 0
DWIDTH 16 0
BBX 15 16 1 -2
BITMAP
0040
0460
FE60
8C64
4DFE
4C6C
286C
386C
106C
386C
2CEC
67CC
458C
8358
0238
0010
ENDCHAR
STARTCHAR 529E
ENCODING 21150
SWIDTH 1000 0
DWIDTH 16 0
BBX 15 16 1 -2
BITMAP
0400
0600
0600
0620
7FF0
0660
0660
2670
2668
6C6C
EC66
4C64
1860
3060
61C0
8080
ENDCHAR
STARTCHAR 529F
ENCODING 21151
SWIDTH 1000 0
DWIDTH 16 0
BBX 15 16 1 -2
BITMAP
0080
00C0
08C0
FCC4
33FE
30CC
30CC
30CC
30CC
30CC
30CC
338C
3D8C
F32C
421C
0408
ENDCHAR
STARTCHAR 52A0
ENCODING 21152
SWIDTH 1000 0
DWIDTH 16 0
BBX 15 16 1 -2
BITMAP
2000
3000
3042
317E
FFE6
3366
3366
3366
3366
3366
3366
3366
637E
6B66
4744
8200
ENDCHAR
STARTCHAR 52A1
ENCODING 21153
SWIDTH 1000 0
DWIDTH 16 0
BBX 15 16 1 -2
BITMAP
0400
0620
0FF0
1C60
36C0
4380
06E0
183E
E62C
1FF0
0660
0C60
0C60
1860
31E0
C040
ENDCHAR
STARTCHAR 52A2
ENCODING 21154
SWIDTH 1000 0
DWIDTH 16 0
BBX 15 16 1 -2
BITMAP
0220
FF30
6030
6132
7FFE
6336
6336
6336
6336
6336
6336
6336
6326
6366
474E
8284
ENDCHAR
STARTCHAR 52A3
ENCODING 21155
SWIDTH 1000 0
DWIDTH 16 0
BBX 15 16 1 -2
BITMAP
0100
09A0
0D98
199C
19B6
31E4
4180
0700
1B08
EFFC
0318
0618
0618
0C18
1870
6020
ENDCHAR
STARTCHAR 52A8
ENCODING 21160
SWIDTH 1000 0
DWIDTH 16 0
BBX 15 16 1 -2
BITMAP
0040
0460
7E60
0064
01FE
026C
FF6C
186C
306C
346C
66CC
FECC
658C
030C
0238
0410
ENDCHAR
STARTCHAR 52A9
ENCODING 21161
SWIDTH 1000 0
DWIDTH 16 0
BBX 15 16 1 -2
BITMAP
0040
4460
7E60
6C64
6DFE
6C6C
7C6C
6C6C
6C6C
7C6C
6CCC
6CCC
6F8C
F98C
4338
0410
ENDCHAR
STARTCHAR 52AA
ENCODING 21162
SWIDTH 1000 0
DWIDTH 16 0
BBX 15 16 1 -2
BITMAP
1808
1AFC
FF98
3658
6630
1C68
36CE
C504
0608
7FFC
0618
0C18
0C18
1818
3070
C020
ENDCHAR
STARTCHAR 52AB
ENCODING 21163
SWIDTH 1000 0
DWIDTH 16 0
BBX 15 16 1 -2
BITMAP
1040
1860
1860
7E62
19FE
1866
1A66
FF66
1866
3466
2466
66C6
FEC6
43AC
011C
0208
ENDCHAR
STARTCHAR 52AC
ENCODING 21164
SWIDTH 1000 0
DWIDTH 16 0
BBX 15 16 1 -2
BITMAP
1020
1830
3130
3FB2
63FE
CB36
7B36
4B36
4B36
4B36
7B36
4B36
0326
0366
0F4E
0684
ENDCHAR
STARTCHAR 52AD
ENCODING 21165
SWIDTH 1000 0
DWIDTH 16 0
BBX 15 16 1 -2
BITMAP
0120
FFB0
3330
3332
337E
6336
8736
0236
8136
FFB6
C336
C336
C326
C366
FF4E
8284
ENDCHAR
STARTCHAR 52B1
ENCODING 21169
SWIDTH 1000 0
DWIDTH 16 0
BBX 15 16 1 -2
BITMAP
4020
7FB0
6030
60B2
7FFE
6C36
6CB6
6FF6
6DB6
6DB6
6DB6
6DB6
69A6
59E6
574E
A284
ENDCHAR
STARTCHAR 52B2
ENCODING 21170
SWIDTH 1000 0
DWIDTH 16 0
BBX 15 16 1 -2
BITMAP
0220
7F30
0630
0C32
1EFE
33B6
C136
7F36
1836
1866
1866
1B66
FCC6
41AC
011C
0208
ENDCHAR
STARTCHAR 52B3
ENCODING 21171
SWIDTH 1000 0
DWIDTH 16 0
BBX 15 16 1 -2
BITMAP
0660
0664
7FFE
0660
2444
7FFE
E60C
4618
1FF0
0630
0630
0630
0C30
0CB0
1870
2020
ENDCHAR
STARTCHAR 52BE
ENCODING 21182
SWIDTH 1000 0
DWIDTH 16 0
BBX 15 16 1 -2
BITMAP
1820
0CB0
FFB0
0C32
18FE
3236
6736
3E36
1836
3236
6736
8C36
1E26
3366
61CE
8104
ENDCHAR
STARTCHAR 52BF
ENCODING 21183
SWIDTH 1000 0
DWIDTH 16 0
BBX 15 16 1 -2
BITMAP
1180
1990
1BF8
7FB0
19B0
1FB0
F9F2
5B7E
3A1E
1608
3FFC
0618
0C18
1818
3070
C020
ENDCHAR
STARTCHAR 52C3
ENCODING 21187
SWIDTH 1000 0
DWIDTH 16 0
BBX 15 16 1 -2
BITMAP
1860
1860
7E60
1862
5BFE
FF66
C266
3E66
0466
0866
1E46
F8C6
18CC
59AC
391C
1208
ENDCHAR
STARTCHAR 52C7
ENCODING 21191
SWIDTH 1000 0
DWIDTH 16 0
BBX 15 16 1 -2
BITMAP
7FF8
0270
0184
7FFE
630C
7FFC
630C
7FFC
630C
4118
0604
FFFE
060C
0C0C
184C
6038
ENDCHAR
STARTCHAR 52C9
ENCODING 21193
SWIDTH 1000 0
DWIDTH 16 0
BBX 15 16 1 -2
BITMAP
3440
3E60
6C60
8A64
FFFE
D66C
D66C
D66C
FE6C
B66C
3C4C
6C5C
6C88
4D04
47FE
83FC
ENDCHAR
STARTCHAR 52CB
ENCODING 21195
SWIDTH 1000 0
DWIDTH 16 0
BBX 15 16 1 -2
BITMAP
4440
7E60
6C64
6DFE
7C6C
C66C
FF6C
D66C
D66C
D66C
D66C
D66C
BACC
2E8C
451C
8208
ENDCHAR
STARTCHAR 52D0
ENCODING 21200
SWIDTH 1000 0
DWIDTH 16 0
BBX 15 16 1 -2
BITMAP
0120
7FB0
0330
0332
0C7E
7FB6
0C36
0C36
3836
4076
7FF6
6AF6
6AE6
6AE6
6ACE
FFE4
ENDCHAR
STARTCHAR 52D2
ENCODING 21202
SWIDTH 1000 0
DWIDTH 16 0
BBX 15 16 1 -2
BITMAP
4440
6660
FF60
6662
7FFE
5466
9966
FF66
DB66
DB66
FF66
9A66
18C6
FFC6
188E
1904
ENDCHAR
STARTCHAR 52D6
ENCODING 21206
SWIDTH 1000 0
DWIDTH 16 0
BBX 15 16 1 -2
BITMAP
80A0
FFF0
C1B0
FFB2
C1FE
FFB6
80B6
4136
7FB6
6336
7F36
6336
7F26
6366
7F4E
4184
ENDCHAR
STARTCHAR 52D8
ENCODING 21208
SWIDTH 1000 0
DWIDTH 16 0
BBX 15 16 1 -2
BITMAP
2440
3660
FFE0
3664
3FFE
366C
3E6C
366C
FFEC
6A6C
6A6C
6A6C
73CC
60CC
7E9C
4108
ENDCHAR
STARTCHAR 52DF
ENCODING 21215
SWIDTH 1000 0
DWIDTH 16 0
BBX 15 16 1 -2
BITMAP
1864
FFFE
1860
3FF8
3018
3FF8
3018
3FF8
0C24
FFFE
1B18
3FFC
E336
0630
0C30
3060
ENDCHAR
STARTCHAR 52E4
ENCODING 21220
SWIDTH 1000 0
DWIDTH 16 0
BBX 15 16 1 -2
BITMAP
6640
6660
FF60
6664
7EFE
526C
196C
FF6C
DB6C
FF6C
186C
7E6C
186C
7C4C
18B8
FF10
ENDCHAR
STARTCHAR 52F0
ENCODING 21232
SWIDTH 1000 0
DWIDTH 16 0
BBX 15 16 1 -2
BITMAP
21FC
7924
2924
29FC
2924
2924
59FC
4400
FF80
5584
55A6
5532
5590
5584
5584
BB78
ENDCHAR
STARTCHAR 52F9
ENCODING 21241
SWIDTH 1000 0
DWIDTH 16 0
BBX 15 16 1 -2
BITMAP
0C00
1E00
3808
3FFE
600C
400C
800C
000C
000C
000C
000C
000C
000C
004C
003C
0018
ENDCHAR
STARTCHAR 52FA
ENCODING 21242
SWIDTH 1000 0
DWIDTH 16 0
BBX 15 16 1 -2
BITMAP
0C00
1E00
3808
3FFE
600C
400C
900C
0C0C
060C
030C
038C
01CC
008C
000C
003C
0018
ENDCHAR
STARTCHAR 52FE
ENCODING 21246
SWIDTH 1000 0
DWIDTH 16 0
BBX 15 16 1 -2
BITMAP
0200
0700
0600
0C04
1FFE
300C
620C
830C
068C
0CCC
1FEC
084C
000C
0058
0038
0010
ENDCHAR
STARTCHAR 52FF
ENCODING 21247
SWIDTH 1000 0
DWIDTH 16 0
BBX 15 16 1 -2
BITMAP
0C00
1C00
1804
3FFE
666C
466C
866C
0CEC
0CEC
0CCC
0CCC
08CC
118C
230C
443C
0818
ENDCHAR
STARTCHAR 5300
ENCODING 21248
SWIDTH 1000 0
DWIDTH 16 0
BBX 15 16 1 -2
BITMAP
0C00
1E00
3808
3FFE
600C
480C
860C
070C
020C
006C
038C
1E0C
780C
300C
003C
0018
ENDCHAR
STARTCHAR 5305
ENCODING 21253
SWIDTH 1000 0
DWIDTH 16 0
BBX 15 16 1 -2
BITMAP
0400
0E00
0C08
1FFC
3018
7058
9FF8
18D8
18D8
1FD8
18B8
1810
1804
1804
1FFE
0FFC
ENDCHAR
STARTCHAR 5306
ENCODING 21254
SWIDTH 1000 0
DWIDTH 16 0
BBX 15 16 1 -2
BITMAP
0800
1C00
1804
3FFE
366C
666C
A46C
1CCC
0ECC
1BCC
31EC
434C
0618
1898
2070
0020
ENDCHAR
STARTCHAR 5308
ENCODING 21256
SWIDTH 1000 0
DWIDTH 16 0
BBX 15 16 1 -2
BITMAP
1800
1800
3004
3FFE
400C
A0AC
39EC
376C
326C
37EC
396C
3FEC
202C
000C
003C
0018
ENDCHAR
STARTCHAR 530D
ENCODING 21261
SWIDTH 1000 0
DWIDTH 16 0
BBX 15 16 1 -2
BITMAP
0C00
1E00
3808
3FFE
608C
424C
BFEC
024C
1FCC
1ACC
1FCC
1ACC
1FCC
1ACC
003C
0018
ENDCHAR
STARTCHAR 530F
ENCODING 21263
SWIDTH 1000 0
DWIDTH 16 0
BBX 15 16 1 -2
BITMAP
1020
1862
FEFE
1882
3902
66FA
438A
BDFA
0082
FF8E
3080
3E80
0680
0682
1E82
0CFE
ENDCHAR
STARTCHAR 5310
ENCODING 21264
SWIDTH 1000 0
DWIDTH 16 0
BBX 14 16 1 -2
BITMAP
0C08
1FFC
300C
2FCC
600C
478C
848C
078C
102C
1FEC
1B6C
1FEC
1B6C
1FEC
105C
0008
ENDCHAR
STARTCHAR 5315
ENCODING 21269
SWIDTH 1000 0
DWIDTH 16 0
BBX 12 16 4 -2
BITMAP
8000
C080
C1C0
C1C0
C380
C700
CE00
D800
D000
E000
C000
C020
C020
C030
FFF0
7FE0
ENDCHAR
STARTCHAR 5316
ENCODING 21270
SWIDTH 1000 0
DWIDTH 16 0
BBX 15 16 1 -2
BITMAP
0480
0EE0
0CC8
18CC
18CC
38D8
38D8
78F0
58E0
98C0
19C0
19C4
1AC4
18C6
18FE
107C
ENDCHAR
STARTCHAR 5317
ENCODING 21271
SWIDTH 1000 0
DWIDTH 16 0
BBX 15 16 1 -2
BITMAP
0080
0CE0
0CC0
0CC4
0CC6
FCCC
0CD8
0CF0
0CE0
0CC0
0CC0
0CC0
1CC4
ECC4
4CFE
0C7C
ENDCHAR
STARTCHAR 5319
ENCODING 21273
SWIDTH 1000 0
DWIDTH 16 0
BBX 15 16 1 -2
BITMAP
4100
7F80
6340
7F64
6366
7F6C
426C
FF78
0C70
4CE4
6F64
6C7E
7C3C
6E00
C7FE
81FC
ENDCHAR
STARTCHAR 531A
ENCODING 21274
SWIDTH 1000 0
DWIDTH 16 0
BBX 15 16 1 -2
BITMAP
8008
FFFC
C000
C000
C000
C000
C000
C000
C000
C000
C000
C000
C000
C004
FFFE
8000
ENDCHAR
STARTCHAR 531D
ENCODING 21277
SWIDTH 1000 0
DWIDTH 16 0
BBX 15 16 1 -2
BITMAP
8008
FFFC
C180
C180
D188
DFFC
D998
D998
D998
D998
D998
D998
D9B8
D190
C104
FFFE
ENDCHAR
STARTCHAR 5320
ENCODING 21280
SWIDTH 1000 0
DWIDTH 16 0
BBX 13 16 2 -2
BITMAP
8010
FFF8
D0C0
DFE0
D800
D810
DFF8
D8C0
D8C0
D8C0
D8C0
D0C0
E0C0
C090
FFF8
8000
ENDCHAR
STARTCHAR 5321
ENCODING 21281
SWIDTH 1000 0
DWIDTH 16 0
BBX 14 16 2 -2
BITMAP
8010
FFF8
C000
C040
DFE0
C300
C340
DFE0
C300
C300
C320
FFF0
C000
C008
FFFC
8000
ENDCHAR
STARTCHAR 5323
ENCODING 21283
SWIDTH 1000 0
DWIDTH 16 0
BBX 15 16 1 -2
BITMAP
C008
FFFC
D008
DFFC
D998
D998
DFF8
D998
D998
DFF8
D188
C180
C180
C184
FFFE
C000
ENDCHAR
STARTCHAR 5326
ENCODING 21286
SWIDTH 1000 0
DWIDTH 16 0
BBX 15 16 1 -2
BITMAP
8008
FFFC
C000
C420
DFA8
C47C
CA28
DF28
C228
FFA8
C22A
C24E
C284
C000
FFFE
8000
ENDCHAR
STARTCHAR 532A
ENCODING 21290
SWIDTH 1000 0
DWIDTH 16 0
BBX 14 16 2 -2
BITMAP
8010
FFF8
C480
C6C0
C6C0
DEF0
C6C0
DEF0
C6C0
C6D0
FEF8
C6C0
C6C0
C488
FFFC
8000
ENDCHAR
STARTCHAR 532E
ENCODING 21294
SWIDTH 1000 0
DWIDTH 16 0
BBX 15 16 1 -2
BITMAP
8008
FFFC
C180
CFF0
CDB0
CFF0
C180
DFF8
C000
CFF0
CDB0
CDB0
C3C0
CC34
FFFE
8000
ENDCHAR
STARTCHAR 5339
ENCODING 21305
SWIDTH 1000 0
DWIDTH 16 0
BBX 14 16 2 -2
BITMAP
8008
FFFC
C400
C6C0
C6C0
C6C0
C6C0
C6C0
C6D0
C4F8
C870
D000
C000
C008
FFFC
C000
ENDCHAR
STARTCHAR 533A
ENCODING 21306
SWIDTH 1000 0
DWIDTH 16 0
BBX 14 16 2 -2
BITMAP
8010
FFF8
C000
C020
C870
C460
C6C0
C380
C180
C3C0
C660
CC70
D020
C008
FFFC
8000
ENDCHAR
STARTCHAR 533B
ENCODING 21307
SWIDTH 1000 0
DWIDTH 16 0
BBX 15 16 1 -2
BITMAP
4008
7FFC
6300
6610
67F8
6CC0
70C8
6FFC
60C0
61A0
6330
661C
6C08
7004
FFFE
4000
ENDCHAR
STARTCHAR 533E
ENCODING 21310
SWIDTH 1000 0
DWIDTH 16 0
BBX 15 16 1 -2
BITMAP
8008
FFFC
C980
CFF8
CC30
CFF0
CC08
CFFC
CEA8
CFF8
CAA8
D2A8
E218
C004
FFFE
8000
ENDCHAR
STARTCHAR 533F
ENCODING 21311
SWIDTH 1000 0
DWIDTH 16 0
BBX 13 16 2 -2
BITMAP
8010
FFF8
CCD0
FFF8
CCC0
CCC0
C600
FFF8
C610
CFF8
DC30
EC30
CFF0
C810
FFF8
8000
ENDCHAR
STARTCHAR 5341
ENCODING 21313
SWIDTH 1000 0
DWIDTH 16 0
BBX 14 16 2 -2
BITMAP
0200
0300
0300
0300
0300
0308
FFFC
0300
0300
0300
0300
0300
0300
0300
0300
0200
ENDCHAR
STARTCHAR 5343
ENCODING 21315
SWIDTH 1000 0
DWIDTH 16 0
BBX 15 16 1 -2
BITMAP
0010
0038
07F0
7E00
0300
0300
0304
FFFE
0300
0300
0300
0300
0300
0300
0300
0200
ENDCHAR
STARTCHAR 5345
ENCODING 21317
SWIDTH 1000 0
DWIDTH 16 0
BBX 15 16 1 -2
BITMAP
2020
3230
3330
3330
3330
3334
FFFE
3330
3330
3330
3330
3330
3330
2330
4230
8020
ENDCHAR
STARTCHAR 5347
ENCODING 21319
SWIDTH 1000 0
DWIDTH 16 0
BBX 15 16 1 -2
BITMAP
0240
0F60
7C60
0C60
0C60
0C64
FFFE
0C60
0C60
0C60
0C60
1860
1860
3060
6060
8040
ENDCHAR
STARTCHAR 5348
ENCODING 21320
SWIDTH 1000 0
DWIDTH 16 0
BBX 15 16 1 -2
BITMAP
1800
1810
3FF8
3180
6180
8180
0184
FFFE
0180
0180
0180
0180
0180
0180
0180
0100
ENDCHAR
STARTCHAR 5349
ENCODING 21321
SWIDTH 1000 0
DWIDTH 16 0
BBX 15 16 1 -2
BITMAP
0200
0300
0310
7FF8
0300
1340
1B60
1864
FFFE
1860
1860
1860
3060
3060
2060
4040
ENDCHAR
STARTCHAR 534A
ENCODING 21322
SWIDTH 1000 0
DWIDTH 16 0
BBX 14 16 2 -2
BITMAP
0310
4338
3330
3B60
1350
7FF8
0300
0300
0300
0308
FFFC
0300
0300
0300
0300
0300
ENDCHAR
STARTCHAR 534E
ENCODING 21326
SWIDTH 1000 0
DWIDTH 16 0
BBX 15 16 1 -2
BITMAP
0880
0CD0
18D8
10F0
38E0
79C0
99C8
1AC8
18FC
1378
0304
FFFE
0300
0300
0300
0300
ENDCHAR
STARTCHAR 534F
ENCODING 21327
SWIDTH 1000 0
DWIDTH 16 0
BBX 15 16 1 -2
BITMAP
2080
30C0
30C0
30C8
FFFC
30D8
32D8
32DC
36DE
3EDE
34DA
3198
3198
3318
3638
2810
ENDCHAR
STARTCHAR 5351
ENCODING 21329
SWIDTH 1000 0
DWIDTH 16 0
BBX 14 16 2 -2
BITMAP
0600
0C10
3FF8
7330
3330
3FF0
3330
3330
3FF0
0900
1D80
3188
FFFC
0180
0180
0180
ENDCHAR
STARTCHAR 5352
ENCODING 21330
SWIDTH 1000 0
DWIDTH 16 0
BBX 15 16 1 -2
BITMAP
0200
0308
7FFC
18C0
18C0
30A0
2D38
4E18
4B10
0304
FFFE
0300
0300
0300
0300
0200
ENDCHAR
STARTCHAR 5353
ENCODING 21331
SWIDTH 1000 0
DWIDTH 16 0
BBX 14 16 1 -2
BITMAP
0300
0308
03FC
0300
2310
3FF8
3030
3FF0
3030
3FF0
3330
0308
FFFC
0300
0300
0300
ENDCHAR
STARTCHAR 5355
ENCODING 21333
SWIDTH 1000 0
DWIDTH 16 0
BBX 14 16 1 -2
BITMAP
1060
0CC0
2590
3FF8
3330
3330
3FF0
3330
3330
3FF0
0308
FFFC
0300
0300
0300
0300
ENDCHAR
STARTCHAR 5356
ENCODING 21334
SWIDTH 1000 0
DWIDTH 16 0
BBX 15 16 1 -2
BITMAP
0300
0308
7FFC
0304
FFFE
008C
31CC
1990
4180
3980
1184
FFFE
0300
06C0
0C7C
3038
ENDCHAR
STARTCHAR 5357
ENCODING 21335
SWIDTH 1000 0
DWIDTH 16 0
BBX 15 16 1 -2
BITMAP
0300
0304
FFFE
0300
4304
7FFE
6C4C
66EC
648C
6FEC
630C
7FFC
630C
630C
633C
4008
ENDCHAR
STARTCHAR 535A
ENCODING 21338
SWIDTH 1000 0
DWIDTH 16 0
BBX 15 16 1 -2
BITMAP
306C
37FE
3060
33FC
FF6C
33FC
336C
33FC
336C
330C
3018
37FE
3318
3198
3138
3010
ENDCHAR
STARTCHAR 535C
ENCODING 21340
SWIDTH 1000 0
DWIDTH 16 0
BBX 9 16 6 -2
BITMAP
6000
6000
6000
6000
6000
E000
7000
7800
6E00
6700
6380
6100
6000
6000
6000
6000
ENDCHAR
STARTCHAR 535E
ENCODING 21342
SWIDTH 1000 0
DWIDTH 16 0
BBX 15 16 1 -2
BITMAP
0600
0380
0184
FFFE
0180
0180
0180
01E0
01B8
019C
0188
0180
0180
0180
0180
0180
ENDCHAR
STARTCHAR 535F
ENCODING 21343
SWIDTH 1000 0
DWIDTH 16 0
BBX 13 16 2 -2
BITMAP
0100
0180
0180
8980
FDA0
D9A0
D9B0
D9B0
D998
F998
9188
0188
0180
0180
0180
0100
ENDCHAR
STARTCHAR 5360
ENCODING 21344
SWIDTH 1000 0
DWIDTH 16 0
BBX 13 16 3 -2
BITMAP
0800
0C00
0C00
0C10
0FF8
0C00
0C00
8C20
FFF0
C060
C060
C060
C060
C060
FFE0
8040
ENDCHAR
STARTCHAR 5361
ENCODING 21345
SWIDTH 1000 0
DWIDTH 16 0
BBX 15 16 1 -2
BITMAP
0200
0300
0310
03F8
0300
0304
FFFE
0300
0380
0360
0330
0318
0310
0300
0300
0200
ENDCHAR
STARTCHAR 5362
ENCODING 21346
SWIDTH 1000 0
DWIDTH 16 0
BBX 15 16 1 -2
BITMAP
0310
03F8
0300
2304
3FFE
300C
300C
3FFC
3000
3000
3000
2000
6000
4000
8000
8000
ENDCHAR
STARTCHAR 5363
ENCODING 21347
SWIDTH 1000 0
DWIDTH 16 0
BBX 13 16 2 -2
BITMAP
0600
0610
07F8
0600
8620
FFF0
C060
C260
FF60
C660
C660
FE60
C060
C060
FFE0
8020
ENDCHAR
STARTCHAR 5364
ENCODING 21348
SWIDTH 1000 0
DWIDTH 16 0
BBX 14 16 2 -2
BITMAP
0C20
0FF0
0C00
8C08
FFFC
C058
C0F8
D0D8
CDD8
C318
C6D8
C9F8
D0D8
C018
FFF8
C018
ENDCHAR
STARTCHAR 5366
ENCODING 21350
SWIDTH 1000 0
DWIDTH 16 0
BBX 15 16 1 -2
BITMAP
10C0
18C0
1AC0
FFC0
18C0
18E0
7ED0
18D8
18CC
7ECE
18C4
18C0
1BC0
FEC0
60C0
0080
ENDCHAR
STARTCHAR 5367
ENCODING 21351
SWIDTH 1000 0
DWIDTH 16 0
BBX 15 16 1 -2
BITMAP
0060
C160
FFE0
CC60
CC70
CD68
FF6C
C36C
C366
FF64
CD60
CC60
CC60
CD60
FFE0
C060
ENDCHAR
STARTCHAR 5369
ENCODING 21353
SWIDTH 1000 0
DWIDTH 16 0
BBX 9 16 5 -2
BITMAP
8100
FF80
C180
C180
C180
C180
C180
C180
C980
C780
C300
C000
C000
C000
C000
8000
ENDCHAR
STARTCHAR 536B
ENCODING 21355
SWIDTH 1000 0
DWIDTH 16 0
BBX 15 14 1 -1
BITMAP
0010
3FF8
0330
0330
0330
0330
0330
0330
03F0
0320
0300
0300
0304
FFFE
ENDCHAR
STARTCHAR 536E
ENCODING 21358
SWIDTH 1000 0
DWIDTH 16 0
BBX 15 16 1 -2
BITMAP
4030
63F8
7F00
6004
7FFE
6810
6FF8
6C30
6C30
6D30
6CF0
6C60
6C04
6C04
4FFE
87FC
ENDCHAR
STARTCHAR 536F
ENCODING 21359
SWIDTH 1000 0
DWIDTH 16 0
BBX 15 16 1 -2
BITMAP
0400
1E04
3DFE
F0CC
CCCC
CCCC
CCCC
CCCC
CCCC
CCCC
FCCC
6CEC
0CD8
18C0
30C0
C080
ENDCHAR
STARTCHAR 5370
ENCODING 21360
SWIDTH 1000 0
DWIDTH 16 0
BBX 15 16 1 -2
BITMAP
0200
4F84
7CFE
60CC
64CC
7ECC
60CC
60CC
60CC
6ECC
F8FC
40C8
00C0
00C0
00C0
0080
ENDCHAR
STARTCHAR 5371
ENCODING 21361
SWIDTH 1000 0
DWIDTH 16 0
BBX 15 16 1 -2
BITMAP
0800
0C20
1FF0
1860
30C8
7FFC
B410
37F8
3630
3630
36F0
3620
2604
6604
47FE
83FC
ENDCHAR
STARTCHAR 5373
ENCODING 21363
SWIDTH 1000 0
DWIDTH 16 0
BBX 15 16 1 -2
BITMAP
4200
7F84
66FE
66CC
7ECC
66CC
66CC
7ECC
64CC
70CC
68CC
6CFC
7EC8
E4C0
40C0
00C0
ENDCHAR
STARTCHAR 5374
ENCODING 21364
SWIDTH 1000 0
DWIDTH 16 0
BBX 15 16 1 -2
BITMAP
1000
1884
18FE
7ECC
18CC
18CC
18CC
FFCC
18CC
34EC
36DC
63C8
FFC0
42C0
00C0
00C0
ENDCHAR
STARTCHAR 5375
ENCODING 21365
SWIDTH 1000 0
DWIDTH 16 0
BBX 15 16 1 -2
BITMAP
0400
4E84
78FE
64CC
66CC
76EC
7EFC
6EDC
66CC
6ECC
F6FC
4CC8
0CC0
18C0
30C0
40C0
ENDCHAR
STARTCHAR 5377
ENCODING 21367
SWIDTH 1000 0
DWIDTH 16 0
BBX 15 16 1 -2
BITMAP
2330
1B60
0B50
3FF8
0308
7FFC
06C0
0C60
1FF0
3C7C
6C6E
8CE4
0C50
0C10
0FF8
07F0
ENDCHAR
STARTCHAR 5378
ENCODING 21368
SWIDTH 1000 0
DWIDTH 16 0
BBX 15 16 1 -2
BITMAP
1884
30FE
7FCC
CCCC
0CCC
0CCC
7FCC
0CCC
4CEC
6FDC
6CC8
6DC0
6EC0
F8C0
40C0
0080
ENDCHAR
STARTCHAR 537A
ENCODING 21370
SWIDTH 1000 0
DWIDTH 16 0
BBX 15 16 1 -2
BITMAP
0010
3FF8
0230
01CE
FDD8
09E0
1B98
310E
4FE4
8000
3FFC
300C
300C
3018
3002
1FFE
ENDCHAR
STARTCHAR 537F
ENCODING 21375
SWIDTH 1000 0
DWIDTH 16 0
BBX 15 16 1 -2
BITMAP
3010
7C5E
D7F6
D6D6
D6D6
D7D6
D6D4
D6D8
D7D4
D656
F616
5696
1FD6
3CD8
2050
4010
ENDCHAR
STARTCHAR 5382
ENCODING 21378
SWIDTH 1000 0
DWIDTH 16 0
BBX 15 16 1 -2
BITMAP
2004
3FFE
3000
3000
3000
3000
3000
3000
3000
3000
3000
3000
6000
6000
4000
8000
ENDCHAR
STARTCHAR 5384
ENCODING 21380
SWIDTH 1000 0
DWIDTH 16 0
BBX 15 16 1 -2
BITMAP
2008
3FFC
3000
3410
37F8
3630
3630
3630
3630
36F0
3660
3600
6604
6604
47FE
83FC
ENDCHAR
STARTCHAR 5385
ENCODING 21381
SWIDTH 1000 0
DWIDTH 16 0
BBX 15 16 1 -2
BITMAP
4008
7FFC
6000
6004
7FFE
60C0
60C0
60C0
60C0
60C0
60C0
60C0
60C0
60C0
43C0
8180
ENDCHAR
STARTCHAR 5386
ENCODING 21382
SWIDTH 1000 0
DWIDTH 16 0
BBX 15 16 1 -2
BITMAP
2004
3FFE
3000
3100
3180
3184
37FE
318C
318C
318C
318C
330C
630C
660C
4438
8810
ENDCHAR
STARTCHAR 5389
ENCODING 21385
SWIDTH 1000 0
DWIDTH 16 0
BBX 15 16 1 -2
BITMAP
2004
3FFE
3000
3004
3FFE
3300
3308
33FC
3318
3318
3318
3318
6618
6618
4C38
9010
ENDCHAR
STARTCHAR 538B
ENCODING 21387
SWIDTH 1000 0
DWIDTH 16 0
BBX 15 16 1 -2
BITMAP
2008
3FFC
3000
3100
3180
3180
3190
3FF8
3180
31A0
31B0
3198
2190
6184
5FFE
8000
ENDCHAR
STARTCHAR 538C
ENCODING 21388
SWIDTH 1000 0
DWIDTH 16 0
BBX 15 16 1 -2
BITMAP
4008
7FFC
60A0
60F8
60D8
60D4
6FFE
60C0
60C0
61C0
63E0
6360
6630
6C1C
480E
9004
ENDCHAR
STARTCHAR 538D
ENCODING 21389
SWIDTH 1000 0
DWIDTH 16 0
BBX 15 16 1 -2
BITMAP
4008
7FFC
6100
61C0
6188
6FFC
6180
6380
66D0
6FF8
60C0
60C4
7FFE
60C0
40C0
8080
ENDCHAR
STARTCHAR 5395
ENCODING 21397
SWIDTH 1000 0
DWIDTH 16 0
BBX 15 16 1 -2
BITMAP
4004
7FFE
6000
6FC6
6846
6A46
6B56
6B56
6B56
6B56
6B56
6316
4686
86C6
8C6E
1044
ENDCHAR
STARTCHAR 5398
ENCODING 21400
SWIDTH 1000 0
DWIDTH 16 0
BBX 15 16 1 -2
BITMAP
2004
3FFE
3408
37FC
36D8
36D8
37F8
36D8
36D8
37F8
34D0
60C0
67F8
40C0
80C4
1FFE
ENDCHAR
STARTCHAR 539A
ENCODING 21402
SWIDTH 1000 0
DWIDTH 16 0
BBX 15 16 1 -2
BITMAP
2008
3FFC
3408
37FC
3618
37F8
3618
37F8
3410
37F8
2030
60C4
5FFE
40C0
81C0
0080
ENDCHAR
STARTCHAR 539D
ENCODING 21405
SWIDTH 1000 0
DWIDTH 16 0
BBX 15 16 1 -2
BITMAP
4008
7FFC
6240
6360
6360
6FF8
6360
6364
7FFE
6410
67F8
6630
67F0
6630
47F0
8410
ENDCHAR
STARTCHAR 539F
ENCODING 21407
SWIDTH 1000 0
DWIDTH 16 0
BBX 15 16 1 -2
BITMAP
2004
3FFE
30C0
3588
37FC
3618
37F8
3618
37F8
34D0
32E0
33D8
66CC
6CC6
53C4
8080
ENDCHAR
STARTCHAR 53A2
ENCODING 21410
SWIDTH 1000 0
DWIDTH 16 0
BBX 15 16 1 -2
BITMAP
4004
7FFE
6400
6644
667E
7FEC
666C
6E7C
6F6C
7FEC
76FC
666C
666C
666C
467C
8444
ENDCHAR
STARTCHAR 53A3
ENCODING 21411
SWIDTH 1000 0
DWIDTH 16 0
BBX 14 16 1 -2
BITMAP
4008
7FFC
61A0
6190
6FF8
63C0
6678
6830
6FF8
6DB0
6FF0
6DB0
6FF0
6990
4180
8100
ENDCHAR
STARTCHAR 53A5
ENCODING 21413
SWIDTH 1000 0
DWIDTH 16 0
BBX 15 16 1 -2
BITMAP
4008
7FFC
6890
6534
7FFE
6244
6AA4
6AB0
6AB0
6AB0
6FB0
6AB0
6228
664C
4C86
9104
ENDCHAR
STARTCHAR 53A6
ENCODING 21414
SWIDTH 1000 0
DWIDTH 16 0
BBX 15 16 1 -2
BITMAP
7FFE
6008
7FFC
6208
6FFC
6C18
6FF8
6C18
6FF8
6C18
6FF8
6D88
67FC
6B30
47F8
9C0E
ENDCHAR
STARTCHAR 53A8
ENCODING 21416
SWIDTH 1000 0
DWIDTH 16 0
BBX 15 16 1 -2
BITMAP
4004
7FFE
6000
6008
7FCC
600C
6FBE
6D8C
6DCC
6FAC
603C
79AC
6D0C
4A2C
5F9C
8008
ENDCHAR
STARTCHAR 53A9
ENCODING 21417
SWIDTH 1000 0
DWIDTH 16 0
BBX 15 16 1 -2
BITMAP
4004
7FFE
6884
6FFE
6DB0
6FB0
6DB0
6FFE
6D30
6E38
6D78
6FE8
5D6A
48CA
818E
0604
ENDCHAR
STARTCHAR 53AE
ENCODING 21422
SWIDTH 1000 0
DWIDTH 16 0
BBX 14 16 1 -2
BITMAP
4008
7FFC
6000
651C
6530
6FA0
653C
6728
6528
6728
6528
7FE8
6D28
68E8
50A8
8048
ENDCHAR
STARTCHAR 53B6
ENCODING 21430
SWIDTH 1000 0
DWIDTH 16 0
BBX 15 12 1 0
BITMAP
0200
0600
0600
0C00
0C80
18C0
1860
3030
2038
40FC
FF9E
4008
ENDCHAR
STARTCHAR 53BB
ENCODING 21435
SWIDTH 1000 0
DWIDTH 16 0
BBX 15 16 1 -2
BITMAP
0200
0300
0300
0310
3FF8
0300
0300
0304
FFFE
0680
0C40
0C60
1830
30F8
7F9C
3008
ENDCHAR
STARTCHAR 53BF
ENCODING 21439
SWIDTH 1000 0
DWIDTH 16 0
BBX 15 16 1 -2
BITMAP
1010
1FF8
1830
1830
1FF0
1830
1830
1FF0
1830
1834
FFFE
0640
0C60
1830
3FF8
1810
ENDCHAR
STARTCHAR 53C1
ENCODING 21441
SWIDTH 1000 0
DWIDTH 16 0
BBX 15 16 1 -2
BITMAP
0300
0620
0C30
1FF0
0324
7FFE
0640
1C30
305C
6FEE
8004
0040
0FE0
0000
0008
7FFC
ENDCHAR
STARTCHAR 53C2
ENCODING 21442
SWIDTH 1000 0
DWIDTH 16 0
BBX 14 16 2 -2
BITMAP
0600
0C80
1860
3FF0
0628
FFFC
0C80
1A60
3738
6C9C
99C8
0300
0C40
01E0
0780
3C00
ENDCHAR
STARTCHAR 53C8
ENCODING 21448
SWIDTH 1000 0
DWIDTH 16 0
BBX 15 15 1 -2
BITMAP
0010
3FF8
1030
1030
0860
0C60
04C0
06C0
0380
0380
06C0
0C60
1838
301E
C004
ENDCHAR
STARTCHAR 53C9
ENCODING 21449
SWIDTH 1000 0
DWIDTH 16 0
BBX 13 15 3 -2
BITMAP
0020
7FF0
0060
4660
2360
3240
10C0
1980
0F00
0600
0F00
19C0
30E0
6078
8030
ENDCHAR
STARTCHAR 53CA
ENCODING 21450
SWIDTH 1000 0
DWIDTH 16 0
BBX 15 16 1 -2
BITMAP
0010
3FF8
0C30
0C30
0C60
0CC8
0DFC
1C18
1A18
1930
31B0
30E0
21E0
6338
461E
980C
ENDCHAR
STARTCHAR 53CB
ENCODING 21451
SWIDTH 1000 0
DWIDTH 16 0
BBX 15 16 1 -2
BITMAP
0200
0300
0604
FFFE
0600
0C10
0FF8
0C30
1A20
1360
31C0
21C0
6360
4638
981E
6004
ENDCHAR
STARTCHAR 53CC
ENCODING 21452
SWIDTH 1000 0
DWIDTH 16 0
BBX 15 15 1 -2
BITMAP
0408
FFFC
0D18
4D18
4C98
2890
28B0
1060
3860
2CF0
2690
4598
410C
830E
0404
ENDCHAR
STARTCHAR 53CD
ENCODING 21453
SWIDTH 1000 0
DWIDTH 16 0
BBX 15 16 1 -2
BITMAP
0060
13F0
1F00
1800
1810
1FF8
1C30
1E30
1A60
1B60
31C0
31C0
6360
4638
8C1E
300C
ENDCHAR
STARTCHAR 53D1
ENCODING 21457
SWIDTH 1000 0
DWIDTH 16 0
BBX 15 16 1 -2
BITMAP
0220
2398
331C
3308
7FFC
6600
0610
0FF8
0E30
1B30
1960
30C0
31E0
6338
861E
180C
ENDCHAR
STARTCHAR 53D4
ENCODING 21460
SWIDTH 1000 0
DWIDTH 16 0
BBX 15 16 1 -2
BITMAP
1800
1904
18FE
1E0C
188C
18CC
FF4C
184C
1858
3C78
7A30
5B70
9AF8
18CC
398E
1204
ENDCHAR
STARTCHAR 53D6
ENCODING 21462
SWIDTH 1000 0
DWIDTH 16 0
BBX 15 16 1 -2
BITMAP
0100
FF80
3604
37FE
368C
3E8C
36CC
3658
3E58
3678
3630
3F70
F658
46CC
068E
0504
ENDCHAR
STARTCHAR 53D7
ENCODING 21463
SWIDTH 1000 0
DWIDTH 16 0
BBX 15 16 1 -2
BITMAP
0020
07F0
3920
0DB0
24A4
7FFE
E02C
5FF8
0860
0460
06C0
0380
06C0
0C70
303E
C00C
ENDCHAR
STARTCHAR 53D8
ENCODING 21464
SWIDTH 1000 0
DWIDTH 16 0
BBX 15 16 1 -2
BITMAP
0300
0184
7FFE
1660
3E70
366C
6666
4674
9FF8
0830
0660
03C0
0180
0360
0C3E
700C
ENDCHAR
STARTCHAR 53D9
ENCODING 21465
SWIDTH 1000 0
DWIDTH 16 0
BBX 15 16 1 -2
BITMAP
1800
1804
34FE
620C
408C
BCCC
184C
184C
FE58
3878
3C30
5E70
5AF8
98CC
398E
1204
ENDCHAR
STARTCHAR 53DB
ENCODING 21467
SWIDTH 1000 0
DWIDTH 16 0
BBX 15 16 1 -2
BITMAP
2008
B73C
F7E0
7580
3984
7DFE
318C
318C
FFDC
31F8
3170
3130
2278
22DC
448E
8904
ENDCHAR
ENDFONT
